%TF.GenerationSoftware,KiCad,Pcbnew,10.0.6*%
%TF.CreationDate,2026-09-14T21:53:05+02:00*%
%TF.ProjectId,stm32c071_project,73746d33-3263-4303-9731-5f70726f6a65,rev?*%
%TF.SameCoordinates,Original*%
%TF.FileFunction,Copper,L3,Inr*%
%TF.FilePolarity,Positive*%
%FSLAX46Y46*%
G04 Gerber Fmt 4.6, Leading zero omitted, Abs format (unit mm)*
G04 Created by KiCad (PCBNEW 10.0.6) date 2026-09-14 21:53:05*
%MOMM*%
%LPD*%
G01*
G04 APERTURE LIST*
%TA.AperFunction,ComponentPad*%
%ADD10R,1.000000X1.000000*%
%TD*%
%TA.AperFunction,ComponentPad*%
%ADD11C,1.000000*%
%TD*%
%TA.AperFunction,ViaPad*%
%ADD12C,0.600000*%
%TD*%
%TA.AperFunction,Conductor*%
%ADD13C,0.200000*%
%TD*%
G04 APERTURE END LIST*
D10*
%TO.N,unconnected-(J1-NC-Pad1)*%
%TO.C,J1*%
X224690000Y-131500000D03*
D11*
%TO.N,unconnected-(J1-NC-Pad2)*%
X224690000Y-130230000D03*
%TO.N,+3V3*%
X225960000Y-131500000D03*
%TO.N,DEBUG_SWDIO*%
X225960000Y-130230000D03*
%TO.N,GND*%
X227230000Y-131500000D03*
%TO.N,DEBUG_SWCLK{slash}BOOT0*%
X227230000Y-130230000D03*
%TO.N,GND*%
X228500000Y-131500000D03*
%TO.N,unconnected-(J1-JTDO{slash}SWO-Pad8)*%
X228500000Y-130230000D03*
%TO.N,unconnected-(J1-JRCLK{slash}NC-Pad9)*%
X229770000Y-131500000D03*
%TO.N,unconnected-(J1-JTDI{slash}NC-Pad10)*%
X229770000Y-130230000D03*
%TO.N,GND*%
X231040000Y-131500000D03*
%TO.N,MCU_NRST*%
X231040000Y-130230000D03*
%TO.N,DEBUG_USART1_TX*%
X232310000Y-131500000D03*
%TO.N,DEBUG_USART1_RX*%
X232310000Y-130230000D03*
%TD*%
D12*
%TO.N,I2C1_SCL*%
X228500000Y-91500000D03*
X210500000Y-104500000D03*
X225500000Y-91000000D03*
%TO.N,+3V3*%
X237000000Y-130000000D03*
X207500000Y-119000000D03*
X211500000Y-99500000D03*
X188500000Y-94500000D03*
X195000000Y-90000000D03*
X188500000Y-112000000D03*
X207000000Y-123500000D03*
X205500000Y-95000000D03*
X188500000Y-100500000D03*
X188500000Y-106000000D03*
X188500000Y-118000000D03*
%TO.N,USER_BUTTON2*%
X193500000Y-102000000D03*
X205500000Y-105000000D03*
%TO.N,GND*%
X210223530Y-118625000D03*
X234000000Y-104500000D03*
X199000000Y-106500000D03*
X190500000Y-90900000D03*
X201000000Y-115000000D03*
X206000000Y-113000000D03*
X202500000Y-83000000D03*
X201000000Y-113500000D03*
X200000000Y-111500000D03*
X206000000Y-111500000D03*
X192500000Y-115000000D03*
X214000000Y-122500000D03*
X208500000Y-86000000D03*
X206000000Y-114500000D03*
X234000000Y-108000000D03*
X234000000Y-111500000D03*
X200000000Y-113000000D03*
X205000000Y-113500000D03*
X194500000Y-123000000D03*
X215000000Y-117000000D03*
X234000000Y-97500000D03*
X233000000Y-85000000D03*
X206500000Y-126500000D03*
X192500000Y-108500000D03*
X223000000Y-88000000D03*
X192000000Y-103500000D03*
X234000000Y-101000000D03*
X203000000Y-120000000D03*
X204000000Y-131500000D03*
X222500000Y-128500000D03*
X209500000Y-90500000D03*
X193000000Y-127500000D03*
X192500000Y-97500000D03*
X190000000Y-84000000D03*
X200000000Y-114500000D03*
X203000000Y-113000000D03*
X187000000Y-132000000D03*
X216500000Y-126500000D03*
X236000000Y-129500000D03*
X205000000Y-115000000D03*
X209500000Y-122500000D03*
%TO.N,MCU_NRST*%
X216500000Y-111000000D03*
X187000000Y-128000000D03*
X211000000Y-101500000D03*
%TO.N,DEBUG_USART1_TX*%
X209700000Y-100500000D03*
X235500000Y-127500000D03*
%TO.N,DEBUG_USART1_RX*%
X218000000Y-106500000D03*
X208900000Y-99517470D03*
X235500000Y-124500000D03*
%TO.N,SPI1_NSS*%
X205500000Y-100000000D03*
X203000000Y-93500000D03*
X202500000Y-90000000D03*
%TO.N,SPI1_SCK*%
X196500000Y-86000000D03*
X202000000Y-95000000D03*
X205500000Y-101000000D03*
%TO.N,SPI1_MISO*%
X206000000Y-89000000D03*
X205500000Y-102000000D03*
%TO.N,SPI1_MOSI*%
X205500000Y-103000000D03*
X194500000Y-83500000D03*
%TO.N,USER_BUTTON1*%
X193500000Y-96000000D03*
X205500000Y-104000000D03*
%TO.N,USER_BUTTON3*%
X207500000Y-106500000D03*
X193500000Y-107500000D03*
%TO.N,I2C1_SDA*%
X230000000Y-85500000D03*
X212000000Y-104500000D03*
X223500000Y-92500000D03*
%TO.N,DEBUG_SWDIO*%
X226000000Y-127000000D03*
%TO.N,DEBUG_SWCLK{slash}BOOT0*%
X197000000Y-126500000D03*
X215500000Y-112000000D03*
X227230000Y-126730000D03*
%TO.N,USER_BUTTON4*%
X193500000Y-113500000D03*
X204000000Y-108500000D03*
X208900000Y-103500000D03*
%TO.N,USER_BUTTON5*%
X193500000Y-119500000D03*
X208900000Y-102500000D03*
X202500000Y-108400000D03*
X197000000Y-117000000D03*
%TO.N,USB_VBUS*%
X214500000Y-127000000D03*
X208500000Y-127000000D03*
X216500000Y-120500000D03*
X199500000Y-122000000D03*
X198500000Y-119000000D03*
%TD*%
%TO.N,I2C1_SCL*%
D13*
X210500000Y-104500000D02*
X212500000Y-102500000D01*
X212500000Y-102500000D02*
X212500000Y-97000000D01*
X218500000Y-91000000D02*
X225500000Y-91000000D01*
X212500000Y-97000000D02*
X218500000Y-91000000D01*
%TO.N,+3V3*%
X191000000Y-109500000D02*
X188500000Y-112000000D01*
X208000000Y-109500000D02*
X209500000Y-108000000D01*
X200500000Y-96000000D02*
X195000000Y-90500000D01*
X216125000Y-115500000D02*
X220125000Y-119500000D01*
X208000000Y-109500000D02*
X191000000Y-109500000D01*
X208500000Y-120000000D02*
X208500000Y-122000000D01*
X229000000Y-124500000D02*
X229000000Y-127000000D01*
X222000000Y-118000000D02*
X222500000Y-118000000D01*
X211500000Y-99900000D02*
X211500000Y-99500000D01*
X205500000Y-95000000D02*
X204500000Y-95000000D01*
X207500000Y-119000000D02*
X208500000Y-120000000D01*
X236900000Y-130100000D02*
X237000000Y-130000000D01*
X207500000Y-119000000D02*
X207500000Y-116000000D01*
X209500000Y-101900000D02*
X211500000Y-99900000D01*
X230000000Y-128000000D02*
X233000000Y-128000000D01*
X209500000Y-108000000D02*
X209500000Y-101900000D01*
X208000000Y-115500000D02*
X216125000Y-115500000D01*
X204500000Y-95000000D02*
X203500000Y-96000000D01*
X220125000Y-119500000D02*
X220500000Y-119500000D01*
X191000000Y-109500000D02*
X188500000Y-107000000D01*
X208000000Y-115500000D02*
X208000000Y-109500000D01*
X208500000Y-99000000D02*
X205500000Y-96000000D01*
X207500000Y-116000000D02*
X208000000Y-115500000D01*
X188500000Y-107000000D02*
X188500000Y-106000000D01*
X222500000Y-118000000D02*
X229000000Y-124500000D01*
X229000000Y-127000000D02*
X230000000Y-128000000D01*
X211500000Y-99500000D02*
X210917470Y-98917470D01*
X205500000Y-96000000D02*
X205500000Y-95000000D01*
X188500000Y-100500000D02*
X188500000Y-94500000D01*
X188500000Y-106000000D02*
X188500000Y-100500000D01*
X235100000Y-130100000D02*
X236900000Y-130100000D01*
X208500000Y-122000000D02*
X207000000Y-123500000D01*
X188500000Y-112000000D02*
X188500000Y-118000000D01*
X203500000Y-96000000D02*
X200500000Y-96000000D01*
X220500000Y-119500000D02*
X222000000Y-118000000D01*
X210917470Y-98917470D02*
X208582530Y-98917470D01*
X195000000Y-90500000D02*
X195000000Y-90000000D01*
X208582530Y-98917470D02*
X208500000Y-99000000D01*
X233000000Y-128000000D02*
X235100000Y-130100000D01*
%TO.N,I2C1_SDA*%
X218500000Y-92000000D02*
X213000000Y-97500000D01*
X218500000Y-92000000D02*
X223000000Y-92000000D01*
X223000000Y-92000000D02*
X223500000Y-92500000D01*
X213000000Y-97500000D02*
X213000000Y-103500000D01*
X213000000Y-103500000D02*
X212000000Y-104500000D01*
%TO.N,USER_BUTTON4*%
X208900000Y-103600000D02*
X204000000Y-108500000D01*
X208900000Y-103500000D02*
X208900000Y-103600000D01*
%TO.N,USER_BUTTON5*%
X202500000Y-108400000D02*
X203000000Y-108400000D01*
X197000000Y-117000000D02*
X194500000Y-119500000D01*
X203000000Y-108400000D02*
X208900000Y-102500000D01*
X194500000Y-119500000D02*
X193500000Y-119500000D01*
%TO.N,USB_VBUS*%
X214500000Y-127000000D02*
X216500000Y-125000000D01*
X214500000Y-127000000D02*
X214000000Y-126500000D01*
X209000000Y-126500000D02*
X208500000Y-127000000D01*
X216500000Y-125000000D02*
X216500000Y-120500000D01*
X208500000Y-127000000D02*
X203500000Y-122000000D01*
X214000000Y-126500000D02*
X209000000Y-126500000D01*
X203500000Y-122000000D02*
X199500000Y-122000000D01*
%TD*%
M02*
