%TF.GenerationSoftware,KiCad,Pcbnew,10.0.6*%
%TF.CreationDate,2026-09-14T21:53:05+02:00*%
%TF.ProjectId,stm32c071_project,73746d33-3263-4303-9731-5f70726f6a65,rev?*%
%TF.SameCoordinates,Original*%
%TF.FileFunction,Copper,L1,Top*%
%TF.FilePolarity,Positive*%
%FSLAX46Y46*%
G04 Gerber Fmt 4.6, Leading zero omitted, Abs format (unit mm)*
G04 Created by KiCad (PCBNEW 10.0.6) date 2026-09-14 21:53:05*
%MOMM*%
%LPD*%
G01*
G04 APERTURE LIST*
G04 Aperture macros list*
%AMRoundRect*
0 Rectangle with rounded corners*
0 $1 Rounding radius*
0 $2 $3 $4 $5 $6 $7 $8 $9 X,Y pos of 4 corners*
0 Add a 4 corners polygon primitive as box body*
4,1,4,$2,$3,$4,$5,$6,$7,$8,$9,$2,$3,0*
0 Add four circle primitives for the rounded corners*
1,1,$1+$1,$2,$3*
1,1,$1+$1,$4,$5*
1,1,$1+$1,$6,$7*
1,1,$1+$1,$8,$9*
0 Add four rect primitives between the rounded corners*
20,1,$1+$1,$2,$3,$4,$5,0*
20,1,$1+$1,$4,$5,$6,$7,0*
20,1,$1+$1,$6,$7,$8,$9,0*
20,1,$1+$1,$8,$9,$2,$3,0*%
G04 Aperture macros list end*
%TA.AperFunction,SMDPad,CuDef*%
%ADD10RoundRect,0.200000X-0.200000X-0.275000X0.200000X-0.275000X0.200000X0.275000X-0.200000X0.275000X0*%
%TD*%
%TA.AperFunction,SMDPad,CuDef*%
%ADD11RoundRect,0.200000X0.275000X-0.200000X0.275000X0.200000X-0.275000X0.200000X-0.275000X-0.200000X0*%
%TD*%
%TA.AperFunction,SMDPad,CuDef*%
%ADD12RoundRect,0.225000X-0.225000X-0.250000X0.225000X-0.250000X0.225000X0.250000X-0.225000X0.250000X0*%
%TD*%
%TA.AperFunction,SMDPad,CuDef*%
%ADD13RoundRect,0.225000X0.225000X0.250000X-0.225000X0.250000X-0.225000X-0.250000X0.225000X-0.250000X0*%
%TD*%
%TA.AperFunction,SMDPad,CuDef*%
%ADD14RoundRect,0.125000X-0.125000X0.625000X-0.125000X-0.625000X0.125000X-0.625000X0.125000X0.625000X0*%
%TD*%
%TA.AperFunction,SMDPad,CuDef*%
%ADD15RoundRect,0.125000X-0.625000X0.125000X-0.625000X-0.125000X0.625000X-0.125000X0.625000X0.125000X0*%
%TD*%
%TA.AperFunction,SMDPad,CuDef*%
%ADD16RoundRect,0.225000X-0.250000X0.225000X-0.250000X-0.225000X0.250000X-0.225000X0.250000X0.225000X0*%
%TD*%
%TA.AperFunction,SMDPad,CuDef*%
%ADD17RoundRect,0.200000X0.200000X0.800000X-0.200000X0.800000X-0.200000X-0.800000X0.200000X-0.800000X0*%
%TD*%
%TA.AperFunction,SMDPad,CuDef*%
%ADD18RoundRect,0.200000X-0.800000X0.200000X-0.800000X-0.200000X0.800000X-0.200000X0.800000X0.200000X0*%
%TD*%
%TA.AperFunction,SMDPad,CuDef*%
%ADD19RoundRect,0.225000X0.250000X-0.225000X0.250000X0.225000X-0.250000X0.225000X-0.250000X-0.225000X0*%
%TD*%
%TA.AperFunction,SMDPad,CuDef*%
%ADD20RoundRect,0.218750X0.218750X0.256250X-0.218750X0.256250X-0.218750X-0.256250X0.218750X-0.256250X0*%
%TD*%
%TA.AperFunction,SMDPad,CuDef*%
%ADD21RoundRect,0.150000X-0.825000X-0.150000X0.825000X-0.150000X0.825000X0.150000X-0.825000X0.150000X0*%
%TD*%
%TA.AperFunction,SMDPad,CuDef*%
%ADD22RoundRect,0.200000X-0.275000X0.200000X-0.275000X-0.200000X0.275000X-0.200000X0.275000X0.200000X0*%
%TD*%
%TA.AperFunction,SMDPad,CuDef*%
%ADD23RoundRect,0.150000X-0.150000X-0.425000X0.150000X-0.425000X0.150000X0.425000X-0.150000X0.425000X0*%
%TD*%
%TA.AperFunction,SMDPad,CuDef*%
%ADD24RoundRect,0.075000X-0.075000X-0.500000X0.075000X-0.500000X0.075000X0.500000X-0.075000X0.500000X0*%
%TD*%
%TA.AperFunction,SMDPad,CuDef*%
%ADD25RoundRect,0.250000X-0.840000X-0.750000X0.840000X-0.750000X0.840000X0.750000X-0.840000X0.750000X0*%
%TD*%
%TA.AperFunction,SMDPad,CuDef*%
%ADD26RoundRect,0.218750X0.256250X-0.218750X0.256250X0.218750X-0.256250X0.218750X-0.256250X-0.218750X0*%
%TD*%
%TA.AperFunction,ComponentPad*%
%ADD27R,1.000000X1.000000*%
%TD*%
%TA.AperFunction,ComponentPad*%
%ADD28C,1.000000*%
%TD*%
%TA.AperFunction,SMDPad,CuDef*%
%ADD29RoundRect,0.162500X0.650000X0.162500X-0.650000X0.162500X-0.650000X-0.162500X0.650000X-0.162500X0*%
%TD*%
%TA.AperFunction,SMDPad,CuDef*%
%ADD30RoundRect,0.150000X-0.512500X-0.150000X0.512500X-0.150000X0.512500X0.150000X-0.512500X0.150000X0*%
%TD*%
%TA.AperFunction,SMDPad,CuDef*%
%ADD31RoundRect,0.375000X0.375000X-0.625000X0.375000X0.625000X-0.375000X0.625000X-0.375000X-0.625000X0*%
%TD*%
%TA.AperFunction,SMDPad,CuDef*%
%ADD32RoundRect,0.500000X1.400000X-0.500000X1.400000X0.500000X-1.400000X0.500000X-1.400000X-0.500000X0*%
%TD*%
%TA.AperFunction,ViaPad*%
%ADD33C,0.600000*%
%TD*%
%TA.AperFunction,Conductor*%
%ADD34C,0.200000*%
%TD*%
G04 APERTURE END LIST*
D10*
%TO.P,R16,1*%
%TO.N,I2C1_SCL*%
X229675000Y-90000000D03*
%TO.P,R16,2*%
%TO.N,+3V3*%
X231325000Y-90000000D03*
%TD*%
D11*
%TO.P,R9,1*%
%TO.N,USER_BUTTON2*%
X193000000Y-100500000D03*
%TO.P,R9,2*%
%TO.N,GND*%
X193000000Y-98850000D03*
%TD*%
%TO.P,R14,1*%
%TO.N,Net-(U3-~{HOLD}{slash}~{RESET}{slash}IO_{3})*%
X190500000Y-87325000D03*
%TO.P,R14,2*%
%TO.N,GND*%
X190500000Y-85675000D03*
%TD*%
D12*
%TO.P,C3,1*%
%TO.N,+3V3*%
X229725000Y-84000000D03*
%TO.P,C3,2*%
%TO.N,GND*%
X231275000Y-84000000D03*
%TD*%
D10*
%TO.P,R17,1*%
%TO.N,Net-(J2-SHIELD)*%
X219350000Y-129000000D03*
%TO.P,R17,2*%
%TO.N,GND*%
X221000000Y-129000000D03*
%TD*%
D13*
%TO.P,C1,1*%
%TO.N,+3V3*%
X212275000Y-92000000D03*
%TO.P,C1,2*%
%TO.N,GND*%
X210725000Y-92000000D03*
%TD*%
D14*
%TO.P,U1,1,PB9_1*%
%TO.N,USER_LED5*%
X214300000Y-97825000D03*
%TO.P,U1,2,PC14_2*%
%TO.N,unconnected-(U1-PC14-Pad2)*%
X213500000Y-97825000D03*
%TO.P,U1,3,PC15_3*%
%TO.N,unconnected-(U1-PC15-Pad3)*%
X212700000Y-97825000D03*
%TO.P,U1,4,VDD_4*%
%TO.N,+3V3*%
X211900000Y-97825000D03*
%TO.P,U1,5,VSS_5*%
%TO.N,GND*%
X211100000Y-97825000D03*
%TO.P,U1,6,PF2_6*%
%TO.N,MCU_NRST*%
X210300000Y-97825000D03*
%TO.P,U1,7,PA0_7*%
%TO.N,DEBUG_USART1_TX*%
X209500000Y-97825000D03*
%TO.P,U1,8,PA1_8*%
%TO.N,DEBUG_USART1_RX*%
X208700000Y-97825000D03*
D15*
%TO.P,U1,9,PA2_9*%
%TO.N,unconnected-(U1-PA2-Pad9)*%
X207325000Y-99200000D03*
%TO.P,U1,10,PA3_10*%
%TO.N,unconnected-(U1-PA3-Pad10)*%
X207325000Y-100000000D03*
%TO.P,U1,11,PA4_11*%
%TO.N,SPI1_NSS*%
X207325000Y-100800000D03*
%TO.P,U1,12,PA5_12*%
%TO.N,SPI1_SCK*%
X207325000Y-101600000D03*
%TO.P,U1,13,PA6_13*%
%TO.N,SPI1_MISO*%
X207325000Y-102400000D03*
%TO.P,U1,14,PA7_14*%
%TO.N,SPI1_MOSI*%
X207325000Y-103200000D03*
%TO.P,U1,15,PB0_15*%
%TO.N,USER_BUTTON1*%
X207325000Y-104000000D03*
%TO.P,U1,16,PB1_16*%
%TO.N,USER_BUTTON2*%
X207325000Y-104800000D03*
D14*
%TO.P,U1,17,PB2_17*%
%TO.N,USER_BUTTON3*%
X208700000Y-106175000D03*
%TO.P,U1,18,PA8_18*%
%TO.N,unconnected-(U1-PA8-Pad18)*%
X209500000Y-106175000D03*
%TO.P,U1,19,PA9_19*%
%TO.N,I2C1_SCL*%
X210300000Y-106175000D03*
%TO.P,U1,20,PC6_20*%
%TO.N,unconnected-(U1-PC6-Pad20)*%
X211100000Y-106175000D03*
%TO.P,U1,21,PA10_21*%
%TO.N,I2C1_SDA*%
X211900000Y-106175000D03*
%TO.P,U1,22,PA11_22*%
%TO.N,USB_D-*%
X212700000Y-106175000D03*
%TO.P,U1,23,PA12_23*%
%TO.N,USB_D+*%
X213500000Y-106175000D03*
%TO.P,U1,24,PA13_24*%
%TO.N,DEBUG_SWDIO*%
X214300000Y-106175000D03*
D15*
%TO.P,U1,25,PA14_25*%
%TO.N,DEBUG_SWCLK{slash}BOOT0*%
X215675000Y-104800000D03*
%TO.P,U1,26,PA15_26*%
%TO.N,unconnected-(U1-PA15-Pad26)*%
X215675000Y-104000000D03*
%TO.P,U1,27,PB3_27*%
%TO.N,USER_BUTTON4*%
X215675000Y-103200000D03*
%TO.P,U1,28,PB4_28*%
%TO.N,USER_BUTTON5*%
X215675000Y-102400000D03*
%TO.P,U1,29,PB5_29*%
%TO.N,USER_LED1*%
X215675000Y-101600000D03*
%TO.P,U1,30,PB6_30*%
%TO.N,USER_LED2*%
X215675000Y-100800000D03*
%TO.P,U1,31,PB7_31*%
%TO.N,USER_LED3*%
X215675000Y-100000000D03*
%TO.P,U1,32,PB8_32*%
%TO.N,USER_LED4*%
X215675000Y-99200000D03*
%TD*%
D13*
%TO.P,C2,1*%
%TO.N,+3V3*%
X212275000Y-95000000D03*
%TO.P,C2,2*%
%TO.N,GND*%
X210725000Y-95000000D03*
%TD*%
D10*
%TO.P,R7,1*%
%TO.N,USER_LED5*%
X231250000Y-99000000D03*
%TO.P,R7,2*%
%TO.N,Net-(D6-A)*%
X232900000Y-99000000D03*
%TD*%
D16*
%TO.P,C4,1*%
%TO.N,+3V3*%
X192500000Y-88725000D03*
%TO.P,C4,2*%
%TO.N,GND*%
X192500000Y-90275000D03*
%TD*%
D17*
%TO.P,SW4,1,1_1*%
%TO.N,USER_BUTTON4*%
X190600000Y-112000000D03*
%TO.P,SW4,2,2_2*%
%TO.N,+3V3*%
X186400000Y-112000000D03*
%TD*%
D18*
%TO.P,SW7,1,1_1*%
%TO.N,DEBUG_SWCLK{slash}BOOT0*%
X196500000Y-128300000D03*
%TO.P,SW7,2,2_2*%
%TO.N,+3V3*%
X196500000Y-132500000D03*
%TD*%
D19*
%TO.P,C5,1*%
%TO.N,+3V3*%
X235500000Y-132775000D03*
%TO.P,C5,2*%
%TO.N,GND*%
X235500000Y-131225000D03*
%TD*%
D20*
%TO.P,D5,1,K_1*%
%TO.N,GND*%
X237000000Y-102500000D03*
%TO.P,D5,2,A_2*%
%TO.N,Net-(D5-A)*%
X235425000Y-102500000D03*
%TD*%
D11*
%TO.P,R8,1*%
%TO.N,USER_BUTTON1*%
X193000000Y-94650000D03*
%TO.P,R8,2*%
%TO.N,GND*%
X193000000Y-93000000D03*
%TD*%
%TO.P,R18,1*%
%TO.N,Net-(J2-CC2)*%
X213500000Y-125825000D03*
%TO.P,R18,2*%
%TO.N,GND*%
X213500000Y-124175000D03*
%TD*%
D12*
%TO.P,C10,1*%
%TO.N,MCU_NRST*%
X190225000Y-126500000D03*
%TO.P,C10,2*%
%TO.N,GND*%
X191775000Y-126500000D03*
%TD*%
D17*
%TO.P,SW1,1,1_1*%
%TO.N,USER_BUTTON1*%
X190600000Y-94500000D03*
%TO.P,SW1,2,2_2*%
%TO.N,+3V3*%
X186400000Y-94500000D03*
%TD*%
%TO.P,SW5,1,1_1*%
%TO.N,USER_BUTTON5*%
X190600000Y-118000000D03*
%TO.P,SW5,2,2_2*%
%TO.N,+3V3*%
X186400000Y-118000000D03*
%TD*%
D21*
%TO.P,U2,1,NC_1*%
%TO.N,unconnected-(U2-NC-Pad1)*%
X221525000Y-85095000D03*
%TO.P,U2,2,NC_2*%
%TO.N,unconnected-(U2-NC-Pad2)*%
X221525000Y-86365000D03*
%TO.P,U2,3,NC_3*%
%TO.N,unconnected-(U2-NC-Pad3)*%
X221525000Y-87635000D03*
%TO.P,U2,4,GND_4*%
%TO.N,GND*%
X221525000Y-88905000D03*
%TO.P,U2,5,SDA_5*%
%TO.N,I2C1_SCL*%
X226475000Y-88905000D03*
%TO.P,U2,6,SCL_6*%
%TO.N,I2C1_SDA*%
X226475000Y-87635000D03*
%TO.P,U2,7,NC_7*%
%TO.N,unconnected-(U2-NC-Pad7)*%
X226475000Y-86365000D03*
%TO.P,U2,8,VCC_8*%
%TO.N,+3V3*%
X226475000Y-85095000D03*
%TD*%
D10*
%TO.P,R6,1*%
%TO.N,USER_LED4*%
X231175000Y-102500000D03*
%TO.P,R6,2*%
%TO.N,Net-(D5-A)*%
X232825000Y-102500000D03*
%TD*%
D13*
%TO.P,C9,1*%
%TO.N,+3V3*%
X205775000Y-120000000D03*
%TO.P,C9,2*%
%TO.N,GND*%
X204225000Y-120000000D03*
%TD*%
D22*
%TO.P,R1,1*%
%TO.N,+3V3*%
X202500000Y-127175000D03*
%TO.P,R1,2*%
%TO.N,Net-(D1-A)*%
X202500000Y-128825000D03*
%TD*%
D10*
%TO.P,R3,1*%
%TO.N,USER_LED1*%
X231175000Y-113000000D03*
%TO.P,R3,2*%
%TO.N,Net-(D2-A)*%
X232825000Y-113000000D03*
%TD*%
D20*
%TO.P,D3,1,K_1*%
%TO.N,GND*%
X237000000Y-109500000D03*
%TO.P,D3,2,A_2*%
%TO.N,Net-(D3-A)*%
X235425000Y-109500000D03*
%TD*%
D10*
%TO.P,R2,1*%
%TO.N,+3V3*%
X207175000Y-95000000D03*
%TO.P,R2,2*%
%TO.N,MCU_NRST*%
X208825000Y-95000000D03*
%TD*%
D12*
%TO.P,C7,1*%
%TO.N,USB_VBUS*%
X200225000Y-120000000D03*
%TO.P,C7,2*%
%TO.N,GND*%
X201775000Y-120000000D03*
%TD*%
D20*
%TO.P,D4,1,K_1*%
%TO.N,GND*%
X237000000Y-106000000D03*
%TO.P,D4,2,A_2*%
%TO.N,Net-(D4-A)*%
X235425000Y-106000000D03*
%TD*%
D10*
%TO.P,R5,1*%
%TO.N,USER_LED3*%
X231175000Y-106000000D03*
%TO.P,R5,2*%
%TO.N,Net-(D4-A)*%
X232825000Y-106000000D03*
%TD*%
D20*
%TO.P,D2,1,K_1*%
%TO.N,GND*%
X237000000Y-113000000D03*
%TO.P,D2,2,A_2*%
%TO.N,Net-(D2-A)*%
X235425000Y-113000000D03*
%TD*%
D23*
%TO.P,J2,A1,GND_A1*%
%TO.N,GND*%
X208300000Y-128320000D03*
%TO.P,J2,A4,VBUS_A4*%
%TO.N,USB_VBUS*%
X209100000Y-128320000D03*
D24*
%TO.P,J2,A5,CC1_A5*%
%TO.N,Net-(J2-CC1)*%
X210250000Y-128320000D03*
%TO.P,J2,A6,D+_A6*%
%TO.N,USB_D+*%
X211250000Y-128320000D03*
%TO.P,J2,A7,D-_A7*%
%TO.N,USB_D-*%
X211750000Y-128320000D03*
%TO.P,J2,A8,SBU1_A8*%
%TO.N,unconnected-(J2-SBU1-PadA8)*%
X212750000Y-128320000D03*
D23*
%TO.P,J2,A9,VBUS_A9*%
%TO.N,USB_VBUS*%
X213900000Y-128320000D03*
%TO.P,J2,A12,GND_A12*%
%TO.N,GND*%
X214700000Y-128320000D03*
%TO.P,J2,B1,GND_B1*%
X214700000Y-128320000D03*
%TO.P,J2,B4,VBUS_B4*%
%TO.N,USB_VBUS*%
X213900000Y-128320000D03*
D24*
%TO.P,J2,B5,CC2_B5*%
%TO.N,Net-(J2-CC2)*%
X213250000Y-128320000D03*
%TO.P,J2,B6,D+_B6*%
%TO.N,USB_D+*%
X212250000Y-128320000D03*
%TO.P,J2,B7,D-_B7*%
%TO.N,USB_D-*%
X210750000Y-128320000D03*
%TO.P,J2,B8,SBU2_B8*%
%TO.N,unconnected-(J2-SBU2-PadB8)*%
X209750000Y-128320000D03*
D23*
%TO.P,J2,B9,VBUS_B9*%
%TO.N,USB_VBUS*%
X209100000Y-128320000D03*
%TO.P,J2,B12,GND_B12*%
%TO.N,GND*%
X208300000Y-128320000D03*
D25*
%TO.P,J2,SH,SHIELD_SH*%
%TO.N,Net-(J2-SHIELD)*%
X206390000Y-128895000D03*
X206390000Y-132825000D03*
X216610000Y-128895000D03*
X216610000Y-132825000D03*
%TD*%
D19*
%TO.P,C8,1*%
%TO.N,USB_VBUS*%
X216500000Y-119275000D03*
%TO.P,C8,2*%
%TO.N,GND*%
X216500000Y-117725000D03*
%TD*%
D26*
%TO.P,D1,1,K_1*%
%TO.N,GND*%
X202500000Y-132287500D03*
%TO.P,D1,2,A_2*%
%TO.N,Net-(D1-A)*%
X202500000Y-130712500D03*
%TD*%
D11*
%TO.P,R11,1*%
%TO.N,USER_BUTTON4*%
X193000000Y-112000000D03*
%TO.P,R11,2*%
%TO.N,GND*%
X193000000Y-110350000D03*
%TD*%
D17*
%TO.P,SW3,1,1_1*%
%TO.N,USER_BUTTON3*%
X190600000Y-106000000D03*
%TO.P,SW3,2,2_2*%
%TO.N,+3V3*%
X186400000Y-106000000D03*
%TD*%
D27*
%TO.P,J1,1,NC_1*%
%TO.N,unconnected-(J1-NC-Pad1)*%
X224690000Y-131500000D03*
D28*
%TO.P,J1,2,NC_2*%
%TO.N,unconnected-(J1-NC-Pad2)*%
X224690000Y-130230000D03*
%TO.P,J1,3,VCC_3*%
%TO.N,+3V3*%
X225960000Y-131500000D03*
%TO.P,J1,4,JTMS/SWDIO_4*%
%TO.N,DEBUG_SWDIO*%
X225960000Y-130230000D03*
%TO.P,J1,5,GND_5*%
%TO.N,GND*%
X227230000Y-131500000D03*
%TO.P,J1,6,JCLK/SWCLK_6*%
%TO.N,DEBUG_SWCLK{slash}BOOT0*%
X227230000Y-130230000D03*
%TO.P,J1,7,GND_7*%
%TO.N,GND*%
X228500000Y-131500000D03*
%TO.P,J1,8,JTDO/SWO_8*%
%TO.N,unconnected-(J1-JTDO{slash}SWO-Pad8)*%
X228500000Y-130230000D03*
%TO.P,J1,9,JRCLK/NC_9*%
%TO.N,unconnected-(J1-JRCLK{slash}NC-Pad9)*%
X229770000Y-131500000D03*
%TO.P,J1,10,JTDI/NC_10*%
%TO.N,unconnected-(J1-JTDI{slash}NC-Pad10)*%
X229770000Y-130230000D03*
%TO.P,J1,11,GNDDetect_11*%
%TO.N,GND*%
X231040000Y-131500000D03*
%TO.P,J1,12,~{RST}_12*%
%TO.N,MCU_NRST*%
X231040000Y-130230000D03*
%TO.P,J1,13,VCP_RX_13*%
%TO.N,DEBUG_USART1_TX*%
X232310000Y-131500000D03*
%TO.P,J1,14,VCP_TX_14*%
%TO.N,DEBUG_USART1_RX*%
X232310000Y-130230000D03*
%TD*%
D20*
%TO.P,D6,1,K_1*%
%TO.N,GND*%
X237075000Y-99000000D03*
%TO.P,D6,2,A_2*%
%TO.N,Net-(D6-A)*%
X235500000Y-99000000D03*
%TD*%
D11*
%TO.P,R10,1*%
%TO.N,USER_BUTTON3*%
X193000000Y-106000000D03*
%TO.P,R10,2*%
%TO.N,GND*%
X193000000Y-104350000D03*
%TD*%
D29*
%TO.P,U3,1,~{CS}_1*%
%TO.N,SPI1_NSS*%
X202087500Y-88405000D03*
%TO.P,U3,2,DO/IO_{1}_2*%
%TO.N,SPI1_MISO*%
X202087500Y-87135000D03*
%TO.P,U3,3,~{WP}/IO_{2}_3*%
%TO.N,Net-(U3-~{WP}{slash}IO_{2})*%
X202087500Y-85865000D03*
%TO.P,U3,4,GND_4*%
%TO.N,GND*%
X202087500Y-84595000D03*
%TO.P,U3,5,DI/IO_{0}_5*%
%TO.N,SPI1_MOSI*%
X194912500Y-84595000D03*
%TO.P,U3,6,CLK_6*%
%TO.N,SPI1_SCK*%
X194912500Y-85865000D03*
%TO.P,U3,7,~{HOLD}/~{RESET}/IO_{3}_7*%
%TO.N,Net-(U3-~{HOLD}{slash}~{RESET}{slash}IO_{3})*%
X194912500Y-87135000D03*
%TO.P,U3,8,VCC_8*%
%TO.N,+3V3*%
X194912500Y-88405000D03*
%TD*%
D11*
%TO.P,R12,1*%
%TO.N,USER_BUTTON5*%
X193000000Y-118000000D03*
%TO.P,R12,2*%
%TO.N,GND*%
X193000000Y-116350000D03*
%TD*%
D12*
%TO.P,C6,1*%
%TO.N,Net-(J2-SHIELD)*%
X219450000Y-132000000D03*
%TO.P,C6,2*%
%TO.N,GND*%
X221000000Y-132000000D03*
%TD*%
D17*
%TO.P,SW2,1,1_1*%
%TO.N,USER_BUTTON2*%
X190600000Y-100500000D03*
%TO.P,SW2,2,2_2*%
%TO.N,+3V3*%
X186400000Y-100500000D03*
%TD*%
D18*
%TO.P,SW6,1,1_1*%
%TO.N,MCU_NRST*%
X190000000Y-128300000D03*
%TO.P,SW6,2,2_2*%
%TO.N,GND*%
X190000000Y-132500000D03*
%TD*%
D10*
%TO.P,R13,1*%
%TO.N,Net-(U3-~{WP}{slash}IO_{2})*%
X205175000Y-86000000D03*
%TO.P,R13,2*%
%TO.N,GND*%
X206825000Y-86000000D03*
%TD*%
D11*
%TO.P,R19,1*%
%TO.N,Net-(J2-CC1)*%
X210000000Y-125825000D03*
%TO.P,R19,2*%
%TO.N,GND*%
X210000000Y-124175000D03*
%TD*%
D30*
%TO.P,U4,1,I/O1_1*%
%TO.N,USB_D+*%
X211862500Y-118550000D03*
%TO.P,U4,2,GND_2*%
%TO.N,GND*%
X211862500Y-119500000D03*
%TO.P,U4,3,I/O2_3*%
%TO.N,USB_D-*%
X211862500Y-120450000D03*
%TO.P,U4,4,I/O3_4*%
%TO.N,unconnected-(U4-I{slash}O3-Pad4)*%
X214137500Y-120450000D03*
%TO.P,U4,5,VBUS_5*%
%TO.N,USB_VBUS*%
X214137500Y-119500000D03*
%TO.P,U4,6,I/O4_6*%
%TO.N,unconnected-(U4-I{slash}O4-Pad6)*%
X214137500Y-118550000D03*
%TD*%
D31*
%TO.P,U5,1,VI_1*%
%TO.N,USB_VBUS*%
X200700000Y-117500000D03*
%TO.P,U5,2,GND_2*%
%TO.N,GND*%
X203000000Y-117500000D03*
D32*
X203000000Y-111200000D03*
D31*
%TO.P,U5,3,VO_3*%
%TO.N,+3V3*%
X205300000Y-117500000D03*
%TD*%
D10*
%TO.P,R15,1*%
%TO.N,I2C1_SDA*%
X229675000Y-87000000D03*
%TO.P,R15,2*%
%TO.N,+3V3*%
X231325000Y-87000000D03*
%TD*%
%TO.P,R4,1*%
%TO.N,USER_LED2*%
X231175000Y-109500000D03*
%TO.P,R4,2*%
%TO.N,Net-(D3-A)*%
X232825000Y-109500000D03*
%TD*%
D33*
%TO.N,I2C1_SCL*%
X228500000Y-91500000D03*
X210500000Y-104500000D03*
X225500000Y-91000000D03*
%TO.N,+3V3*%
X237000000Y-130000000D03*
X207500000Y-119000000D03*
X211500000Y-99500000D03*
X188500000Y-94500000D03*
X195000000Y-90000000D03*
X188500000Y-112000000D03*
X207000000Y-123500000D03*
X205500000Y-95000000D03*
X188500000Y-100500000D03*
X188500000Y-106000000D03*
X188500000Y-118000000D03*
%TO.N,USER_BUTTON2*%
X193500000Y-102000000D03*
X205500000Y-105000000D03*
%TO.N,GND*%
X210223530Y-118625000D03*
X234000000Y-104500000D03*
X199000000Y-106500000D03*
X190500000Y-90900000D03*
X201000000Y-115000000D03*
X206000000Y-113000000D03*
X202500000Y-83000000D03*
X201000000Y-113500000D03*
X200000000Y-111500000D03*
X206000000Y-111500000D03*
X192500000Y-115000000D03*
X214000000Y-122500000D03*
X208500000Y-86000000D03*
X206000000Y-114500000D03*
X234000000Y-108000000D03*
X234000000Y-111500000D03*
X200000000Y-113000000D03*
X205000000Y-113500000D03*
X194500000Y-123000000D03*
X215000000Y-117000000D03*
X234000000Y-97500000D03*
X233000000Y-85000000D03*
X206500000Y-126500000D03*
X192500000Y-108500000D03*
X223000000Y-88000000D03*
X192000000Y-103500000D03*
X234000000Y-101000000D03*
X203000000Y-120000000D03*
X204000000Y-131500000D03*
X222500000Y-128500000D03*
X209500000Y-90500000D03*
X193000000Y-127500000D03*
X192500000Y-97500000D03*
X190000000Y-84000000D03*
X200000000Y-114500000D03*
X203000000Y-113000000D03*
X187000000Y-132000000D03*
X216500000Y-126500000D03*
X236000000Y-129500000D03*
X205000000Y-115000000D03*
X209500000Y-122500000D03*
%TO.N,MCU_NRST*%
X216500000Y-111000000D03*
X187000000Y-128000000D03*
X211000000Y-101500000D03*
%TO.N,DEBUG_USART1_TX*%
X209700000Y-100500000D03*
X235500000Y-127500000D03*
%TO.N,DEBUG_USART1_RX*%
X218000000Y-106500000D03*
X208900000Y-99517470D03*
X235500000Y-124500000D03*
%TO.N,SPI1_NSS*%
X205500000Y-100000000D03*
X203000000Y-93500000D03*
X202500000Y-90000000D03*
%TO.N,SPI1_SCK*%
X196500000Y-86000000D03*
X202000000Y-95000000D03*
X205500000Y-101000000D03*
%TO.N,SPI1_MISO*%
X206000000Y-89000000D03*
X205500000Y-102000000D03*
%TO.N,SPI1_MOSI*%
X205500000Y-103000000D03*
X194500000Y-83500000D03*
%TO.N,USER_BUTTON1*%
X193500000Y-96000000D03*
X205500000Y-104000000D03*
%TO.N,USER_BUTTON3*%
X207500000Y-106500000D03*
X193500000Y-107500000D03*
%TO.N,I2C1_SDA*%
X230000000Y-85500000D03*
X212000000Y-104500000D03*
X223500000Y-92500000D03*
%TO.N,DEBUG_SWDIO*%
X226000000Y-127000000D03*
%TO.N,DEBUG_SWCLK{slash}BOOT0*%
X197000000Y-126500000D03*
X215500000Y-112000000D03*
X227230000Y-126730000D03*
%TO.N,USER_BUTTON4*%
X193500000Y-113500000D03*
X204000000Y-108500000D03*
X208900000Y-103500000D03*
%TO.N,USER_BUTTON5*%
X193500000Y-119500000D03*
X208900000Y-102500000D03*
X202500000Y-108400000D03*
X197000000Y-117000000D03*
%TO.N,USB_VBUS*%
X214500000Y-127000000D03*
X208500000Y-127000000D03*
X216500000Y-120500000D03*
X199500000Y-122000000D03*
X198500000Y-119000000D03*
%TD*%
%TO.N,I2C1_SCL*%
D34*
X229675000Y-90825000D02*
X229000000Y-91500000D01*
X229675000Y-90000000D02*
X229675000Y-90825000D01*
X229000000Y-91500000D02*
X228500000Y-91500000D01*
X225500000Y-91000000D02*
X226500000Y-90000000D01*
X226500000Y-90000000D02*
X226475000Y-89975000D01*
X228580000Y-88905000D02*
X229675000Y-90000000D01*
X226475000Y-88905000D02*
X228580000Y-88905000D01*
X210300000Y-104700000D02*
X210500000Y-104500000D01*
X226475000Y-89975000D02*
X226475000Y-88905000D01*
X210300000Y-106175000D02*
X210300000Y-104700000D01*
%TO.N,+3V3*%
X195000000Y-90000000D02*
X195000000Y-88492500D01*
X211900000Y-95375000D02*
X211900000Y-97825000D01*
X188500000Y-94500000D02*
X186400000Y-94500000D01*
X192500000Y-88725000D02*
X194592500Y-88725000D01*
X194592500Y-88725000D02*
X194912500Y-88405000D01*
X203325000Y-127175000D02*
X202500000Y-127175000D01*
X220500000Y-83500000D02*
X227070000Y-83500000D01*
X188500000Y-106000000D02*
X186400000Y-106000000D01*
X237000000Y-131275000D02*
X235500000Y-132775000D01*
X235275000Y-133000000D02*
X235500000Y-132775000D01*
X205775000Y-117975000D02*
X205300000Y-117500000D01*
X188500000Y-112000000D02*
X186400000Y-112000000D01*
X188500000Y-118000000D02*
X186400000Y-118000000D01*
X212275000Y-92000000D02*
X212275000Y-95000000D01*
X206800000Y-119000000D02*
X207500000Y-119000000D01*
X196500000Y-132500000D02*
X201825000Y-127175000D01*
X211500000Y-99500000D02*
X211900000Y-99100000D01*
X231325000Y-87000000D02*
X231325000Y-85600000D01*
X212275000Y-92000000D02*
X212275000Y-91725000D01*
X227570000Y-84000000D02*
X229725000Y-84000000D01*
X237000000Y-130000000D02*
X237000000Y-131275000D01*
X212275000Y-95000000D02*
X211900000Y-95375000D01*
X227070000Y-83500000D02*
X227570000Y-84000000D01*
X205300000Y-117500000D02*
X206800000Y-119000000D01*
X226475000Y-85095000D02*
X227570000Y-84000000D01*
X227460000Y-133000000D02*
X235275000Y-133000000D01*
X188500000Y-100500000D02*
X186400000Y-100500000D01*
X195000000Y-88492500D02*
X194912500Y-88405000D01*
X231325000Y-90000000D02*
X231325000Y-87000000D01*
X201825000Y-127175000D02*
X202500000Y-127175000D01*
X225960000Y-131500000D02*
X227460000Y-133000000D01*
X205775000Y-120000000D02*
X205775000Y-117975000D01*
X229725000Y-84000000D02*
X229725000Y-83725000D01*
X211900000Y-99100000D02*
X211900000Y-97825000D01*
X212275000Y-91725000D02*
X220500000Y-83500000D01*
X207000000Y-123500000D02*
X203325000Y-127175000D01*
X205500000Y-95000000D02*
X207175000Y-95000000D01*
X231325000Y-85600000D02*
X229725000Y-84000000D01*
%TO.N,USER_BUTTON2*%
X190600000Y-100500000D02*
X193000000Y-100500000D01*
X205700000Y-104800000D02*
X205500000Y-105000000D01*
X193000000Y-101500000D02*
X193500000Y-102000000D01*
X207325000Y-104800000D02*
X205700000Y-104800000D01*
X193000000Y-100500000D02*
X193000000Y-101500000D01*
%TO.N,GND*%
X229500000Y-132500000D02*
X232040000Y-132500000D01*
X235500000Y-101000000D02*
X234000000Y-101000000D01*
X190500000Y-85675000D02*
X190500000Y-84500000D01*
X193000000Y-104350000D02*
X193000000Y-104000000D01*
X214700000Y-128320000D02*
X214700000Y-128300000D01*
X203000000Y-117500000D02*
X203000000Y-118775000D01*
X214700000Y-128300000D02*
X216500000Y-126500000D01*
X202087500Y-83412500D02*
X202500000Y-83000000D01*
X235500000Y-131225000D02*
X235500000Y-130000000D01*
X193000000Y-98000000D02*
X192500000Y-97500000D01*
X232040000Y-132500000D02*
X234225000Y-132500000D01*
X232000000Y-84000000D02*
X233000000Y-85000000D01*
X211100000Y-95375000D02*
X211100000Y-97825000D01*
X203212500Y-132287500D02*
X204000000Y-131500000D01*
X235500000Y-108000000D02*
X234000000Y-108000000D01*
X231275000Y-84000000D02*
X232000000Y-84000000D01*
X210223530Y-118625000D02*
X210473530Y-118625000D01*
X237000000Y-106000000D02*
X235500000Y-104500000D01*
X191775000Y-126500000D02*
X192000000Y-126500000D01*
X193000000Y-110350000D02*
X193000000Y-109000000D01*
X215725000Y-117725000D02*
X215000000Y-117000000D01*
X237075000Y-99000000D02*
X235575000Y-97500000D01*
X234225000Y-132500000D02*
X235500000Y-131225000D01*
X235500000Y-111500000D02*
X234000000Y-111500000D01*
X190000000Y-132500000D02*
X187500000Y-132500000D01*
X208300000Y-128320000D02*
X206500000Y-126520000D01*
X216500000Y-117725000D02*
X215725000Y-117725000D01*
X228230000Y-132500000D02*
X229500000Y-132500000D01*
X221000000Y-132000000D02*
X221000000Y-129000000D01*
X222095000Y-88905000D02*
X221525000Y-88905000D01*
X190500000Y-90900000D02*
X191125000Y-90275000D01*
X235500000Y-104500000D02*
X234000000Y-104500000D01*
X237000000Y-113000000D02*
X235500000Y-111500000D01*
X223000000Y-88000000D02*
X222095000Y-88905000D01*
X210725000Y-92000000D02*
X210725000Y-91725000D01*
X193000000Y-109000000D02*
X192500000Y-108500000D01*
X237000000Y-102500000D02*
X235500000Y-101000000D01*
X193000000Y-91000000D02*
X193000000Y-93000000D01*
X210725000Y-91725000D02*
X209500000Y-90500000D01*
X193000000Y-115500000D02*
X192500000Y-115000000D01*
X201775000Y-120000000D02*
X204225000Y-120000000D01*
X210725000Y-95000000D02*
X211100000Y-95375000D01*
X210473530Y-118625000D02*
X211348530Y-119500000D01*
X235575000Y-97500000D02*
X234000000Y-97500000D01*
X213500000Y-124175000D02*
X213500000Y-123000000D01*
X206500000Y-126520000D02*
X206500000Y-126500000D01*
X228500000Y-131500000D02*
X229500000Y-132500000D01*
X193000000Y-104000000D02*
X192500000Y-103500000D01*
X192500000Y-90500000D02*
X193000000Y-91000000D01*
X187500000Y-132500000D02*
X187000000Y-132000000D01*
X210725000Y-92000000D02*
X210725000Y-95000000D01*
X192500000Y-90275000D02*
X192500000Y-90500000D01*
X190500000Y-84500000D02*
X190000000Y-84000000D01*
X211348530Y-119500000D02*
X211862500Y-119500000D01*
X227230000Y-131500000D02*
X228230000Y-132500000D01*
X193000000Y-116350000D02*
X193000000Y-115500000D01*
X202500000Y-132287500D02*
X203212500Y-132287500D01*
X231040000Y-131500000D02*
X232040000Y-132500000D01*
X235500000Y-130000000D02*
X236000000Y-129500000D01*
X192000000Y-126500000D02*
X193000000Y-127500000D01*
X206825000Y-86000000D02*
X208500000Y-86000000D01*
X222000000Y-129000000D02*
X222500000Y-128500000D01*
X210000000Y-123000000D02*
X209500000Y-122500000D01*
X221000000Y-129000000D02*
X222000000Y-129000000D01*
X193000000Y-98850000D02*
X193000000Y-98000000D01*
X203000000Y-118775000D02*
X204225000Y-120000000D01*
X192500000Y-103500000D02*
X192000000Y-103500000D01*
X191125000Y-90275000D02*
X192500000Y-90275000D01*
X213500000Y-123000000D02*
X214000000Y-122500000D01*
X203000000Y-118775000D02*
X201775000Y-120000000D01*
X202087500Y-84595000D02*
X202087500Y-83412500D01*
X237000000Y-109500000D02*
X235500000Y-108000000D01*
X210000000Y-124175000D02*
X210000000Y-123000000D01*
%TO.N,Net-(U3-~{HOLD}{slash}~{RESET}{slash}IO_{3})*%
X190500000Y-87325000D02*
X194722500Y-87325000D01*
X194722500Y-87325000D02*
X194912500Y-87135000D01*
%TO.N,Net-(J2-SHIELD)*%
X218625000Y-132825000D02*
X219450000Y-132000000D01*
X206390000Y-128895000D02*
X206390000Y-132825000D01*
X216610000Y-128895000D02*
X219245000Y-128895000D01*
X216610000Y-132825000D02*
X218625000Y-132825000D01*
X206390000Y-132825000D02*
X216610000Y-132825000D01*
X216610000Y-128895000D02*
X216610000Y-132825000D01*
X219245000Y-128895000D02*
X219350000Y-129000000D01*
%TO.N,USER_LED5*%
X230075000Y-97825000D02*
X214300000Y-97825000D01*
X231250000Y-99000000D02*
X230075000Y-97825000D01*
%TO.N,MCU_NRST*%
X228000000Y-124868628D02*
X228000000Y-127190000D01*
X196000000Y-120500000D02*
X196000000Y-107825000D01*
X190225000Y-126275000D02*
X196000000Y-120500000D01*
X211000000Y-101500000D02*
X210300000Y-100800000D01*
X208825000Y-95000000D02*
X210300000Y-96475000D01*
X190000000Y-126725000D02*
X190225000Y-126500000D01*
X210300000Y-100800000D02*
X210300000Y-97825000D01*
X190000000Y-128300000D02*
X187300000Y-128300000D01*
X210300000Y-96475000D02*
X210300000Y-97825000D01*
X196000000Y-107825000D02*
X208825000Y-95000000D01*
X228000000Y-127190000D02*
X231040000Y-130230000D01*
X190000000Y-128300000D02*
X190000000Y-126725000D01*
X216500000Y-113368628D02*
X228000000Y-124868628D01*
X187300000Y-128300000D02*
X187000000Y-128000000D01*
X190225000Y-126500000D02*
X190225000Y-126275000D01*
X216500000Y-111000000D02*
X216500000Y-113368628D01*
%TO.N,DEBUG_USART1_TX*%
X235500000Y-128310000D02*
X235500000Y-127500000D01*
X209700000Y-100500000D02*
X209500000Y-100300000D01*
X232310000Y-131500000D02*
X235500000Y-128310000D01*
X209500000Y-100300000D02*
X209500000Y-97825000D01*
%TO.N,DEBUG_USART1_RX*%
X235500000Y-124500000D02*
X218000000Y-107000000D01*
X232310000Y-127690000D02*
X235500000Y-124500000D01*
X208546655Y-97978345D02*
X208700000Y-97825000D01*
X232310000Y-130230000D02*
X232310000Y-127690000D01*
X208546655Y-99164125D02*
X208546655Y-97978345D01*
X218000000Y-107000000D02*
X218000000Y-106500000D01*
X208900000Y-99517470D02*
X208546655Y-99164125D01*
%TO.N,SPI1_NSS*%
X202065686Y-93500000D02*
X201500000Y-92934314D01*
X206300000Y-100800000D02*
X205500000Y-100000000D01*
X201500000Y-91000000D02*
X202500000Y-90000000D01*
X201500000Y-92934314D02*
X201500000Y-91000000D01*
X202087500Y-88405000D02*
X202087500Y-89587500D01*
X207325000Y-100800000D02*
X206300000Y-100800000D01*
X203000000Y-93500000D02*
X202065686Y-93500000D01*
X202087500Y-89587500D02*
X202500000Y-90000000D01*
%TO.N,SPI1_SCK*%
X207325000Y-101600000D02*
X206100000Y-101600000D01*
X206100000Y-101600000D02*
X205500000Y-101000000D01*
X194912500Y-85865000D02*
X196365000Y-85865000D01*
X196500000Y-88500000D02*
X196500000Y-86000000D01*
X196365000Y-85865000D02*
X196500000Y-86000000D01*
X202000000Y-94000000D02*
X196500000Y-88500000D01*
X202000000Y-95000000D02*
X202000000Y-94000000D01*
%TO.N,SPI1_MISO*%
X204000000Y-89000000D02*
X206000000Y-89000000D01*
X203500000Y-88500000D02*
X204000000Y-89000000D01*
X202899999Y-87135000D02*
X203500000Y-87735001D01*
X207325000Y-102400000D02*
X205900000Y-102400000D01*
X202087500Y-87135000D02*
X202899999Y-87135000D01*
X203500000Y-87735001D02*
X203500000Y-88500000D01*
X205900000Y-102400000D02*
X205500000Y-102000000D01*
%TO.N,SPI1_MOSI*%
X205700000Y-103200000D02*
X205500000Y-103000000D01*
X207325000Y-103200000D02*
X205700000Y-103200000D01*
X194912500Y-84595000D02*
X194912500Y-83912500D01*
X194912500Y-83912500D02*
X194500000Y-83500000D01*
%TO.N,USER_BUTTON1*%
X193000000Y-95500000D02*
X193500000Y-96000000D01*
X190600000Y-94500000D02*
X192850000Y-94500000D01*
X207325000Y-104000000D02*
X205500000Y-104000000D01*
X192850000Y-94500000D02*
X193000000Y-94650000D01*
X193000000Y-94650000D02*
X193000000Y-95500000D01*
%TO.N,USER_BUTTON3*%
X207825000Y-106175000D02*
X207500000Y-106500000D01*
X193000000Y-106000000D02*
X193000000Y-107000000D01*
X193000000Y-107000000D02*
X193500000Y-107500000D01*
X208700000Y-106175000D02*
X207825000Y-106175000D01*
X190600000Y-106000000D02*
X193000000Y-106000000D01*
%TO.N,I2C1_SDA*%
X211900000Y-106175000D02*
X211900000Y-104600000D01*
X225500001Y-87635000D02*
X226475000Y-87635000D01*
X224500000Y-91500000D02*
X224500000Y-88635001D01*
X226475000Y-87635000D02*
X229040000Y-87635000D01*
X224500000Y-88635001D02*
X225500001Y-87635000D01*
X223500000Y-92500000D02*
X224500000Y-91500000D01*
X211900000Y-104600000D02*
X212000000Y-104500000D01*
X229675000Y-85825000D02*
X230000000Y-85500000D01*
X229675000Y-87000000D02*
X229675000Y-85825000D01*
X229040000Y-87635000D02*
X229675000Y-87000000D01*
%TO.N,USB_D-*%
X210475000Y-118025000D02*
X211462500Y-117037500D01*
X209623530Y-118376471D02*
X209975001Y-118025000D01*
X210750000Y-127712590D02*
X211017590Y-127445000D01*
X211482410Y-127445000D02*
X211482410Y-121567456D01*
X211482410Y-127445000D02*
X211750000Y-127712590D01*
X211862500Y-120450000D02*
X211200001Y-120450000D01*
X211482410Y-121567456D02*
X211862500Y-121187366D01*
X209623530Y-118873529D02*
X209623530Y-118376471D01*
X211462500Y-117037500D02*
X211462500Y-110219302D01*
X210750000Y-128320000D02*
X210750000Y-127712590D01*
X211200001Y-120450000D02*
X209623530Y-118873529D01*
X212875000Y-108806802D02*
X212875000Y-107475001D01*
X211750000Y-127712590D02*
X211750000Y-128320000D01*
X211017590Y-127445000D02*
X211482410Y-127445000D01*
X212700000Y-107300001D02*
X212700000Y-106175000D01*
X212875000Y-107475001D02*
X212700000Y-107300001D01*
X209975001Y-118025000D02*
X210475000Y-118025000D01*
X211462500Y-110219302D02*
X212875000Y-108806802D01*
X211862500Y-121187366D02*
X211862500Y-120450000D01*
%TO.N,USB_D+*%
X212212500Y-118900000D02*
X211862500Y-118550000D01*
X213500000Y-107300001D02*
X213500000Y-106175000D01*
X211862500Y-110455698D02*
X213325000Y-108993198D01*
X212825000Y-119159448D02*
X212565552Y-118900000D01*
X211882410Y-127169315D02*
X211882410Y-121733142D01*
X211250000Y-128927410D02*
X211517590Y-129195000D01*
X211250000Y-128320000D02*
X211250000Y-128927410D01*
X212825000Y-120790552D02*
X212825000Y-119159448D01*
X212565552Y-118900000D02*
X212212500Y-118900000D01*
X211882410Y-121733142D02*
X212825000Y-120790552D01*
X213325000Y-108993198D02*
X213325000Y-107475001D01*
X212250000Y-128927410D02*
X212250000Y-128320000D01*
X211862500Y-118550000D02*
X211862500Y-110455698D01*
X211517590Y-129195000D02*
X211982410Y-129195000D01*
X213325000Y-107475001D02*
X213500000Y-107300001D01*
X212250000Y-128320000D02*
X212250000Y-127536905D01*
X211982410Y-129195000D02*
X212250000Y-128927410D01*
X212250000Y-127536905D02*
X211882410Y-127169315D01*
%TO.N,DEBUG_SWDIO*%
X224000000Y-125500000D02*
X223000000Y-124500000D01*
X223000000Y-121000000D02*
X214300000Y-112300000D01*
X225000000Y-125500000D02*
X224000000Y-125500000D01*
X223000000Y-124500000D02*
X223000000Y-121000000D01*
X226000000Y-126500000D02*
X225000000Y-125500000D01*
X214300000Y-112300000D02*
X214300000Y-106175000D01*
X226000000Y-127000000D02*
X226000000Y-126500000D01*
%TO.N,DEBUG_SWCLK{slash}BOOT0*%
X196500000Y-128300000D02*
X197000000Y-127800000D01*
X215500000Y-112934314D02*
X215500000Y-112000000D01*
X215500000Y-104975000D02*
X215675000Y-104800000D01*
X197000000Y-127800000D02*
X197000000Y-126500000D01*
X215500000Y-112000000D02*
X215500000Y-104975000D01*
X227000000Y-126500000D02*
X227000000Y-124434314D01*
X227000000Y-124434314D02*
X215500000Y-112934314D01*
X227230000Y-126730000D02*
X227000000Y-126500000D01*
%TO.N,USER_BUTTON4*%
X190600000Y-112000000D02*
X193000000Y-112000000D01*
X193000000Y-113000000D02*
X193500000Y-113500000D01*
X208900000Y-103500000D02*
X209200000Y-103200000D01*
X193000000Y-112000000D02*
X193000000Y-113000000D01*
X209200000Y-103200000D02*
X215675000Y-103200000D01*
%TO.N,USER_BUTTON5*%
X193000000Y-118000000D02*
X193000000Y-119000000D01*
X215675000Y-102400000D02*
X209000000Y-102400000D01*
X190600000Y-118000000D02*
X193000000Y-118000000D01*
X202400000Y-108500000D02*
X198000000Y-108500000D01*
X202500000Y-108400000D02*
X202400000Y-108500000D01*
X197500000Y-116500000D02*
X197000000Y-117000000D01*
X197500000Y-109000000D02*
X197500000Y-116500000D01*
X193000000Y-119000000D02*
X193500000Y-119500000D01*
X198000000Y-108500000D02*
X197500000Y-109000000D01*
X209000000Y-102400000D02*
X208900000Y-102500000D01*
%TO.N,USER_LED1*%
X231175000Y-113000000D02*
X229000000Y-113000000D01*
X217600000Y-101600000D02*
X215675000Y-101600000D01*
X229000000Y-113000000D02*
X217600000Y-101600000D01*
%TO.N,USER_LED2*%
X231175000Y-109500000D02*
X226065686Y-109500000D01*
X217365685Y-100800000D02*
X215675000Y-100800000D01*
X226065686Y-109500000D02*
X217365685Y-100800000D01*
%TO.N,USER_LED3*%
X231175000Y-106000000D02*
X223131372Y-106000000D01*
X217131370Y-100000000D02*
X215675000Y-100000000D01*
X223131372Y-106000000D02*
X217131370Y-100000000D01*
%TO.N,USER_LED4*%
X231175000Y-102500000D02*
X220197057Y-102500000D01*
X220197057Y-102500000D02*
X216897057Y-99200000D01*
X216897057Y-99200000D02*
X215675000Y-99200000D01*
%TO.N,Net-(D6-A)*%
X232900000Y-99000000D02*
X235500000Y-99000000D01*
%TO.N,Net-(D5-A)*%
X232825000Y-102500000D02*
X235425000Y-102500000D01*
%TO.N,Net-(J2-CC2)*%
X213250000Y-126075000D02*
X213250000Y-128320000D01*
X213500000Y-125825000D02*
X213250000Y-126075000D01*
%TO.N,Net-(D1-A)*%
X202500000Y-130712500D02*
X202500000Y-128825000D01*
%TO.N,Net-(D2-A)*%
X232825000Y-113000000D02*
X235425000Y-113000000D01*
%TO.N,Net-(D3-A)*%
X232825000Y-109500000D02*
X235425000Y-109500000D01*
%TO.N,USB_VBUS*%
X200700000Y-117500000D02*
X199200000Y-119000000D01*
X214137500Y-119500000D02*
X216275000Y-119500000D01*
X200700000Y-117500000D02*
X200700000Y-119525000D01*
X216500000Y-120500000D02*
X216500000Y-119275000D01*
X213900000Y-127600000D02*
X214500000Y-127000000D01*
X199200000Y-119000000D02*
X198500000Y-119000000D01*
X216275000Y-119500000D02*
X216500000Y-119275000D01*
X199500000Y-122000000D02*
X199500000Y-120500000D01*
X200000000Y-120000000D02*
X200225000Y-120000000D01*
X213900000Y-128320000D02*
X213900000Y-127600000D01*
X199500000Y-120500000D02*
X200000000Y-120000000D01*
X209100000Y-127600000D02*
X208500000Y-127000000D01*
X209100000Y-128320000D02*
X209100000Y-127600000D01*
X200700000Y-119525000D02*
X200225000Y-120000000D01*
%TO.N,Net-(D4-A)*%
X232825000Y-106000000D02*
X235425000Y-106000000D01*
%TO.N,Net-(J2-CC1)*%
X210250000Y-126075000D02*
X210250000Y-128320000D01*
X210000000Y-125825000D02*
X210250000Y-126075000D01*
%TO.N,Net-(U3-~{WP}{slash}IO_{2})*%
X202087500Y-85865000D02*
X205040000Y-85865000D01*
X205040000Y-85865000D02*
X205175000Y-86000000D01*
%TD*%
%TA.AperFunction,Conductor*%
%TO.N,GND*%
G36*
X200699809Y-110019685D02*
G01*
X200745564Y-110072489D01*
X200755508Y-110141647D01*
X200742679Y-110181412D01*
X200666556Y-110327140D01*
X200610609Y-110522671D01*
X200610608Y-110522674D01*
X200600000Y-110641999D01*
X200600000Y-110950000D01*
X205400000Y-110950000D01*
X205400000Y-110642002D01*
X205399999Y-110641999D01*
X205389391Y-110522674D01*
X205389390Y-110522671D01*
X205333443Y-110327140D01*
X205257321Y-110181412D01*
X205243730Y-110112877D01*
X205269349Y-110047873D01*
X205326044Y-110007040D01*
X205367230Y-110000000D01*
X206376000Y-110000000D01*
X206443039Y-110019685D01*
X206488794Y-110072489D01*
X206500000Y-110124000D01*
X206500000Y-116156106D01*
X206480315Y-116223145D01*
X206427511Y-116268900D01*
X206358353Y-116278844D01*
X206298313Y-116252753D01*
X206149295Y-116132969D01*
X206149292Y-116132967D01*
X205978697Y-116048360D01*
X205793892Y-116002400D01*
X205772506Y-116000950D01*
X205751123Y-115999500D01*
X205751120Y-115999500D01*
X204848877Y-115999500D01*
X204848874Y-115999501D01*
X204806113Y-116002399D01*
X204806112Y-116002399D01*
X204621303Y-116048360D01*
X204450707Y-116132967D01*
X204450704Y-116132969D01*
X204302280Y-116252276D01*
X204302278Y-116252278D01*
X204290508Y-116266921D01*
X204246326Y-116321885D01*
X204188982Y-116361803D01*
X204119160Y-116364383D01*
X204059027Y-116328804D01*
X204053031Y-116321884D01*
X203997364Y-116252630D01*
X203849025Y-116133392D01*
X203849022Y-116133390D01*
X203678523Y-116048831D01*
X203493824Y-116002897D01*
X203451097Y-116000000D01*
X203250000Y-116000000D01*
X203250000Y-117376000D01*
X203230315Y-117443039D01*
X203177511Y-117488794D01*
X203126000Y-117500000D01*
X202874000Y-117500000D01*
X202806961Y-117480315D01*
X202761206Y-117427511D01*
X202750000Y-117376000D01*
X202750000Y-116000000D01*
X202548903Y-116000000D01*
X202506175Y-116002897D01*
X202321476Y-116048831D01*
X202150977Y-116133390D01*
X202150974Y-116133392D01*
X202002635Y-116252631D01*
X201946967Y-116321885D01*
X201889624Y-116361803D01*
X201819801Y-116364383D01*
X201759669Y-116328804D01*
X201753673Y-116321884D01*
X201697722Y-116252278D01*
X201697721Y-116252277D01*
X201549295Y-116132969D01*
X201549292Y-116132967D01*
X201378697Y-116048360D01*
X201193892Y-116002400D01*
X201172506Y-116000950D01*
X201151123Y-115999500D01*
X201151120Y-115999500D01*
X200248877Y-115999500D01*
X200248874Y-115999501D01*
X200206113Y-116002399D01*
X200206112Y-116002399D01*
X200021303Y-116048360D01*
X199850707Y-116132967D01*
X199850704Y-116132969D01*
X199701687Y-116252753D01*
X199637103Y-116279412D01*
X199568359Y-116266921D01*
X199517280Y-116219248D01*
X199500000Y-116156106D01*
X199500000Y-111758000D01*
X200600000Y-111758000D01*
X200610608Y-111877325D01*
X200610609Y-111877328D01*
X200666557Y-112072861D01*
X200760721Y-112253129D01*
X200889246Y-112410753D01*
X201046870Y-112539278D01*
X201227138Y-112633442D01*
X201422671Y-112689390D01*
X201422674Y-112689391D01*
X201541999Y-112699999D01*
X201542002Y-112700000D01*
X202750000Y-112700000D01*
X203250000Y-112700000D01*
X204457998Y-112700000D01*
X204458000Y-112699999D01*
X204577325Y-112689391D01*
X204577328Y-112689390D01*
X204772861Y-112633442D01*
X204953129Y-112539278D01*
X205110753Y-112410753D01*
X205239278Y-112253129D01*
X205333442Y-112072861D01*
X205389390Y-111877328D01*
X205389391Y-111877325D01*
X205399999Y-111758000D01*
X205400000Y-111757998D01*
X205400000Y-111450000D01*
X203250000Y-111450000D01*
X203250000Y-112700000D01*
X202750000Y-112700000D01*
X202750000Y-111450000D01*
X200600000Y-111450000D01*
X200600000Y-111758000D01*
X199500000Y-111758000D01*
X199500000Y-110124000D01*
X199519685Y-110056961D01*
X199572489Y-110011206D01*
X199624000Y-110000000D01*
X200632770Y-110000000D01*
X200699809Y-110019685D01*
G37*
%TD.AperFunction*%
%TD*%
M02*
