M48
; DRILL file KiCad 10.0.6 date 2026-09-14T21:52:47
; FORMAT={-:-/ absolute / metric / decimal}
; #@! TF.CreationDate,2026-09-14T21:52:47+02:00
; #@! TF.GenerationSoftware,Kicad,Pcbnew,10.0.6
; #@! TF.FileFunction,Plated,1,4,PTH
FMAT,2
METRIC
; #@! TA.AperFunction,Plated,PTH,ViaDrill
T1C0.300
; #@! TA.AperFunction,Plated,PTH,ComponentDrill
T2C0.650
%
G90
G05
T1
X187.0Y-128.0
X187.0Y-132.0
X188.5Y-94.5
X188.5Y-100.5
X188.5Y-106.0
X188.5Y-112.0
X188.5Y-118.0
X190.0Y-84.0
X190.5Y-90.9
X192.0Y-103.5
X192.5Y-97.5
X192.5Y-108.5
X192.5Y-115.0
X193.0Y-127.5
X193.5Y-96.0
X193.5Y-102.0
X193.5Y-107.5
X193.5Y-113.5
X193.5Y-119.5
X194.5Y-83.5
X194.5Y-123.0
X195.0Y-90.0
X196.5Y-86.0
X197.0Y-117.0
X197.0Y-126.5
X198.5Y-119.0
X199.0Y-106.5
X199.5Y-122.0
X200.0Y-111.5
X200.0Y-113.0
X200.0Y-114.5
X201.0Y-113.5
X201.0Y-115.0
X202.0Y-95.0
X202.5Y-83.0
X202.5Y-90.0
X202.5Y-108.4
X203.0Y-93.5
X203.0Y-113.0
X203.0Y-120.0
X204.0Y-108.5
X204.0Y-131.5
X205.0Y-113.5
X205.0Y-115.0
X205.5Y-95.0
X205.5Y-100.0
X205.5Y-101.0
X205.5Y-102.0
X205.5Y-103.0
X205.5Y-104.0
X205.5Y-105.0
X206.0Y-89.0
X206.0Y-111.5
X206.0Y-113.0
X206.0Y-114.5
X206.5Y-126.5
X207.0Y-123.5
X207.5Y-106.5
X207.5Y-119.0
X208.5Y-86.0
X208.5Y-127.0
X208.9Y-99.517
X208.9Y-102.5
X208.9Y-103.5
X209.5Y-90.5
X209.5Y-122.5
X209.7Y-100.5
X210.224Y-118.625
X210.5Y-104.5
X211.0Y-101.5
X211.5Y-99.5
X212.0Y-104.5
X214.0Y-122.5
X214.5Y-127.0
X215.0Y-117.0
X215.5Y-112.0
X216.5Y-111.0
X216.5Y-120.5
X216.5Y-126.5
X218.0Y-106.5
X222.5Y-128.5
X223.0Y-88.0
X223.5Y-92.5
X225.5Y-91.0
X226.0Y-127.0
X227.23Y-126.73
X228.5Y-91.5
X230.0Y-85.5
X233.0Y-85.0
X234.0Y-97.5
X234.0Y-101.0
X234.0Y-104.5
X234.0Y-108.0
X234.0Y-111.5
X235.5Y-124.5
X235.5Y-127.5
X236.0Y-129.5
X237.0Y-130.0
T2
X224.69Y-130.23
X224.69Y-131.5
X225.96Y-130.23
X225.96Y-131.5
X227.23Y-130.23
X227.23Y-131.5
X228.5Y-130.23
X228.5Y-131.5
X229.77Y-130.23
X229.77Y-131.5
X231.04Y-130.23
X231.04Y-131.5
X232.31Y-130.23
X232.31Y-131.5
M30
