%TF.GenerationSoftware,KiCad,Pcbnew,10.0.6*%
%TF.CreationDate,2026-09-14T21:53:05+02:00*%
%TF.ProjectId,stm32c071_project,73746d33-3263-4303-9731-5f70726f6a65,rev?*%
%TF.SameCoordinates,Original*%
%TF.FileFunction,Copper,L2,Inr*%
%TF.FilePolarity,Positive*%
%FSLAX46Y46*%
G04 Gerber Fmt 4.6, Leading zero omitted, Abs format (unit mm)*
G04 Created by KiCad (PCBNEW 10.0.6) date 2026-09-14 21:53:05*
%MOMM*%
%LPD*%
G01*
G04 APERTURE LIST*
%TA.AperFunction,ComponentPad*%
%ADD10R,1.000000X1.000000*%
%TD*%
%TA.AperFunction,ComponentPad*%
%ADD11C,1.000000*%
%TD*%
%TA.AperFunction,ViaPad*%
%ADD12C,0.600000*%
%TD*%
G04 APERTURE END LIST*
D10*
%TO.N,unconnected-(J1-NC-Pad1)*%
%TO.C,J1*%
X224690000Y-131500000D03*
D11*
%TO.N,unconnected-(J1-NC-Pad2)*%
X224690000Y-130230000D03*
%TO.N,+3V3*%
X225960000Y-131500000D03*
%TO.N,DEBUG_SWDIO*%
X225960000Y-130230000D03*
%TO.N,GND*%
X227230000Y-131500000D03*
%TO.N,DEBUG_SWCLK{slash}BOOT0*%
X227230000Y-130230000D03*
%TO.N,GND*%
X228500000Y-131500000D03*
%TO.N,unconnected-(J1-JTDO{slash}SWO-Pad8)*%
X228500000Y-130230000D03*
%TO.N,unconnected-(J1-JRCLK{slash}NC-Pad9)*%
X229770000Y-131500000D03*
%TO.N,unconnected-(J1-JTDI{slash}NC-Pad10)*%
X229770000Y-130230000D03*
%TO.N,GND*%
X231040000Y-131500000D03*
%TO.N,MCU_NRST*%
X231040000Y-130230000D03*
%TO.N,DEBUG_USART1_TX*%
X232310000Y-131500000D03*
%TO.N,DEBUG_USART1_RX*%
X232310000Y-130230000D03*
%TD*%
D12*
%TO.N,I2C1_SCL*%
X228500000Y-91500000D03*
X210500000Y-104500000D03*
X225500000Y-91000000D03*
%TO.N,+3V3*%
X237000000Y-130000000D03*
X207500000Y-119000000D03*
X211500000Y-99500000D03*
X188500000Y-94500000D03*
X195000000Y-90000000D03*
X188500000Y-112000000D03*
X207000000Y-123500000D03*
X205500000Y-95000000D03*
X188500000Y-100500000D03*
X188500000Y-106000000D03*
X188500000Y-118000000D03*
%TO.N,USER_BUTTON2*%
X193500000Y-102000000D03*
X205500000Y-105000000D03*
%TO.N,GND*%
X210223530Y-118625000D03*
X234000000Y-104500000D03*
X199000000Y-106500000D03*
X190500000Y-90900000D03*
X201000000Y-115000000D03*
X206000000Y-113000000D03*
X202500000Y-83000000D03*
X201000000Y-113500000D03*
X200000000Y-111500000D03*
X206000000Y-111500000D03*
X192500000Y-115000000D03*
X214000000Y-122500000D03*
X208500000Y-86000000D03*
X206000000Y-114500000D03*
X234000000Y-108000000D03*
X234000000Y-111500000D03*
X200000000Y-113000000D03*
X205000000Y-113500000D03*
X194500000Y-123000000D03*
X215000000Y-117000000D03*
X234000000Y-97500000D03*
X233000000Y-85000000D03*
X206500000Y-126500000D03*
X192500000Y-108500000D03*
X223000000Y-88000000D03*
X192000000Y-103500000D03*
X234000000Y-101000000D03*
X203000000Y-120000000D03*
X204000000Y-131500000D03*
X222500000Y-128500000D03*
X209500000Y-90500000D03*
X193000000Y-127500000D03*
X192500000Y-97500000D03*
X190000000Y-84000000D03*
X200000000Y-114500000D03*
X203000000Y-113000000D03*
X187000000Y-132000000D03*
X216500000Y-126500000D03*
X236000000Y-129500000D03*
X205000000Y-115000000D03*
X209500000Y-122500000D03*
%TO.N,MCU_NRST*%
X216500000Y-111000000D03*
X187000000Y-128000000D03*
X211000000Y-101500000D03*
%TO.N,DEBUG_USART1_TX*%
X209700000Y-100500000D03*
X235500000Y-127500000D03*
%TO.N,DEBUG_USART1_RX*%
X218000000Y-106500000D03*
X208900000Y-99517470D03*
X235500000Y-124500000D03*
%TO.N,SPI1_NSS*%
X205500000Y-100000000D03*
X203000000Y-93500000D03*
X202500000Y-90000000D03*
%TO.N,SPI1_SCK*%
X196500000Y-86000000D03*
X202000000Y-95000000D03*
X205500000Y-101000000D03*
%TO.N,SPI1_MISO*%
X206000000Y-89000000D03*
X205500000Y-102000000D03*
%TO.N,SPI1_MOSI*%
X205500000Y-103000000D03*
X194500000Y-83500000D03*
%TO.N,USER_BUTTON1*%
X193500000Y-96000000D03*
X205500000Y-104000000D03*
%TO.N,USER_BUTTON3*%
X207500000Y-106500000D03*
X193500000Y-107500000D03*
%TO.N,I2C1_SDA*%
X230000000Y-85500000D03*
X212000000Y-104500000D03*
X223500000Y-92500000D03*
%TO.N,DEBUG_SWDIO*%
X226000000Y-127000000D03*
%TO.N,DEBUG_SWCLK{slash}BOOT0*%
X197000000Y-126500000D03*
X215500000Y-112000000D03*
X227230000Y-126730000D03*
%TO.N,USER_BUTTON4*%
X193500000Y-113500000D03*
X204000000Y-108500000D03*
X208900000Y-103500000D03*
%TO.N,USER_BUTTON5*%
X193500000Y-119500000D03*
X208900000Y-102500000D03*
X202500000Y-108400000D03*
X197000000Y-117000000D03*
%TO.N,USB_VBUS*%
X214500000Y-127000000D03*
X208500000Y-127000000D03*
X216500000Y-120500000D03*
X199500000Y-122000000D03*
X198500000Y-119000000D03*
%TD*%
%TA.AperFunction,Conductor*%
%TO.N,GND*%
G36*
X237029495Y-78019685D02*
G01*
X237031239Y-78020826D01*
X238479366Y-78986244D01*
X238513756Y-79020634D01*
X239479174Y-80468761D01*
X239499982Y-80535460D01*
X239500000Y-80537544D01*
X239500000Y-131462456D01*
X239480315Y-131529495D01*
X239479174Y-131531239D01*
X238513756Y-132979365D01*
X238479365Y-133013756D01*
X237031239Y-133979174D01*
X236964540Y-133999982D01*
X236962456Y-134000000D01*
X186037544Y-134000000D01*
X185970505Y-133980315D01*
X185968761Y-133979174D01*
X184520634Y-133013756D01*
X184486243Y-132979365D01*
X184166998Y-132500498D01*
X183520826Y-131531239D01*
X183500018Y-131464540D01*
X183500000Y-131462456D01*
X183500000Y-130328543D01*
X223689499Y-130328543D01*
X223727947Y-130521828D01*
X223727949Y-130521836D01*
X223732825Y-130533608D01*
X223769349Y-130621786D01*
X223770318Y-130624124D01*
X223777787Y-130693593D01*
X223755026Y-130745884D01*
X223746203Y-130757670D01*
X223746202Y-130757671D01*
X223695908Y-130892517D01*
X223689501Y-130952116D01*
X223689500Y-130952135D01*
X223689500Y-132047870D01*
X223689501Y-132047876D01*
X223695908Y-132107483D01*
X223746202Y-132242328D01*
X223746206Y-132242335D01*
X223832452Y-132357544D01*
X223832455Y-132357547D01*
X223947664Y-132443793D01*
X223947671Y-132443797D01*
X224082517Y-132494091D01*
X224082516Y-132494091D01*
X224089444Y-132494835D01*
X224142127Y-132500500D01*
X225237872Y-132500499D01*
X225297483Y-132494091D01*
X225432331Y-132443796D01*
X225444110Y-132434977D01*
X225509570Y-132410558D01*
X225565872Y-132419680D01*
X225668165Y-132462051D01*
X225668169Y-132462051D01*
X225668170Y-132462052D01*
X225861456Y-132500500D01*
X225861459Y-132500500D01*
X226058543Y-132500500D01*
X226188582Y-132474632D01*
X226251835Y-132462051D01*
X226433914Y-132386632D01*
X226433919Y-132386628D01*
X226433922Y-132386627D01*
X226469924Y-132362571D01*
X226526559Y-132324728D01*
X226593234Y-132303850D01*
X226660614Y-132322334D01*
X226664341Y-132324728D01*
X226756321Y-132386188D01*
X226756328Y-132386192D01*
X226938306Y-132461569D01*
X226938318Y-132461572D01*
X227131504Y-132499999D01*
X227131508Y-132500000D01*
X227328492Y-132500000D01*
X227328495Y-132499999D01*
X227521681Y-132461572D01*
X227521693Y-132461569D01*
X227703676Y-132386190D01*
X227703680Y-132386187D01*
X227739019Y-132362573D01*
X227739019Y-132362571D01*
X227201447Y-131825000D01*
X227272787Y-131825000D01*
X227355445Y-131802851D01*
X227429554Y-131760064D01*
X227490064Y-131699554D01*
X227532851Y-131625445D01*
X227555000Y-131542787D01*
X227555000Y-131457213D01*
X227532851Y-131374555D01*
X227490064Y-131300446D01*
X227429554Y-131239936D01*
X227391514Y-131217973D01*
X227458582Y-131204632D01*
X227521835Y-131192051D01*
X227576959Y-131169217D01*
X227646427Y-131161749D01*
X227708907Y-131193024D01*
X227744559Y-131253113D01*
X227742065Y-131322938D01*
X227712093Y-131371460D01*
X227583553Y-131500000D01*
X227865000Y-131781446D01*
X227865001Y-131781446D01*
X228146446Y-131500001D01*
X228146446Y-131500000D01*
X228017905Y-131371459D01*
X227984421Y-131310136D01*
X227989405Y-131240444D01*
X228031277Y-131184511D01*
X228096741Y-131160094D01*
X228153037Y-131169216D01*
X228208165Y-131192051D01*
X228208169Y-131192051D01*
X228208170Y-131192052D01*
X228338485Y-131217973D01*
X228300446Y-131239936D01*
X228239936Y-131300446D01*
X228197149Y-131374555D01*
X228175000Y-131457213D01*
X228175000Y-131542787D01*
X228197149Y-131625445D01*
X228239936Y-131699554D01*
X228300446Y-131760064D01*
X228374555Y-131802851D01*
X228457213Y-131825000D01*
X228528552Y-131825000D01*
X227990978Y-132362571D01*
X228026328Y-132386192D01*
X228208306Y-132461569D01*
X228208318Y-132461572D01*
X228401504Y-132499999D01*
X228401508Y-132500000D01*
X228598492Y-132500000D01*
X228598495Y-132499999D01*
X228791681Y-132461572D01*
X228791693Y-132461569D01*
X228973673Y-132386191D01*
X228973676Y-132386189D01*
X229065657Y-132324729D01*
X229132334Y-132303850D01*
X229199715Y-132322334D01*
X229203440Y-132324728D01*
X229296079Y-132386628D01*
X229296092Y-132386635D01*
X229478160Y-132462049D01*
X229478165Y-132462051D01*
X229478169Y-132462051D01*
X229478170Y-132462052D01*
X229671456Y-132500500D01*
X229671459Y-132500500D01*
X229868543Y-132500500D01*
X229998582Y-132474632D01*
X230061835Y-132462051D01*
X230243914Y-132386632D01*
X230243919Y-132386628D01*
X230243922Y-132386627D01*
X230279924Y-132362571D01*
X230336559Y-132324728D01*
X230403234Y-132303850D01*
X230470614Y-132322334D01*
X230474341Y-132324728D01*
X230566321Y-132386188D01*
X230566328Y-132386192D01*
X230748306Y-132461569D01*
X230748318Y-132461572D01*
X230941504Y-132499999D01*
X230941508Y-132500000D01*
X231138492Y-132500000D01*
X231138495Y-132499999D01*
X231331681Y-132461572D01*
X231331693Y-132461569D01*
X231513673Y-132386191D01*
X231513676Y-132386189D01*
X231605657Y-132324729D01*
X231672334Y-132303850D01*
X231739715Y-132322334D01*
X231743440Y-132324728D01*
X231836079Y-132386628D01*
X231836092Y-132386635D01*
X232018160Y-132462049D01*
X232018165Y-132462051D01*
X232018169Y-132462051D01*
X232018170Y-132462052D01*
X232211456Y-132500500D01*
X232211459Y-132500500D01*
X232408543Y-132500500D01*
X232538582Y-132474632D01*
X232601835Y-132462051D01*
X232783914Y-132386632D01*
X232784579Y-132386188D01*
X232876558Y-132324729D01*
X232947782Y-132277139D01*
X233087139Y-132137782D01*
X233196632Y-131973914D01*
X233272051Y-131791835D01*
X233300181Y-131650418D01*
X233310500Y-131598543D01*
X233310500Y-131401456D01*
X233272052Y-131208170D01*
X233272051Y-131208169D01*
X233272051Y-131208165D01*
X233267488Y-131197149D01*
X233196635Y-131026092D01*
X233196633Y-131026088D01*
X233196632Y-131026086D01*
X233147214Y-130952127D01*
X233135029Y-130933891D01*
X233114151Y-130867214D01*
X233132635Y-130799834D01*
X233135029Y-130796109D01*
X233192970Y-130709394D01*
X233196632Y-130703914D01*
X233272051Y-130521835D01*
X233300426Y-130379185D01*
X233310500Y-130328543D01*
X233310500Y-130131456D01*
X233310499Y-130131454D01*
X233272269Y-129939257D01*
X233272269Y-129939256D01*
X233272053Y-129938174D01*
X233272052Y-129938170D01*
X233272051Y-129938165D01*
X233265005Y-129921155D01*
X233265004Y-129921153D01*
X236199500Y-129921153D01*
X236199500Y-130078846D01*
X236230261Y-130233489D01*
X236230264Y-130233501D01*
X236290602Y-130379172D01*
X236290609Y-130379185D01*
X236378210Y-130510288D01*
X236378213Y-130510292D01*
X236489707Y-130621786D01*
X236489711Y-130621789D01*
X236620814Y-130709390D01*
X236620827Y-130709397D01*
X236766498Y-130769735D01*
X236766503Y-130769737D01*
X236899083Y-130796109D01*
X236921153Y-130800499D01*
X236921156Y-130800500D01*
X236921158Y-130800500D01*
X237078844Y-130800500D01*
X237078845Y-130800499D01*
X237233497Y-130769737D01*
X237379179Y-130709394D01*
X237510289Y-130621789D01*
X237621789Y-130510289D01*
X237709394Y-130379179D01*
X237769737Y-130233497D01*
X237800500Y-130078842D01*
X237800500Y-129921158D01*
X237800500Y-129921155D01*
X237800499Y-129921153D01*
X237790423Y-129870500D01*
X237769737Y-129766503D01*
X237736791Y-129686964D01*
X237709397Y-129620827D01*
X237709390Y-129620814D01*
X237621789Y-129489711D01*
X237621786Y-129489707D01*
X237510292Y-129378213D01*
X237510288Y-129378210D01*
X237379185Y-129290609D01*
X237379172Y-129290602D01*
X237233501Y-129230264D01*
X237233489Y-129230261D01*
X237078845Y-129199500D01*
X237078842Y-129199500D01*
X236921158Y-129199500D01*
X236921155Y-129199500D01*
X236766510Y-129230261D01*
X236766498Y-129230264D01*
X236620827Y-129290602D01*
X236620814Y-129290609D01*
X236489711Y-129378210D01*
X236489707Y-129378213D01*
X236378213Y-129489707D01*
X236378210Y-129489711D01*
X236290609Y-129620814D01*
X236290602Y-129620827D01*
X236230264Y-129766498D01*
X236230261Y-129766510D01*
X236199500Y-129921153D01*
X233265004Y-129921153D01*
X233196635Y-129756092D01*
X233196628Y-129756079D01*
X233087139Y-129592218D01*
X233087136Y-129592214D01*
X232947785Y-129452863D01*
X232947781Y-129452860D01*
X232783920Y-129343371D01*
X232783907Y-129343364D01*
X232601839Y-129267950D01*
X232601829Y-129267947D01*
X232408543Y-129229500D01*
X232408541Y-129229500D01*
X232211459Y-129229500D01*
X232211457Y-129229500D01*
X232018170Y-129267947D01*
X232018160Y-129267950D01*
X231836089Y-129343366D01*
X231743890Y-129404971D01*
X231677213Y-129425848D01*
X231609833Y-129407363D01*
X231606110Y-129404971D01*
X231566059Y-129378210D01*
X231513914Y-129343368D01*
X231513911Y-129343366D01*
X231513910Y-129343366D01*
X231331839Y-129267950D01*
X231331829Y-129267947D01*
X231138543Y-129229500D01*
X231138541Y-129229500D01*
X230941459Y-129229500D01*
X230941457Y-129229500D01*
X230748170Y-129267947D01*
X230748160Y-129267950D01*
X230566089Y-129343366D01*
X230473890Y-129404971D01*
X230407213Y-129425848D01*
X230339833Y-129407363D01*
X230336110Y-129404971D01*
X230296059Y-129378210D01*
X230243914Y-129343368D01*
X230243911Y-129343366D01*
X230243910Y-129343366D01*
X230061839Y-129267950D01*
X230061829Y-129267947D01*
X229868543Y-129229500D01*
X229868541Y-129229500D01*
X229671459Y-129229500D01*
X229671457Y-129229500D01*
X229478170Y-129267947D01*
X229478160Y-129267950D01*
X229296089Y-129343366D01*
X229203890Y-129404971D01*
X229137213Y-129425848D01*
X229069833Y-129407363D01*
X229066110Y-129404971D01*
X229026059Y-129378210D01*
X228973914Y-129343368D01*
X228973911Y-129343366D01*
X228973910Y-129343366D01*
X228791839Y-129267950D01*
X228791829Y-129267947D01*
X228598543Y-129229500D01*
X228598541Y-129229500D01*
X228401459Y-129229500D01*
X228401457Y-129229500D01*
X228208170Y-129267947D01*
X228208160Y-129267950D01*
X228026089Y-129343366D01*
X227933890Y-129404971D01*
X227867213Y-129425848D01*
X227799833Y-129407363D01*
X227796110Y-129404971D01*
X227756059Y-129378210D01*
X227703914Y-129343368D01*
X227703911Y-129343366D01*
X227703910Y-129343366D01*
X227521839Y-129267950D01*
X227521829Y-129267947D01*
X227328543Y-129229500D01*
X227328541Y-129229500D01*
X227131459Y-129229500D01*
X227131457Y-129229500D01*
X226938170Y-129267947D01*
X226938160Y-129267950D01*
X226756089Y-129343366D01*
X226663890Y-129404971D01*
X226597213Y-129425848D01*
X226529833Y-129407363D01*
X226526110Y-129404971D01*
X226486059Y-129378210D01*
X226433914Y-129343368D01*
X226433911Y-129343366D01*
X226433910Y-129343366D01*
X226251839Y-129267950D01*
X226251829Y-129267947D01*
X226058543Y-129229500D01*
X226058541Y-129229500D01*
X225861459Y-129229500D01*
X225861457Y-129229500D01*
X225668170Y-129267947D01*
X225668160Y-129267950D01*
X225486089Y-129343366D01*
X225393890Y-129404971D01*
X225327213Y-129425848D01*
X225259833Y-129407363D01*
X225256110Y-129404971D01*
X225216059Y-129378210D01*
X225163914Y-129343368D01*
X225163911Y-129343366D01*
X225163910Y-129343366D01*
X224981839Y-129267950D01*
X224981829Y-129267947D01*
X224788543Y-129229500D01*
X224788541Y-129229500D01*
X224591459Y-129229500D01*
X224591457Y-129229500D01*
X224398170Y-129267947D01*
X224398160Y-129267950D01*
X224216092Y-129343364D01*
X224216079Y-129343371D01*
X224052218Y-129452860D01*
X224052214Y-129452863D01*
X223912863Y-129592214D01*
X223912860Y-129592218D01*
X223803371Y-129756079D01*
X223803364Y-129756092D01*
X223727950Y-129938160D01*
X223727947Y-129938170D01*
X223689500Y-130131456D01*
X223689500Y-130131459D01*
X223689500Y-130328541D01*
X223689500Y-130328543D01*
X223689499Y-130328543D01*
X183500000Y-130328543D01*
X183500000Y-129332399D01*
X208134500Y-129332399D01*
X208134500Y-129457601D01*
X208166905Y-129578536D01*
X208229505Y-129686964D01*
X208318036Y-129775495D01*
X208426464Y-129838095D01*
X208547399Y-129870500D01*
X208547401Y-129870500D01*
X208672599Y-129870500D01*
X208672601Y-129870500D01*
X208793536Y-129838095D01*
X208901964Y-129775495D01*
X208990495Y-129686964D01*
X209053095Y-129578536D01*
X209085500Y-129457601D01*
X209085500Y-129332399D01*
X213914500Y-129332399D01*
X213914500Y-129457601D01*
X213946905Y-129578536D01*
X214009505Y-129686964D01*
X214098036Y-129775495D01*
X214206464Y-129838095D01*
X214327399Y-129870500D01*
X214327401Y-129870500D01*
X214452599Y-129870500D01*
X214452601Y-129870500D01*
X214573536Y-129838095D01*
X214681964Y-129775495D01*
X214770495Y-129686964D01*
X214833095Y-129578536D01*
X214865500Y-129457601D01*
X214865500Y-129332399D01*
X214833095Y-129211464D01*
X214770495Y-129103036D01*
X214681964Y-129014505D01*
X214573536Y-128951905D01*
X214573537Y-128951905D01*
X214533224Y-128941103D01*
X214452601Y-128919500D01*
X214327399Y-128919500D01*
X214246775Y-128941103D01*
X214206463Y-128951905D01*
X214098037Y-129014504D01*
X214098034Y-129014506D01*
X214009506Y-129103034D01*
X214009504Y-129103037D01*
X213946905Y-129211463D01*
X213946905Y-129211464D01*
X213914500Y-129332399D01*
X209085500Y-129332399D01*
X209053095Y-129211464D01*
X208990495Y-129103036D01*
X208901964Y-129014505D01*
X208793536Y-128951905D01*
X208793537Y-128951905D01*
X208753224Y-128941103D01*
X208672601Y-128919500D01*
X208547399Y-128919500D01*
X208466775Y-128941103D01*
X208426463Y-128951905D01*
X208318037Y-129014504D01*
X208318034Y-129014506D01*
X208229506Y-129103034D01*
X208229504Y-129103037D01*
X208166905Y-129211463D01*
X208166905Y-129211464D01*
X208134500Y-129332399D01*
X183500000Y-129332399D01*
X183500000Y-127921153D01*
X186199500Y-127921153D01*
X186199500Y-128078846D01*
X186230261Y-128233489D01*
X186230264Y-128233501D01*
X186290602Y-128379172D01*
X186290609Y-128379185D01*
X186378210Y-128510288D01*
X186378213Y-128510292D01*
X186489707Y-128621786D01*
X186489711Y-128621789D01*
X186620814Y-128709390D01*
X186620827Y-128709397D01*
X186766498Y-128769735D01*
X186766503Y-128769737D01*
X186921153Y-128800499D01*
X186921156Y-128800500D01*
X186921158Y-128800500D01*
X187078844Y-128800500D01*
X187078845Y-128800499D01*
X187233497Y-128769737D01*
X187379179Y-128709394D01*
X187510289Y-128621789D01*
X187621789Y-128510289D01*
X187709394Y-128379179D01*
X187769737Y-128233497D01*
X187800500Y-128078842D01*
X187800500Y-127921158D01*
X187800500Y-127921155D01*
X187800499Y-127921153D01*
X187769738Y-127766510D01*
X187769737Y-127766503D01*
X187709794Y-127621786D01*
X187709397Y-127620827D01*
X187709390Y-127620814D01*
X187621789Y-127489711D01*
X187621786Y-127489707D01*
X187510292Y-127378213D01*
X187510288Y-127378210D01*
X187379185Y-127290609D01*
X187379172Y-127290602D01*
X187233501Y-127230264D01*
X187233489Y-127230261D01*
X187078845Y-127199500D01*
X187078842Y-127199500D01*
X186921158Y-127199500D01*
X186921155Y-127199500D01*
X186766510Y-127230261D01*
X186766498Y-127230264D01*
X186620827Y-127290602D01*
X186620814Y-127290609D01*
X186489711Y-127378210D01*
X186489707Y-127378213D01*
X186378213Y-127489707D01*
X186378210Y-127489711D01*
X186290609Y-127620814D01*
X186290602Y-127620827D01*
X186230264Y-127766498D01*
X186230261Y-127766510D01*
X186199500Y-127921153D01*
X183500000Y-127921153D01*
X183500000Y-126421153D01*
X196199500Y-126421153D01*
X196199500Y-126578846D01*
X196230261Y-126733489D01*
X196230264Y-126733501D01*
X196290602Y-126879172D01*
X196290609Y-126879185D01*
X196378210Y-127010288D01*
X196378213Y-127010292D01*
X196489707Y-127121786D01*
X196489711Y-127121789D01*
X196620814Y-127209390D01*
X196620827Y-127209397D01*
X196758683Y-127266498D01*
X196766503Y-127269737D01*
X196921153Y-127300499D01*
X196921156Y-127300500D01*
X196921158Y-127300500D01*
X197078844Y-127300500D01*
X197078845Y-127300499D01*
X197233497Y-127269737D01*
X197379179Y-127209394D01*
X197510289Y-127121789D01*
X197621789Y-127010289D01*
X197681348Y-126921153D01*
X207699500Y-126921153D01*
X207699500Y-127078846D01*
X207730261Y-127233489D01*
X207730264Y-127233501D01*
X207790602Y-127379172D01*
X207790609Y-127379185D01*
X207878210Y-127510288D01*
X207878213Y-127510292D01*
X207989707Y-127621786D01*
X207989711Y-127621789D01*
X208120814Y-127709390D01*
X208120827Y-127709397D01*
X208258683Y-127766498D01*
X208266503Y-127769737D01*
X208421153Y-127800499D01*
X208421156Y-127800500D01*
X208421158Y-127800500D01*
X208578844Y-127800500D01*
X208578845Y-127800499D01*
X208733497Y-127769737D01*
X208879179Y-127709394D01*
X209010289Y-127621789D01*
X209121789Y-127510289D01*
X209209394Y-127379179D01*
X209269737Y-127233497D01*
X209300500Y-127078842D01*
X209300500Y-126921158D01*
X209300500Y-126921155D01*
X209300499Y-126921153D01*
X213699500Y-126921153D01*
X213699500Y-127078846D01*
X213730261Y-127233489D01*
X213730264Y-127233501D01*
X213790602Y-127379172D01*
X213790609Y-127379185D01*
X213878210Y-127510288D01*
X213878213Y-127510292D01*
X213989707Y-127621786D01*
X213989711Y-127621789D01*
X214120814Y-127709390D01*
X214120827Y-127709397D01*
X214258683Y-127766498D01*
X214266503Y-127769737D01*
X214421153Y-127800499D01*
X214421156Y-127800500D01*
X214421158Y-127800500D01*
X214578844Y-127800500D01*
X214578845Y-127800499D01*
X214733497Y-127769737D01*
X214879179Y-127709394D01*
X215010289Y-127621789D01*
X215121789Y-127510289D01*
X215209394Y-127379179D01*
X215269737Y-127233497D01*
X215300500Y-127078842D01*
X215300500Y-126921158D01*
X215300500Y-126921155D01*
X215300499Y-126921153D01*
X225199500Y-126921153D01*
X225199500Y-127078846D01*
X225230261Y-127233489D01*
X225230264Y-127233501D01*
X225290602Y-127379172D01*
X225290609Y-127379185D01*
X225378210Y-127510288D01*
X225378213Y-127510292D01*
X225489707Y-127621786D01*
X225489711Y-127621789D01*
X225620814Y-127709390D01*
X225620827Y-127709397D01*
X225758683Y-127766498D01*
X225766503Y-127769737D01*
X225921153Y-127800499D01*
X225921156Y-127800500D01*
X225921158Y-127800500D01*
X226078844Y-127800500D01*
X226078845Y-127800499D01*
X226233497Y-127769737D01*
X226379179Y-127709394D01*
X226510289Y-127621789D01*
X226621789Y-127510289D01*
X226656341Y-127458578D01*
X226709951Y-127413775D01*
X226779276Y-127405066D01*
X226828334Y-127424369D01*
X226850813Y-127439389D01*
X226850815Y-127439390D01*
X226850821Y-127439394D01*
X226850823Y-127439395D01*
X226850827Y-127439397D01*
X226897140Y-127458580D01*
X226996503Y-127499737D01*
X227151153Y-127530499D01*
X227151156Y-127530500D01*
X227151158Y-127530500D01*
X227308844Y-127530500D01*
X227308845Y-127530499D01*
X227463497Y-127499737D01*
X227609179Y-127439394D01*
X227636479Y-127421153D01*
X234699500Y-127421153D01*
X234699500Y-127578846D01*
X234730261Y-127733489D01*
X234730264Y-127733501D01*
X234790602Y-127879172D01*
X234790609Y-127879185D01*
X234878210Y-128010288D01*
X234878213Y-128010292D01*
X234989707Y-128121786D01*
X234989711Y-128121789D01*
X235120814Y-128209390D01*
X235120827Y-128209397D01*
X235266498Y-128269735D01*
X235266503Y-128269737D01*
X235421153Y-128300499D01*
X235421156Y-128300500D01*
X235421158Y-128300500D01*
X235578844Y-128300500D01*
X235578845Y-128300499D01*
X235733497Y-128269737D01*
X235879179Y-128209394D01*
X236010289Y-128121789D01*
X236121789Y-128010289D01*
X236209394Y-127879179D01*
X236269737Y-127733497D01*
X236300500Y-127578842D01*
X236300500Y-127421158D01*
X236300500Y-127421155D01*
X236300499Y-127421153D01*
X236291957Y-127378210D01*
X236269737Y-127266503D01*
X236258879Y-127240289D01*
X236209397Y-127120827D01*
X236209390Y-127120814D01*
X236121789Y-126989711D01*
X236121786Y-126989707D01*
X236010292Y-126878213D01*
X236010288Y-126878210D01*
X235879185Y-126790609D01*
X235879172Y-126790602D01*
X235733501Y-126730264D01*
X235733489Y-126730261D01*
X235578845Y-126699500D01*
X235578842Y-126699500D01*
X235421158Y-126699500D01*
X235421155Y-126699500D01*
X235266510Y-126730261D01*
X235266498Y-126730264D01*
X235120827Y-126790602D01*
X235120814Y-126790609D01*
X234989711Y-126878210D01*
X234989707Y-126878213D01*
X234878213Y-126989707D01*
X234878210Y-126989711D01*
X234790609Y-127120814D01*
X234790602Y-127120827D01*
X234730264Y-127266498D01*
X234730261Y-127266510D01*
X234699500Y-127421153D01*
X227636479Y-127421153D01*
X227740289Y-127351789D01*
X227740292Y-127351786D01*
X227764694Y-127327385D01*
X227851786Y-127240292D01*
X227851789Y-127240289D01*
X227939394Y-127109179D01*
X227999737Y-126963497D01*
X228030500Y-126808842D01*
X228030500Y-126651158D01*
X228030500Y-126651155D01*
X228030499Y-126651153D01*
X228024467Y-126620827D01*
X227999737Y-126496503D01*
X227996922Y-126489707D01*
X227939397Y-126350827D01*
X227939390Y-126350814D01*
X227851789Y-126219711D01*
X227851786Y-126219707D01*
X227740292Y-126108213D01*
X227740288Y-126108210D01*
X227609185Y-126020609D01*
X227609172Y-126020602D01*
X227463501Y-125960264D01*
X227463489Y-125960261D01*
X227308845Y-125929500D01*
X227308842Y-125929500D01*
X227151158Y-125929500D01*
X227151155Y-125929500D01*
X226996510Y-125960261D01*
X226996498Y-125960264D01*
X226850827Y-126020602D01*
X226850814Y-126020609D01*
X226719711Y-126108210D01*
X226719707Y-126108213D01*
X226608213Y-126219707D01*
X226573659Y-126271421D01*
X226520046Y-126316225D01*
X226450721Y-126324932D01*
X226401667Y-126305632D01*
X226379182Y-126290608D01*
X226379181Y-126290607D01*
X226379179Y-126290606D01*
X226379176Y-126290604D01*
X226379171Y-126290602D01*
X226233501Y-126230264D01*
X226233489Y-126230261D01*
X226078845Y-126199500D01*
X226078842Y-126199500D01*
X225921158Y-126199500D01*
X225921155Y-126199500D01*
X225766510Y-126230261D01*
X225766498Y-126230264D01*
X225620827Y-126290602D01*
X225620814Y-126290609D01*
X225489711Y-126378210D01*
X225489707Y-126378213D01*
X225378213Y-126489707D01*
X225378210Y-126489711D01*
X225290609Y-126620814D01*
X225290602Y-126620827D01*
X225230264Y-126766498D01*
X225230261Y-126766510D01*
X225199500Y-126921153D01*
X215300499Y-126921153D01*
X215289849Y-126867611D01*
X215269737Y-126766503D01*
X215256062Y-126733489D01*
X215209397Y-126620827D01*
X215209390Y-126620814D01*
X215121789Y-126489711D01*
X215121786Y-126489707D01*
X215010292Y-126378213D01*
X215010288Y-126378210D01*
X214879185Y-126290609D01*
X214879172Y-126290602D01*
X214733501Y-126230264D01*
X214733489Y-126230261D01*
X214578845Y-126199500D01*
X214578842Y-126199500D01*
X214421158Y-126199500D01*
X214421155Y-126199500D01*
X214266510Y-126230261D01*
X214266498Y-126230264D01*
X214120827Y-126290602D01*
X214120814Y-126290609D01*
X213989711Y-126378210D01*
X213989707Y-126378213D01*
X213878213Y-126489707D01*
X213878210Y-126489711D01*
X213790609Y-126620814D01*
X213790602Y-126620827D01*
X213730264Y-126766498D01*
X213730261Y-126766510D01*
X213699500Y-126921153D01*
X209300499Y-126921153D01*
X209289849Y-126867611D01*
X209269737Y-126766503D01*
X209256062Y-126733489D01*
X209209397Y-126620827D01*
X209209390Y-126620814D01*
X209121789Y-126489711D01*
X209121786Y-126489707D01*
X209010292Y-126378213D01*
X209010288Y-126378210D01*
X208879185Y-126290609D01*
X208879172Y-126290602D01*
X208733501Y-126230264D01*
X208733489Y-126230261D01*
X208578845Y-126199500D01*
X208578842Y-126199500D01*
X208421158Y-126199500D01*
X208421155Y-126199500D01*
X208266510Y-126230261D01*
X208266498Y-126230264D01*
X208120827Y-126290602D01*
X208120814Y-126290609D01*
X207989711Y-126378210D01*
X207989707Y-126378213D01*
X207878213Y-126489707D01*
X207878210Y-126489711D01*
X207790609Y-126620814D01*
X207790602Y-126620827D01*
X207730264Y-126766498D01*
X207730261Y-126766510D01*
X207699500Y-126921153D01*
X197681348Y-126921153D01*
X197709394Y-126879179D01*
X197769737Y-126733497D01*
X197800500Y-126578842D01*
X197800500Y-126421158D01*
X197800500Y-126421155D01*
X197800499Y-126421153D01*
X197786509Y-126350821D01*
X197769737Y-126266503D01*
X197769735Y-126266498D01*
X197709397Y-126120827D01*
X197709390Y-126120814D01*
X197621789Y-125989711D01*
X197621786Y-125989707D01*
X197510292Y-125878213D01*
X197510288Y-125878210D01*
X197379185Y-125790609D01*
X197379172Y-125790602D01*
X197233501Y-125730264D01*
X197233489Y-125730261D01*
X197078845Y-125699500D01*
X197078842Y-125699500D01*
X196921158Y-125699500D01*
X196921155Y-125699500D01*
X196766510Y-125730261D01*
X196766498Y-125730264D01*
X196620827Y-125790602D01*
X196620814Y-125790609D01*
X196489711Y-125878210D01*
X196489707Y-125878213D01*
X196378213Y-125989707D01*
X196378210Y-125989711D01*
X196290609Y-126120814D01*
X196290602Y-126120827D01*
X196230264Y-126266498D01*
X196230261Y-126266510D01*
X196199500Y-126421153D01*
X183500000Y-126421153D01*
X183500000Y-124421153D01*
X234699500Y-124421153D01*
X234699500Y-124578846D01*
X234730261Y-124733489D01*
X234730264Y-124733501D01*
X234790602Y-124879172D01*
X234790609Y-124879185D01*
X234878210Y-125010288D01*
X234878213Y-125010292D01*
X234989707Y-125121786D01*
X234989711Y-125121789D01*
X235120814Y-125209390D01*
X235120827Y-125209397D01*
X235266498Y-125269735D01*
X235266503Y-125269737D01*
X235421153Y-125300499D01*
X235421156Y-125300500D01*
X235421158Y-125300500D01*
X235578844Y-125300500D01*
X235578845Y-125300499D01*
X235733497Y-125269737D01*
X235879179Y-125209394D01*
X236010289Y-125121789D01*
X236121789Y-125010289D01*
X236209394Y-124879179D01*
X236269737Y-124733497D01*
X236300500Y-124578842D01*
X236300500Y-124421158D01*
X236300500Y-124421155D01*
X236300499Y-124421153D01*
X236269738Y-124266510D01*
X236269737Y-124266503D01*
X236209794Y-124121786D01*
X236209397Y-124120827D01*
X236209390Y-124120814D01*
X236121789Y-123989711D01*
X236121786Y-123989707D01*
X236010292Y-123878213D01*
X236010288Y-123878210D01*
X235879185Y-123790609D01*
X235879172Y-123790602D01*
X235733501Y-123730264D01*
X235733489Y-123730261D01*
X235578845Y-123699500D01*
X235578842Y-123699500D01*
X235421158Y-123699500D01*
X235421155Y-123699500D01*
X235266510Y-123730261D01*
X235266498Y-123730264D01*
X235120827Y-123790602D01*
X235120814Y-123790609D01*
X234989711Y-123878210D01*
X234989707Y-123878213D01*
X234878213Y-123989707D01*
X234878210Y-123989711D01*
X234790609Y-124120814D01*
X234790602Y-124120827D01*
X234730264Y-124266498D01*
X234730261Y-124266510D01*
X234699500Y-124421153D01*
X183500000Y-124421153D01*
X183500000Y-123421153D01*
X206199500Y-123421153D01*
X206199500Y-123578846D01*
X206230261Y-123733489D01*
X206230264Y-123733501D01*
X206290602Y-123879172D01*
X206290609Y-123879185D01*
X206378210Y-124010288D01*
X206378213Y-124010292D01*
X206489707Y-124121786D01*
X206489711Y-124121789D01*
X206620814Y-124209390D01*
X206620827Y-124209397D01*
X206758683Y-124266498D01*
X206766503Y-124269737D01*
X206921153Y-124300499D01*
X206921156Y-124300500D01*
X206921158Y-124300500D01*
X207078844Y-124300500D01*
X207078845Y-124300499D01*
X207089179Y-124298443D01*
X207114287Y-124293450D01*
X207114292Y-124293449D01*
X207199800Y-124276439D01*
X207233497Y-124269737D01*
X207379179Y-124209394D01*
X207510289Y-124121789D01*
X207621789Y-124010289D01*
X207709394Y-123879179D01*
X207769737Y-123733497D01*
X207800500Y-123578842D01*
X207800500Y-123421158D01*
X207800500Y-123421155D01*
X207800499Y-123421153D01*
X207769738Y-123266510D01*
X207769737Y-123266503D01*
X207769735Y-123266498D01*
X207709397Y-123120827D01*
X207709390Y-123120814D01*
X207621789Y-122989711D01*
X207621786Y-122989707D01*
X207510292Y-122878213D01*
X207510288Y-122878210D01*
X207379185Y-122790609D01*
X207379172Y-122790602D01*
X207233501Y-122730264D01*
X207233489Y-122730261D01*
X207078845Y-122699500D01*
X207078842Y-122699500D01*
X206921158Y-122699500D01*
X206921155Y-122699500D01*
X206766510Y-122730261D01*
X206766498Y-122730264D01*
X206620827Y-122790602D01*
X206620814Y-122790609D01*
X206489711Y-122878210D01*
X206489707Y-122878213D01*
X206378213Y-122989707D01*
X206378210Y-122989711D01*
X206290609Y-123120814D01*
X206290602Y-123120827D01*
X206230264Y-123266498D01*
X206230261Y-123266510D01*
X206199500Y-123421153D01*
X183500000Y-123421153D01*
X183500000Y-121921153D01*
X198699500Y-121921153D01*
X198699500Y-122078846D01*
X198730261Y-122233489D01*
X198730264Y-122233501D01*
X198790602Y-122379172D01*
X198790609Y-122379185D01*
X198878210Y-122510288D01*
X198878213Y-122510292D01*
X198989707Y-122621786D01*
X198989711Y-122621789D01*
X199120814Y-122709390D01*
X199120827Y-122709397D01*
X199266498Y-122769735D01*
X199266503Y-122769737D01*
X199421153Y-122800499D01*
X199421156Y-122800500D01*
X199421158Y-122800500D01*
X199578844Y-122800500D01*
X199578845Y-122800499D01*
X199733497Y-122769737D01*
X199879179Y-122709394D01*
X200010289Y-122621789D01*
X200121789Y-122510289D01*
X200209394Y-122379179D01*
X200269737Y-122233497D01*
X200300500Y-122078842D01*
X200300500Y-121921158D01*
X200300500Y-121921155D01*
X200300499Y-121921153D01*
X200269738Y-121766510D01*
X200269737Y-121766503D01*
X200269735Y-121766498D01*
X200209397Y-121620827D01*
X200209390Y-121620814D01*
X200121789Y-121489711D01*
X200121786Y-121489707D01*
X200010292Y-121378213D01*
X200010288Y-121378210D01*
X199879185Y-121290609D01*
X199879172Y-121290602D01*
X199733501Y-121230264D01*
X199733489Y-121230261D01*
X199578845Y-121199500D01*
X199578842Y-121199500D01*
X199421158Y-121199500D01*
X199421155Y-121199500D01*
X199266510Y-121230261D01*
X199266498Y-121230264D01*
X199120827Y-121290602D01*
X199120814Y-121290609D01*
X198989711Y-121378210D01*
X198989707Y-121378213D01*
X198878213Y-121489707D01*
X198878210Y-121489711D01*
X198790609Y-121620814D01*
X198790602Y-121620827D01*
X198730264Y-121766498D01*
X198730261Y-121766510D01*
X198699500Y-121921153D01*
X183500000Y-121921153D01*
X183500000Y-120421153D01*
X215699500Y-120421153D01*
X215699500Y-120578846D01*
X215730261Y-120733489D01*
X215730264Y-120733501D01*
X215790602Y-120879172D01*
X215790609Y-120879185D01*
X215878210Y-121010288D01*
X215878213Y-121010292D01*
X215989707Y-121121786D01*
X215989711Y-121121789D01*
X216120814Y-121209390D01*
X216120827Y-121209397D01*
X216266498Y-121269735D01*
X216266503Y-121269737D01*
X216421153Y-121300499D01*
X216421156Y-121300500D01*
X216421158Y-121300500D01*
X216578844Y-121300500D01*
X216578845Y-121300499D01*
X216733497Y-121269737D01*
X216879179Y-121209394D01*
X217010289Y-121121789D01*
X217121789Y-121010289D01*
X217209394Y-120879179D01*
X217269737Y-120733497D01*
X217300500Y-120578842D01*
X217300500Y-120421158D01*
X217300500Y-120421155D01*
X217300499Y-120421153D01*
X217269738Y-120266510D01*
X217269737Y-120266503D01*
X217209794Y-120121786D01*
X217209397Y-120120827D01*
X217209390Y-120120814D01*
X217121789Y-119989711D01*
X217121786Y-119989707D01*
X217010292Y-119878213D01*
X217010288Y-119878210D01*
X216879185Y-119790609D01*
X216879172Y-119790602D01*
X216733501Y-119730264D01*
X216733489Y-119730261D01*
X216578845Y-119699500D01*
X216578842Y-119699500D01*
X216421158Y-119699500D01*
X216421155Y-119699500D01*
X216266510Y-119730261D01*
X216266498Y-119730264D01*
X216120827Y-119790602D01*
X216120814Y-119790609D01*
X215989711Y-119878210D01*
X215989707Y-119878213D01*
X215878213Y-119989707D01*
X215878210Y-119989711D01*
X215790609Y-120120814D01*
X215790602Y-120120827D01*
X215730264Y-120266498D01*
X215730261Y-120266510D01*
X215699500Y-120421153D01*
X183500000Y-120421153D01*
X183500000Y-119421153D01*
X192699500Y-119421153D01*
X192699500Y-119578846D01*
X192730261Y-119733489D01*
X192730264Y-119733501D01*
X192790602Y-119879172D01*
X192790609Y-119879185D01*
X192878210Y-120010288D01*
X192878213Y-120010292D01*
X192989707Y-120121786D01*
X192989711Y-120121789D01*
X193120814Y-120209390D01*
X193120827Y-120209397D01*
X193258683Y-120266498D01*
X193266503Y-120269737D01*
X193421153Y-120300499D01*
X193421156Y-120300500D01*
X193421158Y-120300500D01*
X193578844Y-120300500D01*
X193578845Y-120300499D01*
X193589179Y-120298443D01*
X193614287Y-120293450D01*
X193614292Y-120293449D01*
X193699800Y-120276439D01*
X193733497Y-120269737D01*
X193879179Y-120209394D01*
X194010289Y-120121789D01*
X194121789Y-120010289D01*
X194209394Y-119879179D01*
X194269737Y-119733497D01*
X194300500Y-119578842D01*
X194300500Y-119421158D01*
X194300500Y-119421155D01*
X194300499Y-119421153D01*
X194269738Y-119266510D01*
X194269737Y-119266503D01*
X194256062Y-119233489D01*
X194209397Y-119120827D01*
X194209390Y-119120814D01*
X194121790Y-118989712D01*
X194121784Y-118989705D01*
X194053232Y-118921153D01*
X197699500Y-118921153D01*
X197699500Y-119078846D01*
X197730261Y-119233489D01*
X197730264Y-119233501D01*
X197790602Y-119379172D01*
X197790609Y-119379185D01*
X197878210Y-119510288D01*
X197878213Y-119510292D01*
X197989707Y-119621786D01*
X197989711Y-119621789D01*
X198120814Y-119709390D01*
X198120827Y-119709397D01*
X198266498Y-119769735D01*
X198266503Y-119769737D01*
X198421153Y-119800499D01*
X198421156Y-119800500D01*
X198421158Y-119800500D01*
X198578844Y-119800500D01*
X198578845Y-119800499D01*
X198733497Y-119769737D01*
X198879179Y-119709394D01*
X199010289Y-119621789D01*
X199121789Y-119510289D01*
X199209394Y-119379179D01*
X199269737Y-119233497D01*
X199300500Y-119078842D01*
X199300500Y-118921158D01*
X199300500Y-118921155D01*
X199300499Y-118921153D01*
X206699500Y-118921153D01*
X206699500Y-119078846D01*
X206730261Y-119233489D01*
X206730264Y-119233501D01*
X206790602Y-119379172D01*
X206790609Y-119379185D01*
X206878210Y-119510288D01*
X206878213Y-119510292D01*
X206989707Y-119621786D01*
X206989711Y-119621789D01*
X207120814Y-119709390D01*
X207120827Y-119709397D01*
X207266498Y-119769735D01*
X207266503Y-119769737D01*
X207421153Y-119800499D01*
X207421156Y-119800500D01*
X207421158Y-119800500D01*
X207578844Y-119800500D01*
X207578845Y-119800499D01*
X207733497Y-119769737D01*
X207879179Y-119709394D01*
X208010289Y-119621789D01*
X208121789Y-119510289D01*
X208209394Y-119379179D01*
X208269737Y-119233497D01*
X208300500Y-119078842D01*
X208300500Y-118921158D01*
X208300500Y-118921155D01*
X208300499Y-118921153D01*
X208274531Y-118790606D01*
X208269737Y-118766503D01*
X208269735Y-118766498D01*
X208209397Y-118620827D01*
X208209390Y-118620814D01*
X208121789Y-118489711D01*
X208121786Y-118489707D01*
X208010292Y-118378213D01*
X208010288Y-118378210D01*
X207879185Y-118290609D01*
X207879172Y-118290602D01*
X207733501Y-118230264D01*
X207733489Y-118230261D01*
X207578845Y-118199500D01*
X207578842Y-118199500D01*
X207421158Y-118199500D01*
X207421155Y-118199500D01*
X207266510Y-118230261D01*
X207266498Y-118230264D01*
X207120827Y-118290602D01*
X207120814Y-118290609D01*
X206989711Y-118378210D01*
X206989707Y-118378213D01*
X206878213Y-118489707D01*
X206878210Y-118489711D01*
X206790609Y-118620814D01*
X206790602Y-118620827D01*
X206730264Y-118766498D01*
X206730261Y-118766510D01*
X206699500Y-118921153D01*
X199300499Y-118921153D01*
X199274531Y-118790606D01*
X199269737Y-118766503D01*
X199269735Y-118766498D01*
X199209397Y-118620827D01*
X199209390Y-118620814D01*
X199121789Y-118489711D01*
X199121786Y-118489707D01*
X199010292Y-118378213D01*
X199010288Y-118378210D01*
X198879185Y-118290609D01*
X198879172Y-118290602D01*
X198733501Y-118230264D01*
X198733489Y-118230261D01*
X198578845Y-118199500D01*
X198578842Y-118199500D01*
X198421158Y-118199500D01*
X198421155Y-118199500D01*
X198266510Y-118230261D01*
X198266498Y-118230264D01*
X198120827Y-118290602D01*
X198120814Y-118290609D01*
X197989711Y-118378210D01*
X197989707Y-118378213D01*
X197878213Y-118489707D01*
X197878210Y-118489711D01*
X197790609Y-118620814D01*
X197790602Y-118620827D01*
X197730264Y-118766498D01*
X197730261Y-118766510D01*
X197699500Y-118921153D01*
X194053232Y-118921153D01*
X194010292Y-118878213D01*
X194010288Y-118878210D01*
X193879185Y-118790609D01*
X193879172Y-118790602D01*
X193733501Y-118730264D01*
X193733489Y-118730261D01*
X193578845Y-118699500D01*
X193578842Y-118699500D01*
X193421158Y-118699500D01*
X193421155Y-118699500D01*
X193266510Y-118730261D01*
X193266498Y-118730264D01*
X193120827Y-118790602D01*
X193120814Y-118790609D01*
X192989711Y-118878210D01*
X192989707Y-118878213D01*
X192878213Y-118989707D01*
X192878210Y-118989711D01*
X192790609Y-119120814D01*
X192790602Y-119120827D01*
X192730264Y-119266498D01*
X192730261Y-119266510D01*
X192699500Y-119421153D01*
X183500000Y-119421153D01*
X183500000Y-117921153D01*
X187699500Y-117921153D01*
X187699500Y-118078846D01*
X187730261Y-118233489D01*
X187730264Y-118233501D01*
X187790602Y-118379172D01*
X187790609Y-118379185D01*
X187878210Y-118510288D01*
X187878213Y-118510292D01*
X187989707Y-118621786D01*
X187989711Y-118621789D01*
X188120814Y-118709390D01*
X188120827Y-118709397D01*
X188258683Y-118766498D01*
X188266503Y-118769737D01*
X188421153Y-118800499D01*
X188421156Y-118800500D01*
X188421158Y-118800500D01*
X188578844Y-118800500D01*
X188578845Y-118800499D01*
X188733497Y-118769737D01*
X188879179Y-118709394D01*
X189010289Y-118621789D01*
X189121789Y-118510289D01*
X189209394Y-118379179D01*
X189269737Y-118233497D01*
X189300500Y-118078842D01*
X189300500Y-117921158D01*
X189300500Y-117921155D01*
X189300499Y-117921153D01*
X189269738Y-117766510D01*
X189269737Y-117766503D01*
X189209794Y-117621786D01*
X189209397Y-117620827D01*
X189209390Y-117620814D01*
X189121789Y-117489711D01*
X189121786Y-117489707D01*
X189010292Y-117378213D01*
X189010288Y-117378210D01*
X188879185Y-117290609D01*
X188879172Y-117290602D01*
X188733501Y-117230264D01*
X188733489Y-117230261D01*
X188578845Y-117199500D01*
X188578842Y-117199500D01*
X188421158Y-117199500D01*
X188421155Y-117199500D01*
X188266510Y-117230261D01*
X188266498Y-117230264D01*
X188120827Y-117290602D01*
X188120814Y-117290609D01*
X187989711Y-117378210D01*
X187989707Y-117378213D01*
X187878213Y-117489707D01*
X187878210Y-117489711D01*
X187790609Y-117620814D01*
X187790602Y-117620827D01*
X187730264Y-117766498D01*
X187730261Y-117766510D01*
X187699500Y-117921153D01*
X183500000Y-117921153D01*
X183500000Y-116921153D01*
X196199500Y-116921153D01*
X196199500Y-117078846D01*
X196230261Y-117233489D01*
X196230264Y-117233501D01*
X196290602Y-117379172D01*
X196290609Y-117379185D01*
X196378210Y-117510288D01*
X196378213Y-117510292D01*
X196489707Y-117621786D01*
X196489711Y-117621789D01*
X196620814Y-117709390D01*
X196620827Y-117709397D01*
X196758683Y-117766498D01*
X196766503Y-117769737D01*
X196921153Y-117800499D01*
X196921156Y-117800500D01*
X196921158Y-117800500D01*
X197078844Y-117800500D01*
X197078845Y-117800499D01*
X197233497Y-117769737D01*
X197379179Y-117709394D01*
X197510289Y-117621789D01*
X197621789Y-117510289D01*
X197709394Y-117379179D01*
X197769737Y-117233497D01*
X197800500Y-117078842D01*
X197800500Y-116921158D01*
X197800500Y-116921155D01*
X197800499Y-116921153D01*
X197769738Y-116766510D01*
X197769737Y-116766503D01*
X197769735Y-116766498D01*
X197709397Y-116620827D01*
X197709390Y-116620814D01*
X197621789Y-116489711D01*
X197621786Y-116489707D01*
X197510292Y-116378213D01*
X197510288Y-116378210D01*
X197379185Y-116290609D01*
X197379172Y-116290602D01*
X197233501Y-116230264D01*
X197233489Y-116230261D01*
X197078845Y-116199500D01*
X197078842Y-116199500D01*
X196921158Y-116199500D01*
X196921155Y-116199500D01*
X196766510Y-116230261D01*
X196766498Y-116230264D01*
X196620827Y-116290602D01*
X196620814Y-116290609D01*
X196489711Y-116378210D01*
X196489707Y-116378213D01*
X196378213Y-116489707D01*
X196378210Y-116489711D01*
X196290609Y-116620814D01*
X196290602Y-116620827D01*
X196230264Y-116766498D01*
X196230261Y-116766510D01*
X196199500Y-116921153D01*
X183500000Y-116921153D01*
X183500000Y-113421153D01*
X192699500Y-113421153D01*
X192699500Y-113578846D01*
X192730261Y-113733489D01*
X192730264Y-113733501D01*
X192790602Y-113879172D01*
X192790609Y-113879185D01*
X192878210Y-114010288D01*
X192878213Y-114010292D01*
X192989707Y-114121786D01*
X192989711Y-114121789D01*
X193120814Y-114209390D01*
X193120827Y-114209397D01*
X193266498Y-114269735D01*
X193266503Y-114269737D01*
X193421153Y-114300499D01*
X193421156Y-114300500D01*
X193421158Y-114300500D01*
X193578844Y-114300500D01*
X193578845Y-114300499D01*
X193733497Y-114269737D01*
X193879179Y-114209394D01*
X194010289Y-114121789D01*
X194121789Y-114010289D01*
X194209394Y-113879179D01*
X194269737Y-113733497D01*
X194300500Y-113578842D01*
X194300500Y-113421158D01*
X194300500Y-113421155D01*
X194300499Y-113421153D01*
X194269738Y-113266510D01*
X194269737Y-113266503D01*
X194269735Y-113266498D01*
X194209397Y-113120827D01*
X194209390Y-113120814D01*
X194121789Y-112989711D01*
X194121786Y-112989707D01*
X194010292Y-112878213D01*
X194010288Y-112878210D01*
X193879185Y-112790609D01*
X193879172Y-112790602D01*
X193733501Y-112730264D01*
X193733489Y-112730261D01*
X193578845Y-112699500D01*
X193578842Y-112699500D01*
X193421158Y-112699500D01*
X193421155Y-112699500D01*
X193266510Y-112730261D01*
X193266498Y-112730264D01*
X193120827Y-112790602D01*
X193120814Y-112790609D01*
X192989711Y-112878210D01*
X192989707Y-112878213D01*
X192878213Y-112989707D01*
X192878210Y-112989711D01*
X192790609Y-113120814D01*
X192790602Y-113120827D01*
X192730264Y-113266498D01*
X192730261Y-113266510D01*
X192699500Y-113421153D01*
X183500000Y-113421153D01*
X183500000Y-111921153D01*
X187699500Y-111921153D01*
X187699500Y-112078846D01*
X187730261Y-112233489D01*
X187730264Y-112233501D01*
X187790602Y-112379172D01*
X187790609Y-112379185D01*
X187878210Y-112510288D01*
X187878213Y-112510292D01*
X187989707Y-112621786D01*
X187989711Y-112621789D01*
X188120814Y-112709390D01*
X188120827Y-112709397D01*
X188266498Y-112769735D01*
X188266503Y-112769737D01*
X188421153Y-112800499D01*
X188421156Y-112800500D01*
X188421158Y-112800500D01*
X188578844Y-112800500D01*
X188578845Y-112800499D01*
X188733497Y-112769737D01*
X188879179Y-112709394D01*
X189010289Y-112621789D01*
X189121789Y-112510289D01*
X189209394Y-112379179D01*
X189269737Y-112233497D01*
X189300500Y-112078842D01*
X189300500Y-111921158D01*
X189300500Y-111921155D01*
X189300499Y-111921153D01*
X214699500Y-111921153D01*
X214699500Y-112078846D01*
X214730261Y-112233489D01*
X214730264Y-112233501D01*
X214790602Y-112379172D01*
X214790609Y-112379185D01*
X214878210Y-112510288D01*
X214878213Y-112510292D01*
X214989707Y-112621786D01*
X214989711Y-112621789D01*
X215120814Y-112709390D01*
X215120827Y-112709397D01*
X215266498Y-112769735D01*
X215266503Y-112769737D01*
X215421153Y-112800499D01*
X215421156Y-112800500D01*
X215421158Y-112800500D01*
X215578844Y-112800500D01*
X215578845Y-112800499D01*
X215733497Y-112769737D01*
X215879179Y-112709394D01*
X216010289Y-112621789D01*
X216121789Y-112510289D01*
X216209394Y-112379179D01*
X216269737Y-112233497D01*
X216300500Y-112078842D01*
X216300500Y-111924500D01*
X216320185Y-111857461D01*
X216372989Y-111811706D01*
X216424500Y-111800500D01*
X216578844Y-111800500D01*
X216578845Y-111800499D01*
X216733497Y-111769737D01*
X216879179Y-111709394D01*
X217010289Y-111621789D01*
X217121789Y-111510289D01*
X217209394Y-111379179D01*
X217269737Y-111233497D01*
X217300500Y-111078842D01*
X217300500Y-110921158D01*
X217300500Y-110921155D01*
X217300499Y-110921153D01*
X217269738Y-110766510D01*
X217269737Y-110766503D01*
X217269735Y-110766498D01*
X217209397Y-110620827D01*
X217209390Y-110620814D01*
X217121789Y-110489711D01*
X217121786Y-110489707D01*
X217010292Y-110378213D01*
X217010288Y-110378210D01*
X216879185Y-110290609D01*
X216879172Y-110290602D01*
X216733501Y-110230264D01*
X216733489Y-110230261D01*
X216578845Y-110199500D01*
X216578842Y-110199500D01*
X216421158Y-110199500D01*
X216421155Y-110199500D01*
X216266510Y-110230261D01*
X216266498Y-110230264D01*
X216120827Y-110290602D01*
X216120814Y-110290609D01*
X215989711Y-110378210D01*
X215989707Y-110378213D01*
X215878213Y-110489707D01*
X215878210Y-110489711D01*
X215790609Y-110620814D01*
X215790602Y-110620827D01*
X215730264Y-110766498D01*
X215730261Y-110766510D01*
X215699500Y-110921153D01*
X215699500Y-111075500D01*
X215679815Y-111142539D01*
X215627011Y-111188294D01*
X215575500Y-111199500D01*
X215421155Y-111199500D01*
X215266510Y-111230261D01*
X215266498Y-111230264D01*
X215120827Y-111290602D01*
X215120814Y-111290609D01*
X214989711Y-111378210D01*
X214989707Y-111378213D01*
X214878213Y-111489707D01*
X214878210Y-111489711D01*
X214790609Y-111620814D01*
X214790602Y-111620827D01*
X214730264Y-111766498D01*
X214730261Y-111766510D01*
X214699500Y-111921153D01*
X189300499Y-111921153D01*
X189269738Y-111766510D01*
X189269737Y-111766503D01*
X189209794Y-111621786D01*
X189209397Y-111620827D01*
X189209390Y-111620814D01*
X189121789Y-111489711D01*
X189121786Y-111489707D01*
X189010292Y-111378213D01*
X189010288Y-111378210D01*
X188879185Y-111290609D01*
X188879172Y-111290602D01*
X188733501Y-111230264D01*
X188733489Y-111230261D01*
X188578845Y-111199500D01*
X188578842Y-111199500D01*
X188421158Y-111199500D01*
X188421155Y-111199500D01*
X188266510Y-111230261D01*
X188266498Y-111230264D01*
X188120827Y-111290602D01*
X188120814Y-111290609D01*
X187989711Y-111378210D01*
X187989707Y-111378213D01*
X187878213Y-111489707D01*
X187878210Y-111489711D01*
X187790609Y-111620814D01*
X187790602Y-111620827D01*
X187730264Y-111766498D01*
X187730261Y-111766510D01*
X187699500Y-111921153D01*
X183500000Y-111921153D01*
X183500000Y-108321153D01*
X201699500Y-108321153D01*
X201699500Y-108478846D01*
X201730261Y-108633489D01*
X201730264Y-108633501D01*
X201790602Y-108779172D01*
X201790609Y-108779185D01*
X201878210Y-108910288D01*
X201878213Y-108910292D01*
X201989707Y-109021786D01*
X201989711Y-109021789D01*
X202120814Y-109109390D01*
X202120827Y-109109397D01*
X202266498Y-109169735D01*
X202266503Y-109169737D01*
X202421153Y-109200499D01*
X202421156Y-109200500D01*
X202421158Y-109200500D01*
X202578844Y-109200500D01*
X202578845Y-109200499D01*
X202733497Y-109169737D01*
X202879179Y-109109394D01*
X203010289Y-109021789D01*
X203021790Y-109010288D01*
X203126097Y-108905982D01*
X203127414Y-108907299D01*
X203177949Y-108872859D01*
X203247793Y-108870970D01*
X203307571Y-108907142D01*
X203319189Y-108921957D01*
X203378210Y-109010288D01*
X203378213Y-109010292D01*
X203489707Y-109121786D01*
X203489711Y-109121789D01*
X203620814Y-109209390D01*
X203620827Y-109209397D01*
X203766498Y-109269735D01*
X203766503Y-109269737D01*
X203921153Y-109300499D01*
X203921156Y-109300500D01*
X203921158Y-109300500D01*
X204078844Y-109300500D01*
X204078845Y-109300499D01*
X204233497Y-109269737D01*
X204379179Y-109209394D01*
X204510289Y-109121789D01*
X204621789Y-109010289D01*
X204709394Y-108879179D01*
X204769737Y-108733497D01*
X204800500Y-108578842D01*
X204800500Y-108421158D01*
X204800500Y-108421155D01*
X204800499Y-108421153D01*
X204769737Y-108266503D01*
X204709794Y-108121786D01*
X204709397Y-108120827D01*
X204709390Y-108120814D01*
X204621789Y-107989711D01*
X204621786Y-107989707D01*
X204510292Y-107878213D01*
X204510288Y-107878210D01*
X204379185Y-107790609D01*
X204379172Y-107790602D01*
X204233501Y-107730264D01*
X204233489Y-107730261D01*
X204078845Y-107699500D01*
X204078842Y-107699500D01*
X203921158Y-107699500D01*
X203921155Y-107699500D01*
X203766510Y-107730261D01*
X203766498Y-107730264D01*
X203620827Y-107790602D01*
X203620814Y-107790609D01*
X203489711Y-107878210D01*
X203489707Y-107878213D01*
X203373903Y-107994018D01*
X203372591Y-107992706D01*
X203322004Y-108027155D01*
X203252159Y-108029017D01*
X203192396Y-107992822D01*
X203180810Y-107978042D01*
X203121789Y-107889710D01*
X203010292Y-107778213D01*
X203010288Y-107778210D01*
X202879185Y-107690609D01*
X202879172Y-107690602D01*
X202733501Y-107630264D01*
X202733489Y-107630261D01*
X202578845Y-107599500D01*
X202578842Y-107599500D01*
X202421158Y-107599500D01*
X202421155Y-107599500D01*
X202266510Y-107630261D01*
X202266498Y-107630264D01*
X202120827Y-107690602D01*
X202120814Y-107690609D01*
X201989711Y-107778210D01*
X201989707Y-107778213D01*
X201878213Y-107889707D01*
X201878210Y-107889711D01*
X201790609Y-108020814D01*
X201790602Y-108020827D01*
X201730264Y-108166498D01*
X201730261Y-108166510D01*
X201699500Y-108321153D01*
X183500000Y-108321153D01*
X183500000Y-107421153D01*
X192699500Y-107421153D01*
X192699500Y-107578846D01*
X192730261Y-107733489D01*
X192730264Y-107733501D01*
X192790602Y-107879172D01*
X192790609Y-107879185D01*
X192878210Y-108010288D01*
X192878213Y-108010292D01*
X192989707Y-108121786D01*
X192989711Y-108121789D01*
X193120814Y-108209390D01*
X193120827Y-108209397D01*
X193258683Y-108266498D01*
X193266503Y-108269737D01*
X193421153Y-108300499D01*
X193421156Y-108300500D01*
X193421158Y-108300500D01*
X193578844Y-108300500D01*
X193578845Y-108300499D01*
X193733497Y-108269737D01*
X193879179Y-108209394D01*
X194010289Y-108121789D01*
X194121789Y-108010289D01*
X194209394Y-107879179D01*
X194269737Y-107733497D01*
X194300500Y-107578842D01*
X194300500Y-107421158D01*
X194300500Y-107421155D01*
X194300499Y-107421153D01*
X194269738Y-107266510D01*
X194269737Y-107266503D01*
X194209794Y-107121786D01*
X194209397Y-107120827D01*
X194209390Y-107120814D01*
X194121789Y-106989711D01*
X194121786Y-106989707D01*
X194010292Y-106878213D01*
X194010288Y-106878210D01*
X193879185Y-106790609D01*
X193879172Y-106790602D01*
X193733501Y-106730264D01*
X193733489Y-106730261D01*
X193578845Y-106699500D01*
X193578842Y-106699500D01*
X193421158Y-106699500D01*
X193421155Y-106699500D01*
X193266510Y-106730261D01*
X193266498Y-106730264D01*
X193120827Y-106790602D01*
X193120814Y-106790609D01*
X192989711Y-106878210D01*
X192989707Y-106878213D01*
X192878213Y-106989707D01*
X192878210Y-106989711D01*
X192790609Y-107120814D01*
X192790602Y-107120827D01*
X192730264Y-107266498D01*
X192730261Y-107266510D01*
X192699500Y-107421153D01*
X183500000Y-107421153D01*
X183500000Y-105921153D01*
X187699500Y-105921153D01*
X187699500Y-106078846D01*
X187730261Y-106233489D01*
X187730264Y-106233501D01*
X187790602Y-106379172D01*
X187790609Y-106379185D01*
X187878210Y-106510288D01*
X187878213Y-106510292D01*
X187989707Y-106621786D01*
X187989711Y-106621789D01*
X188120814Y-106709390D01*
X188120827Y-106709397D01*
X188266498Y-106769735D01*
X188266503Y-106769737D01*
X188421153Y-106800499D01*
X188421156Y-106800500D01*
X188421158Y-106800500D01*
X188578844Y-106800500D01*
X188578845Y-106800499D01*
X188733497Y-106769737D01*
X188879179Y-106709394D01*
X189010289Y-106621789D01*
X189121789Y-106510289D01*
X189181348Y-106421153D01*
X206699500Y-106421153D01*
X206699500Y-106578846D01*
X206730261Y-106733489D01*
X206730264Y-106733501D01*
X206790602Y-106879172D01*
X206790609Y-106879185D01*
X206878210Y-107010288D01*
X206878213Y-107010292D01*
X206989707Y-107121786D01*
X206989711Y-107121789D01*
X207120814Y-107209390D01*
X207120827Y-107209397D01*
X207258683Y-107266498D01*
X207266503Y-107269737D01*
X207421153Y-107300499D01*
X207421156Y-107300500D01*
X207421158Y-107300500D01*
X207578844Y-107300500D01*
X207578845Y-107300499D01*
X207733497Y-107269737D01*
X207879179Y-107209394D01*
X208010289Y-107121789D01*
X208121789Y-107010289D01*
X208209394Y-106879179D01*
X208269737Y-106733497D01*
X208300500Y-106578842D01*
X208300500Y-106421158D01*
X208300500Y-106421155D01*
X208300499Y-106421153D01*
X217199500Y-106421153D01*
X217199500Y-106578846D01*
X217230261Y-106733489D01*
X217230264Y-106733501D01*
X217290602Y-106879172D01*
X217290609Y-106879185D01*
X217378210Y-107010288D01*
X217378213Y-107010292D01*
X217489707Y-107121786D01*
X217489711Y-107121789D01*
X217620814Y-107209390D01*
X217620827Y-107209397D01*
X217758683Y-107266498D01*
X217766503Y-107269737D01*
X217921153Y-107300499D01*
X217921156Y-107300500D01*
X217921158Y-107300500D01*
X218078844Y-107300500D01*
X218078845Y-107300499D01*
X218233497Y-107269737D01*
X218379179Y-107209394D01*
X218510289Y-107121789D01*
X218621789Y-107010289D01*
X218709394Y-106879179D01*
X218769737Y-106733497D01*
X218800500Y-106578842D01*
X218800500Y-106421158D01*
X218800500Y-106421155D01*
X218800499Y-106421153D01*
X218769738Y-106266510D01*
X218769737Y-106266503D01*
X218756062Y-106233489D01*
X218709397Y-106120827D01*
X218709390Y-106120814D01*
X218621789Y-105989711D01*
X218621786Y-105989707D01*
X218510292Y-105878213D01*
X218510288Y-105878210D01*
X218379185Y-105790609D01*
X218379172Y-105790602D01*
X218233501Y-105730264D01*
X218233489Y-105730261D01*
X218078845Y-105699500D01*
X218078842Y-105699500D01*
X217921158Y-105699500D01*
X217921155Y-105699500D01*
X217766510Y-105730261D01*
X217766498Y-105730264D01*
X217620827Y-105790602D01*
X217620814Y-105790609D01*
X217489711Y-105878210D01*
X217489707Y-105878213D01*
X217378213Y-105989707D01*
X217378210Y-105989711D01*
X217290609Y-106120814D01*
X217290602Y-106120827D01*
X217230264Y-106266498D01*
X217230261Y-106266510D01*
X217199500Y-106421153D01*
X208300499Y-106421153D01*
X208269738Y-106266510D01*
X208269737Y-106266503D01*
X208256062Y-106233489D01*
X208209397Y-106120827D01*
X208209390Y-106120814D01*
X208121789Y-105989711D01*
X208121786Y-105989707D01*
X208010292Y-105878213D01*
X208010288Y-105878210D01*
X207879185Y-105790609D01*
X207879172Y-105790602D01*
X207733501Y-105730264D01*
X207733489Y-105730261D01*
X207578845Y-105699500D01*
X207578842Y-105699500D01*
X207421158Y-105699500D01*
X207421155Y-105699500D01*
X207266510Y-105730261D01*
X207266498Y-105730264D01*
X207120827Y-105790602D01*
X207120814Y-105790609D01*
X206989711Y-105878210D01*
X206989707Y-105878213D01*
X206878213Y-105989707D01*
X206878210Y-105989711D01*
X206790609Y-106120814D01*
X206790602Y-106120827D01*
X206730264Y-106266498D01*
X206730261Y-106266510D01*
X206699500Y-106421153D01*
X189181348Y-106421153D01*
X189209394Y-106379179D01*
X189269737Y-106233497D01*
X189300500Y-106078842D01*
X189300500Y-105921158D01*
X189300500Y-105921155D01*
X189300499Y-105921153D01*
X189274531Y-105790606D01*
X189269737Y-105766503D01*
X189269735Y-105766498D01*
X189209397Y-105620827D01*
X189209390Y-105620814D01*
X189121789Y-105489711D01*
X189121786Y-105489707D01*
X189010292Y-105378213D01*
X189010288Y-105378210D01*
X188879185Y-105290609D01*
X188879172Y-105290602D01*
X188733501Y-105230264D01*
X188733489Y-105230261D01*
X188578845Y-105199500D01*
X188578842Y-105199500D01*
X188421158Y-105199500D01*
X188421155Y-105199500D01*
X188266510Y-105230261D01*
X188266498Y-105230264D01*
X188120827Y-105290602D01*
X188120814Y-105290609D01*
X187989711Y-105378210D01*
X187989707Y-105378213D01*
X187878213Y-105489707D01*
X187878210Y-105489711D01*
X187790609Y-105620814D01*
X187790602Y-105620827D01*
X187730264Y-105766498D01*
X187730261Y-105766510D01*
X187699500Y-105921153D01*
X183500000Y-105921153D01*
X183500000Y-101921153D01*
X192699500Y-101921153D01*
X192699500Y-102078846D01*
X192730261Y-102233489D01*
X192730264Y-102233501D01*
X192790602Y-102379172D01*
X192790609Y-102379185D01*
X192878210Y-102510288D01*
X192878213Y-102510292D01*
X192989707Y-102621786D01*
X192989711Y-102621789D01*
X193120814Y-102709390D01*
X193120827Y-102709397D01*
X193258683Y-102766498D01*
X193266503Y-102769737D01*
X193421153Y-102800499D01*
X193421156Y-102800500D01*
X193421158Y-102800500D01*
X193578844Y-102800500D01*
X193578845Y-102800499D01*
X193733497Y-102769737D01*
X193879179Y-102709394D01*
X194010289Y-102621789D01*
X194121789Y-102510289D01*
X194209394Y-102379179D01*
X194269737Y-102233497D01*
X194300500Y-102078842D01*
X194300500Y-101921158D01*
X194300500Y-101921155D01*
X194300499Y-101921153D01*
X194274531Y-101790606D01*
X194269737Y-101766503D01*
X194256062Y-101733489D01*
X194209397Y-101620827D01*
X194209390Y-101620814D01*
X194121789Y-101489711D01*
X194121786Y-101489707D01*
X194010292Y-101378213D01*
X194010288Y-101378210D01*
X193879185Y-101290609D01*
X193879172Y-101290602D01*
X193733501Y-101230264D01*
X193733489Y-101230261D01*
X193578845Y-101199500D01*
X193578842Y-101199500D01*
X193421158Y-101199500D01*
X193421155Y-101199500D01*
X193266510Y-101230261D01*
X193266498Y-101230264D01*
X193120827Y-101290602D01*
X193120814Y-101290609D01*
X192989711Y-101378210D01*
X192989707Y-101378213D01*
X192878213Y-101489707D01*
X192878210Y-101489711D01*
X192790609Y-101620814D01*
X192790602Y-101620827D01*
X192730264Y-101766498D01*
X192730261Y-101766510D01*
X192699500Y-101921153D01*
X183500000Y-101921153D01*
X183500000Y-100421153D01*
X187699500Y-100421153D01*
X187699500Y-100578846D01*
X187730261Y-100733489D01*
X187730264Y-100733501D01*
X187790602Y-100879172D01*
X187790609Y-100879185D01*
X187878210Y-101010288D01*
X187878213Y-101010292D01*
X187989707Y-101121786D01*
X187989711Y-101121789D01*
X188120814Y-101209390D01*
X188120827Y-101209397D01*
X188215594Y-101248650D01*
X188266503Y-101269737D01*
X188421153Y-101300499D01*
X188421156Y-101300500D01*
X188421158Y-101300500D01*
X188578844Y-101300500D01*
X188578845Y-101300499D01*
X188733497Y-101269737D01*
X188879179Y-101209394D01*
X189010289Y-101121789D01*
X189121789Y-101010289D01*
X189209394Y-100879179D01*
X189269737Y-100733497D01*
X189300500Y-100578842D01*
X189300500Y-100421158D01*
X189300500Y-100421155D01*
X189300499Y-100421153D01*
X189276499Y-100300499D01*
X189269737Y-100266503D01*
X189256062Y-100233489D01*
X189209397Y-100120827D01*
X189209390Y-100120814D01*
X189121790Y-99989712D01*
X189121784Y-99989705D01*
X189053232Y-99921153D01*
X204699500Y-99921153D01*
X204699500Y-100078846D01*
X204730261Y-100233489D01*
X204730264Y-100233501D01*
X204790602Y-100379172D01*
X204790609Y-100379185D01*
X204825304Y-100431109D01*
X204846182Y-100497786D01*
X204827698Y-100565167D01*
X204825304Y-100568891D01*
X204790609Y-100620814D01*
X204790602Y-100620827D01*
X204730264Y-100766498D01*
X204730261Y-100766510D01*
X204699500Y-100921153D01*
X204699500Y-101078846D01*
X204730261Y-101233489D01*
X204730264Y-101233501D01*
X204790602Y-101379172D01*
X204790609Y-101379185D01*
X204825304Y-101431109D01*
X204846182Y-101497786D01*
X204827698Y-101565167D01*
X204825304Y-101568891D01*
X204790609Y-101620814D01*
X204790602Y-101620827D01*
X204730264Y-101766498D01*
X204730261Y-101766510D01*
X204699500Y-101921153D01*
X204699500Y-102078846D01*
X204730261Y-102233489D01*
X204730264Y-102233501D01*
X204790602Y-102379172D01*
X204790609Y-102379185D01*
X204825304Y-102431109D01*
X204846182Y-102497786D01*
X204827698Y-102565167D01*
X204825304Y-102568891D01*
X204790609Y-102620814D01*
X204790602Y-102620827D01*
X204730264Y-102766498D01*
X204730261Y-102766510D01*
X204699500Y-102921153D01*
X204699500Y-103078846D01*
X204730261Y-103233489D01*
X204730264Y-103233501D01*
X204790602Y-103379172D01*
X204790609Y-103379185D01*
X204825304Y-103431109D01*
X204846182Y-103497786D01*
X204827698Y-103565167D01*
X204825304Y-103568891D01*
X204790609Y-103620814D01*
X204790602Y-103620827D01*
X204730264Y-103766498D01*
X204730261Y-103766510D01*
X204699500Y-103921153D01*
X204699500Y-104078846D01*
X204730261Y-104233489D01*
X204730264Y-104233501D01*
X204790602Y-104379172D01*
X204790609Y-104379185D01*
X204825304Y-104431109D01*
X204846182Y-104497786D01*
X204827698Y-104565167D01*
X204825304Y-104568891D01*
X204790609Y-104620814D01*
X204790602Y-104620827D01*
X204730264Y-104766498D01*
X204730261Y-104766510D01*
X204699500Y-104921153D01*
X204699500Y-105078846D01*
X204730261Y-105233489D01*
X204730264Y-105233501D01*
X204790602Y-105379172D01*
X204790609Y-105379185D01*
X204878210Y-105510288D01*
X204878213Y-105510292D01*
X204989707Y-105621786D01*
X204989711Y-105621789D01*
X205120814Y-105709390D01*
X205120827Y-105709397D01*
X205258683Y-105766498D01*
X205266503Y-105769737D01*
X205421153Y-105800499D01*
X205421156Y-105800500D01*
X205421158Y-105800500D01*
X205578844Y-105800500D01*
X205578845Y-105800499D01*
X205733497Y-105769737D01*
X205879179Y-105709394D01*
X206010289Y-105621789D01*
X206121789Y-105510289D01*
X206209394Y-105379179D01*
X206269737Y-105233497D01*
X206300500Y-105078842D01*
X206300500Y-104921158D01*
X206300500Y-104921155D01*
X206300499Y-104921153D01*
X206292148Y-104879172D01*
X206269737Y-104766503D01*
X206256062Y-104733489D01*
X206209396Y-104620825D01*
X206209394Y-104620822D01*
X206209394Y-104620821D01*
X206174694Y-104568889D01*
X206153816Y-104502215D01*
X206172300Y-104434835D01*
X206174676Y-104431136D01*
X206181347Y-104421153D01*
X209699500Y-104421153D01*
X209699500Y-104578846D01*
X209730261Y-104733489D01*
X209730264Y-104733501D01*
X209790602Y-104879172D01*
X209790609Y-104879185D01*
X209878210Y-105010288D01*
X209878213Y-105010292D01*
X209989707Y-105121786D01*
X209989711Y-105121789D01*
X210120814Y-105209390D01*
X210120827Y-105209397D01*
X210266498Y-105269735D01*
X210266503Y-105269737D01*
X210421153Y-105300499D01*
X210421156Y-105300500D01*
X210421158Y-105300500D01*
X210578844Y-105300500D01*
X210578845Y-105300499D01*
X210733497Y-105269737D01*
X210879179Y-105209394D01*
X211010289Y-105121789D01*
X211121789Y-105010289D01*
X211129145Y-104999279D01*
X211146898Y-104972712D01*
X211200510Y-104927906D01*
X211269835Y-104919199D01*
X211332862Y-104949353D01*
X211353102Y-104972712D01*
X211378207Y-105010284D01*
X211378213Y-105010292D01*
X211489707Y-105121786D01*
X211489711Y-105121789D01*
X211620814Y-105209390D01*
X211620827Y-105209397D01*
X211766498Y-105269735D01*
X211766503Y-105269737D01*
X211921153Y-105300499D01*
X211921156Y-105300500D01*
X211921158Y-105300500D01*
X212078844Y-105300500D01*
X212078845Y-105300499D01*
X212233497Y-105269737D01*
X212379179Y-105209394D01*
X212510289Y-105121789D01*
X212621789Y-105010289D01*
X212709394Y-104879179D01*
X212769737Y-104733497D01*
X212800500Y-104578842D01*
X212800500Y-104421158D01*
X212800500Y-104421155D01*
X212800499Y-104421153D01*
X212769738Y-104266510D01*
X212769737Y-104266503D01*
X212709794Y-104121786D01*
X212709397Y-104120827D01*
X212709390Y-104120814D01*
X212621789Y-103989711D01*
X212621786Y-103989707D01*
X212510292Y-103878213D01*
X212510288Y-103878210D01*
X212379185Y-103790609D01*
X212379172Y-103790602D01*
X212233501Y-103730264D01*
X212233489Y-103730261D01*
X212078845Y-103699500D01*
X212078842Y-103699500D01*
X211921158Y-103699500D01*
X211921155Y-103699500D01*
X211766510Y-103730261D01*
X211766498Y-103730264D01*
X211620827Y-103790602D01*
X211620814Y-103790609D01*
X211489711Y-103878210D01*
X211489707Y-103878213D01*
X211378213Y-103989707D01*
X211353102Y-104027289D01*
X211299489Y-104072093D01*
X211230164Y-104080800D01*
X211167137Y-104050645D01*
X211146898Y-104027289D01*
X211121786Y-103989707D01*
X211010292Y-103878213D01*
X211010288Y-103878210D01*
X210879185Y-103790609D01*
X210879172Y-103790602D01*
X210733501Y-103730264D01*
X210733489Y-103730261D01*
X210578845Y-103699500D01*
X210578842Y-103699500D01*
X210421158Y-103699500D01*
X210421155Y-103699500D01*
X210266510Y-103730261D01*
X210266498Y-103730264D01*
X210120827Y-103790602D01*
X210120814Y-103790609D01*
X209989711Y-103878210D01*
X209989707Y-103878213D01*
X209878213Y-103989707D01*
X209878210Y-103989711D01*
X209790609Y-104120814D01*
X209790602Y-104120827D01*
X209730264Y-104266498D01*
X209730261Y-104266510D01*
X209699500Y-104421153D01*
X206181347Y-104421153D01*
X206209394Y-104379179D01*
X206269737Y-104233497D01*
X206300500Y-104078842D01*
X206300500Y-103921158D01*
X206300500Y-103921155D01*
X206300499Y-103921153D01*
X206274531Y-103790606D01*
X206269737Y-103766503D01*
X206256062Y-103733489D01*
X206209396Y-103620825D01*
X206209394Y-103620822D01*
X206209394Y-103620821D01*
X206174694Y-103568889D01*
X206153816Y-103502215D01*
X206172300Y-103434835D01*
X206174676Y-103431136D01*
X206209394Y-103379179D01*
X206269737Y-103233497D01*
X206300500Y-103078842D01*
X206300500Y-102921158D01*
X206300500Y-102921155D01*
X206300499Y-102921153D01*
X206269738Y-102766510D01*
X206269737Y-102766503D01*
X206209794Y-102621786D01*
X206209396Y-102620825D01*
X206209394Y-102620822D01*
X206209394Y-102620821D01*
X206174694Y-102568889D01*
X206169603Y-102552632D01*
X206159954Y-102538590D01*
X206159379Y-102519981D01*
X206153816Y-102502215D01*
X206158311Y-102485400D01*
X206157797Y-102468754D01*
X206170072Y-102441406D01*
X206171461Y-102436212D01*
X206173003Y-102433640D01*
X206181347Y-102421153D01*
X208099500Y-102421153D01*
X208099500Y-102578846D01*
X208130261Y-102733489D01*
X208130264Y-102733501D01*
X208190602Y-102879172D01*
X208190609Y-102879185D01*
X208225304Y-102931109D01*
X208246182Y-102997786D01*
X208227698Y-103065167D01*
X208225304Y-103068891D01*
X208190609Y-103120814D01*
X208190602Y-103120827D01*
X208130264Y-103266498D01*
X208130261Y-103266510D01*
X208099500Y-103421153D01*
X208099500Y-103578846D01*
X208130261Y-103733489D01*
X208130264Y-103733501D01*
X208190602Y-103879172D01*
X208190609Y-103879185D01*
X208278210Y-104010288D01*
X208278213Y-104010292D01*
X208389707Y-104121786D01*
X208389711Y-104121789D01*
X208520814Y-104209390D01*
X208520827Y-104209397D01*
X208658683Y-104266498D01*
X208666503Y-104269737D01*
X208821153Y-104300499D01*
X208821156Y-104300500D01*
X208821158Y-104300500D01*
X208978844Y-104300500D01*
X208978845Y-104300499D01*
X208989179Y-104298443D01*
X209014287Y-104293450D01*
X209014292Y-104293449D01*
X209099800Y-104276439D01*
X209133497Y-104269737D01*
X209279179Y-104209394D01*
X209410289Y-104121789D01*
X209521789Y-104010289D01*
X209609394Y-103879179D01*
X209669737Y-103733497D01*
X209700500Y-103578842D01*
X209700500Y-103421158D01*
X209700500Y-103421155D01*
X209700499Y-103421153D01*
X209669738Y-103266510D01*
X209669737Y-103266503D01*
X209656062Y-103233489D01*
X209609396Y-103120825D01*
X209609394Y-103120822D01*
X209609394Y-103120821D01*
X209574694Y-103068889D01*
X209553816Y-103002215D01*
X209572300Y-102934835D01*
X209574676Y-102931136D01*
X209609394Y-102879179D01*
X209669737Y-102733497D01*
X209700500Y-102578842D01*
X209700500Y-102421158D01*
X209700500Y-102421155D01*
X209700499Y-102421153D01*
X209669738Y-102266510D01*
X209669737Y-102266503D01*
X209609794Y-102121786D01*
X209609397Y-102120827D01*
X209609390Y-102120814D01*
X209521789Y-101989711D01*
X209521786Y-101989707D01*
X209410292Y-101878213D01*
X209410288Y-101878210D01*
X209279185Y-101790609D01*
X209279172Y-101790602D01*
X209133501Y-101730264D01*
X209133489Y-101730261D01*
X208978845Y-101699500D01*
X208978842Y-101699500D01*
X208821158Y-101699500D01*
X208821155Y-101699500D01*
X208666510Y-101730261D01*
X208666498Y-101730264D01*
X208520827Y-101790602D01*
X208520814Y-101790609D01*
X208389711Y-101878210D01*
X208389707Y-101878213D01*
X208278213Y-101989707D01*
X208278210Y-101989711D01*
X208190609Y-102120814D01*
X208190602Y-102120827D01*
X208130264Y-102266498D01*
X208130261Y-102266510D01*
X208099500Y-102421153D01*
X206181347Y-102421153D01*
X206209394Y-102379179D01*
X206269737Y-102233497D01*
X206300500Y-102078842D01*
X206300500Y-101921158D01*
X206300500Y-101921155D01*
X206300499Y-101921153D01*
X206274531Y-101790606D01*
X206269737Y-101766503D01*
X206256062Y-101733489D01*
X206209396Y-101620825D01*
X206209394Y-101620822D01*
X206209394Y-101620821D01*
X206174694Y-101568889D01*
X206153816Y-101502215D01*
X206172300Y-101434835D01*
X206174676Y-101431136D01*
X206209394Y-101379179D01*
X206269737Y-101233497D01*
X206300500Y-101078842D01*
X206300500Y-100921158D01*
X206300500Y-100921155D01*
X206300499Y-100921153D01*
X206274531Y-100790606D01*
X206269737Y-100766503D01*
X206256062Y-100733489D01*
X206209396Y-100620825D01*
X206209394Y-100620822D01*
X206209394Y-100620821D01*
X206174694Y-100568889D01*
X206153816Y-100502215D01*
X206172300Y-100434835D01*
X206174676Y-100431136D01*
X206209394Y-100379179D01*
X206269737Y-100233497D01*
X206300500Y-100078842D01*
X206300500Y-99921158D01*
X206300500Y-99921155D01*
X206300499Y-99921153D01*
X206274531Y-99790606D01*
X206269737Y-99766503D01*
X206269735Y-99766498D01*
X206209397Y-99620827D01*
X206209390Y-99620814D01*
X206129618Y-99501427D01*
X206129617Y-99501426D01*
X206121791Y-99489713D01*
X206121786Y-99489707D01*
X206070702Y-99438623D01*
X208099500Y-99438623D01*
X208099500Y-99596316D01*
X208130261Y-99750959D01*
X208130264Y-99750971D01*
X208190602Y-99896642D01*
X208190609Y-99896655D01*
X208278210Y-100027758D01*
X208278213Y-100027762D01*
X208389707Y-100139256D01*
X208389711Y-100139259D01*
X208520814Y-100226860D01*
X208520827Y-100226867D01*
X208666498Y-100287205D01*
X208666503Y-100287207D01*
X208776987Y-100309183D01*
X208799691Y-100313700D01*
X208861602Y-100346085D01*
X208896176Y-100406800D01*
X208899500Y-100435317D01*
X208899500Y-100578846D01*
X208930261Y-100733489D01*
X208930264Y-100733501D01*
X208990602Y-100879172D01*
X208990609Y-100879185D01*
X209078210Y-101010288D01*
X209078213Y-101010292D01*
X209189707Y-101121786D01*
X209189711Y-101121789D01*
X209320814Y-101209390D01*
X209320827Y-101209397D01*
X209415594Y-101248650D01*
X209466503Y-101269737D01*
X209621153Y-101300499D01*
X209621156Y-101300500D01*
X209621158Y-101300500D01*
X209778844Y-101300500D01*
X209778845Y-101300499D01*
X209933497Y-101269737D01*
X209985933Y-101248017D01*
X210041880Y-101224844D01*
X210111349Y-101217375D01*
X210173828Y-101248650D01*
X210209480Y-101308739D01*
X210210949Y-101363596D01*
X210199500Y-101421153D01*
X210199500Y-101578846D01*
X210230261Y-101733489D01*
X210230264Y-101733501D01*
X210290602Y-101879172D01*
X210290609Y-101879185D01*
X210378210Y-102010288D01*
X210378213Y-102010292D01*
X210489707Y-102121786D01*
X210489711Y-102121789D01*
X210620814Y-102209390D01*
X210620827Y-102209397D01*
X210758683Y-102266498D01*
X210766503Y-102269737D01*
X210921153Y-102300499D01*
X210921156Y-102300500D01*
X210921158Y-102300500D01*
X211078844Y-102300500D01*
X211078845Y-102300499D01*
X211233497Y-102269737D01*
X211379179Y-102209394D01*
X211510289Y-102121789D01*
X211621789Y-102010289D01*
X211709394Y-101879179D01*
X211769737Y-101733497D01*
X211800500Y-101578842D01*
X211800500Y-101421158D01*
X211800500Y-101421155D01*
X211800499Y-101421153D01*
X211774531Y-101290606D01*
X211769737Y-101266503D01*
X211756062Y-101233489D01*
X211709397Y-101120827D01*
X211709390Y-101120814D01*
X211621789Y-100989711D01*
X211621786Y-100989707D01*
X211510292Y-100878213D01*
X211510288Y-100878210D01*
X211379185Y-100790609D01*
X211379172Y-100790602D01*
X211233501Y-100730264D01*
X211233489Y-100730261D01*
X211078845Y-100699500D01*
X211078842Y-100699500D01*
X210921158Y-100699500D01*
X210921155Y-100699500D01*
X210766510Y-100730261D01*
X210766503Y-100730263D01*
X210658118Y-100775156D01*
X210588649Y-100782623D01*
X210526170Y-100751348D01*
X210490518Y-100691258D01*
X210489050Y-100636404D01*
X210500500Y-100578842D01*
X210500500Y-100421158D01*
X210500500Y-100421155D01*
X210500499Y-100421153D01*
X210476499Y-100300499D01*
X210469737Y-100266503D01*
X210456062Y-100233489D01*
X210409397Y-100120827D01*
X210409390Y-100120814D01*
X210321789Y-99989711D01*
X210321786Y-99989707D01*
X210210292Y-99878213D01*
X210210288Y-99878210D01*
X210079185Y-99790609D01*
X210079172Y-99790602D01*
X209933501Y-99730264D01*
X209933491Y-99730261D01*
X209800308Y-99703769D01*
X209772889Y-99689426D01*
X209744570Y-99676953D01*
X209742200Y-99673373D01*
X209738397Y-99671384D01*
X209723082Y-99644490D01*
X209706006Y-99618691D01*
X209705147Y-99612994D01*
X209703823Y-99610668D01*
X209700511Y-99583827D01*
X209700500Y-99583012D01*
X209700500Y-99438628D01*
X209697024Y-99421155D01*
X209697024Y-99421153D01*
X210699500Y-99421153D01*
X210699500Y-99578846D01*
X210730261Y-99733489D01*
X210730264Y-99733501D01*
X210790602Y-99879172D01*
X210790609Y-99879185D01*
X210878210Y-100010288D01*
X210878213Y-100010292D01*
X210989707Y-100121786D01*
X210989711Y-100121789D01*
X211120814Y-100209390D01*
X211120827Y-100209397D01*
X211258683Y-100266498D01*
X211266503Y-100269737D01*
X211421153Y-100300499D01*
X211421156Y-100300500D01*
X211421158Y-100300500D01*
X211578844Y-100300500D01*
X211578845Y-100300499D01*
X211733497Y-100269737D01*
X211879179Y-100209394D01*
X212010289Y-100121789D01*
X212121789Y-100010289D01*
X212209394Y-99879179D01*
X212269737Y-99733497D01*
X212300500Y-99578842D01*
X212300500Y-99421158D01*
X212300500Y-99421155D01*
X212300499Y-99421153D01*
X212274531Y-99290606D01*
X212269737Y-99266503D01*
X212269735Y-99266498D01*
X212209397Y-99120827D01*
X212209390Y-99120814D01*
X212121789Y-98989711D01*
X212121786Y-98989707D01*
X212010292Y-98878213D01*
X212010288Y-98878210D01*
X211879185Y-98790609D01*
X211879172Y-98790602D01*
X211733501Y-98730264D01*
X211733489Y-98730261D01*
X211578845Y-98699500D01*
X211578842Y-98699500D01*
X211421158Y-98699500D01*
X211421155Y-98699500D01*
X211266510Y-98730261D01*
X211266498Y-98730264D01*
X211120827Y-98790602D01*
X211120814Y-98790609D01*
X210989711Y-98878210D01*
X210989707Y-98878213D01*
X210878213Y-98989707D01*
X210878210Y-98989711D01*
X210790609Y-99120814D01*
X210790602Y-99120827D01*
X210730264Y-99266498D01*
X210730261Y-99266510D01*
X210699500Y-99421153D01*
X209697024Y-99421153D01*
X209669738Y-99283978D01*
X209669737Y-99283977D01*
X209669737Y-99283973D01*
X209647489Y-99230261D01*
X209609397Y-99138297D01*
X209609390Y-99138284D01*
X209521789Y-99007181D01*
X209521786Y-99007177D01*
X209410292Y-98895683D01*
X209410288Y-98895680D01*
X209279185Y-98808079D01*
X209279172Y-98808072D01*
X209133501Y-98747734D01*
X209133489Y-98747731D01*
X208978845Y-98716970D01*
X208978842Y-98716970D01*
X208821158Y-98716970D01*
X208821155Y-98716970D01*
X208666510Y-98747731D01*
X208666498Y-98747734D01*
X208520827Y-98808072D01*
X208520814Y-98808079D01*
X208389711Y-98895680D01*
X208389707Y-98895683D01*
X208278213Y-99007177D01*
X208278210Y-99007181D01*
X208190609Y-99138284D01*
X208190602Y-99138297D01*
X208130264Y-99283968D01*
X208130261Y-99283980D01*
X208099500Y-99438623D01*
X206070702Y-99438623D01*
X206010292Y-99378213D01*
X206010288Y-99378210D01*
X205879185Y-99290609D01*
X205879172Y-99290602D01*
X205733501Y-99230264D01*
X205733489Y-99230261D01*
X205578845Y-99199500D01*
X205578842Y-99199500D01*
X205421158Y-99199500D01*
X205421155Y-99199500D01*
X205266510Y-99230261D01*
X205266498Y-99230264D01*
X205120827Y-99290602D01*
X205120814Y-99290609D01*
X204989711Y-99378210D01*
X204989707Y-99378213D01*
X204878213Y-99489707D01*
X204878210Y-99489711D01*
X204790609Y-99620814D01*
X204790602Y-99620827D01*
X204730264Y-99766498D01*
X204730261Y-99766510D01*
X204699500Y-99921153D01*
X189053232Y-99921153D01*
X189010292Y-99878213D01*
X189010288Y-99878210D01*
X188879185Y-99790609D01*
X188879172Y-99790602D01*
X188733501Y-99730264D01*
X188733489Y-99730261D01*
X188578845Y-99699500D01*
X188578842Y-99699500D01*
X188421158Y-99699500D01*
X188421155Y-99699500D01*
X188266510Y-99730261D01*
X188266498Y-99730264D01*
X188120827Y-99790602D01*
X188120814Y-99790609D01*
X187989711Y-99878210D01*
X187989707Y-99878213D01*
X187878213Y-99989707D01*
X187878210Y-99989711D01*
X187790609Y-100120814D01*
X187790602Y-100120827D01*
X187730264Y-100266498D01*
X187730261Y-100266510D01*
X187699500Y-100421153D01*
X183500000Y-100421153D01*
X183500000Y-95921153D01*
X192699500Y-95921153D01*
X192699500Y-96078846D01*
X192730261Y-96233489D01*
X192730264Y-96233501D01*
X192790602Y-96379172D01*
X192790609Y-96379185D01*
X192878210Y-96510288D01*
X192878213Y-96510292D01*
X192989707Y-96621786D01*
X192989711Y-96621789D01*
X193120814Y-96709390D01*
X193120827Y-96709397D01*
X193266498Y-96769735D01*
X193266503Y-96769737D01*
X193421153Y-96800499D01*
X193421156Y-96800500D01*
X193421158Y-96800500D01*
X193578844Y-96800500D01*
X193578845Y-96800499D01*
X193733497Y-96769737D01*
X193879179Y-96709394D01*
X194010289Y-96621789D01*
X194121789Y-96510289D01*
X194209394Y-96379179D01*
X194269737Y-96233497D01*
X194300500Y-96078842D01*
X194300500Y-95921158D01*
X194300500Y-95921155D01*
X194300499Y-95921153D01*
X194269738Y-95766510D01*
X194269737Y-95766503D01*
X194209794Y-95621786D01*
X194209397Y-95620827D01*
X194209390Y-95620814D01*
X194121789Y-95489711D01*
X194121786Y-95489707D01*
X194010292Y-95378213D01*
X194010288Y-95378210D01*
X193879185Y-95290609D01*
X193879172Y-95290602D01*
X193733501Y-95230264D01*
X193733489Y-95230261D01*
X193578845Y-95199500D01*
X193578842Y-95199500D01*
X193421158Y-95199500D01*
X193421155Y-95199500D01*
X193266510Y-95230261D01*
X193266498Y-95230264D01*
X193120827Y-95290602D01*
X193120814Y-95290609D01*
X192989711Y-95378210D01*
X192989707Y-95378213D01*
X192878213Y-95489707D01*
X192878210Y-95489711D01*
X192790609Y-95620814D01*
X192790602Y-95620827D01*
X192730264Y-95766498D01*
X192730261Y-95766510D01*
X192699500Y-95921153D01*
X183500000Y-95921153D01*
X183500000Y-94421153D01*
X187699500Y-94421153D01*
X187699500Y-94578846D01*
X187730261Y-94733489D01*
X187730264Y-94733501D01*
X187790602Y-94879172D01*
X187790609Y-94879185D01*
X187878210Y-95010288D01*
X187878213Y-95010292D01*
X187989707Y-95121786D01*
X187989711Y-95121789D01*
X188120814Y-95209390D01*
X188120827Y-95209397D01*
X188266498Y-95269735D01*
X188266503Y-95269737D01*
X188421153Y-95300499D01*
X188421156Y-95300500D01*
X188421158Y-95300500D01*
X188578844Y-95300500D01*
X188578845Y-95300499D01*
X188733497Y-95269737D01*
X188879179Y-95209394D01*
X189010289Y-95121789D01*
X189121789Y-95010289D01*
X189181348Y-94921153D01*
X201199500Y-94921153D01*
X201199500Y-95078846D01*
X201230261Y-95233489D01*
X201230264Y-95233501D01*
X201290602Y-95379172D01*
X201290609Y-95379185D01*
X201378210Y-95510288D01*
X201378213Y-95510292D01*
X201489707Y-95621786D01*
X201489711Y-95621789D01*
X201620814Y-95709390D01*
X201620827Y-95709397D01*
X201758683Y-95766498D01*
X201766503Y-95769737D01*
X201921153Y-95800499D01*
X201921156Y-95800500D01*
X201921158Y-95800500D01*
X202078844Y-95800500D01*
X202078845Y-95800499D01*
X202233497Y-95769737D01*
X202379179Y-95709394D01*
X202510289Y-95621789D01*
X202621789Y-95510289D01*
X202709394Y-95379179D01*
X202769737Y-95233497D01*
X202800500Y-95078842D01*
X202800500Y-94921158D01*
X202800500Y-94921155D01*
X202800499Y-94921153D01*
X204699500Y-94921153D01*
X204699500Y-95078846D01*
X204730261Y-95233489D01*
X204730264Y-95233501D01*
X204790602Y-95379172D01*
X204790609Y-95379185D01*
X204878210Y-95510288D01*
X204878213Y-95510292D01*
X204989707Y-95621786D01*
X204989711Y-95621789D01*
X205120814Y-95709390D01*
X205120827Y-95709397D01*
X205258683Y-95766498D01*
X205266503Y-95769737D01*
X205421153Y-95800499D01*
X205421156Y-95800500D01*
X205421158Y-95800500D01*
X205578844Y-95800500D01*
X205578845Y-95800499D01*
X205733497Y-95769737D01*
X205879179Y-95709394D01*
X206010289Y-95621789D01*
X206121789Y-95510289D01*
X206209394Y-95379179D01*
X206269737Y-95233497D01*
X206300500Y-95078842D01*
X206300500Y-94921158D01*
X206300500Y-94921155D01*
X206300499Y-94921153D01*
X206269738Y-94766510D01*
X206269737Y-94766503D01*
X206256062Y-94733489D01*
X206209397Y-94620827D01*
X206209390Y-94620814D01*
X206121789Y-94489711D01*
X206121786Y-94489707D01*
X206010292Y-94378213D01*
X206010288Y-94378210D01*
X205879185Y-94290609D01*
X205879172Y-94290602D01*
X205733501Y-94230264D01*
X205733489Y-94230261D01*
X205578845Y-94199500D01*
X205578842Y-94199500D01*
X205421158Y-94199500D01*
X205421155Y-94199500D01*
X205266510Y-94230261D01*
X205266498Y-94230264D01*
X205120827Y-94290602D01*
X205120814Y-94290609D01*
X204989711Y-94378210D01*
X204989707Y-94378213D01*
X204878213Y-94489707D01*
X204878210Y-94489711D01*
X204790609Y-94620814D01*
X204790602Y-94620827D01*
X204730264Y-94766498D01*
X204730261Y-94766510D01*
X204699500Y-94921153D01*
X202800499Y-94921153D01*
X202769738Y-94766510D01*
X202769737Y-94766503D01*
X202756062Y-94733489D01*
X202709397Y-94620827D01*
X202709390Y-94620814D01*
X202621789Y-94489711D01*
X202621786Y-94489707D01*
X202584746Y-94452667D01*
X202551261Y-94391344D01*
X202556245Y-94321652D01*
X202598117Y-94265719D01*
X202663581Y-94241302D01*
X202719878Y-94250424D01*
X202766503Y-94269737D01*
X202921153Y-94300499D01*
X202921156Y-94300500D01*
X202921158Y-94300500D01*
X203078844Y-94300500D01*
X203078845Y-94300499D01*
X203233497Y-94269737D01*
X203379179Y-94209394D01*
X203510289Y-94121789D01*
X203621789Y-94010289D01*
X203709394Y-93879179D01*
X203769737Y-93733497D01*
X203800500Y-93578842D01*
X203800500Y-93421158D01*
X203800500Y-93421155D01*
X203800499Y-93421153D01*
X203769738Y-93266510D01*
X203769737Y-93266503D01*
X203709794Y-93121786D01*
X203709397Y-93120827D01*
X203709390Y-93120814D01*
X203621789Y-92989711D01*
X203621786Y-92989707D01*
X203510292Y-92878213D01*
X203510288Y-92878210D01*
X203379185Y-92790609D01*
X203379172Y-92790602D01*
X203233501Y-92730264D01*
X203233489Y-92730261D01*
X203078845Y-92699500D01*
X203078842Y-92699500D01*
X202921158Y-92699500D01*
X202921155Y-92699500D01*
X202766510Y-92730261D01*
X202766498Y-92730264D01*
X202620827Y-92790602D01*
X202620814Y-92790609D01*
X202489711Y-92878210D01*
X202489707Y-92878213D01*
X202378213Y-92989707D01*
X202378210Y-92989711D01*
X202290609Y-93120814D01*
X202290602Y-93120827D01*
X202230264Y-93266498D01*
X202230261Y-93266510D01*
X202199500Y-93421153D01*
X202199500Y-93578846D01*
X202230261Y-93733489D01*
X202230264Y-93733501D01*
X202290602Y-93879172D01*
X202290609Y-93879185D01*
X202378210Y-94010288D01*
X202378213Y-94010292D01*
X202415253Y-94047332D01*
X202448738Y-94108655D01*
X202443754Y-94178347D01*
X202401882Y-94234280D01*
X202336418Y-94258697D01*
X202280121Y-94249575D01*
X202233497Y-94230263D01*
X202233492Y-94230262D01*
X202233489Y-94230261D01*
X202078845Y-94199500D01*
X202078842Y-94199500D01*
X201921158Y-94199500D01*
X201921155Y-94199500D01*
X201766510Y-94230261D01*
X201766498Y-94230264D01*
X201620827Y-94290602D01*
X201620814Y-94290609D01*
X201489711Y-94378210D01*
X201489707Y-94378213D01*
X201378213Y-94489707D01*
X201378210Y-94489711D01*
X201290609Y-94620814D01*
X201290602Y-94620827D01*
X201230264Y-94766498D01*
X201230261Y-94766510D01*
X201199500Y-94921153D01*
X189181348Y-94921153D01*
X189209394Y-94879179D01*
X189269737Y-94733497D01*
X189300500Y-94578842D01*
X189300500Y-94421158D01*
X189300500Y-94421155D01*
X189300499Y-94421153D01*
X189274531Y-94290606D01*
X189269737Y-94266503D01*
X189262725Y-94249575D01*
X189209397Y-94120827D01*
X189209390Y-94120814D01*
X189121789Y-93989711D01*
X189121786Y-93989707D01*
X189010292Y-93878213D01*
X189010288Y-93878210D01*
X188879185Y-93790609D01*
X188879172Y-93790602D01*
X188733501Y-93730264D01*
X188733489Y-93730261D01*
X188578845Y-93699500D01*
X188578842Y-93699500D01*
X188421158Y-93699500D01*
X188421155Y-93699500D01*
X188266510Y-93730261D01*
X188266498Y-93730264D01*
X188120827Y-93790602D01*
X188120814Y-93790609D01*
X187989711Y-93878210D01*
X187989707Y-93878213D01*
X187878213Y-93989707D01*
X187878210Y-93989711D01*
X187790609Y-94120814D01*
X187790602Y-94120827D01*
X187730264Y-94266498D01*
X187730261Y-94266510D01*
X187699500Y-94421153D01*
X183500000Y-94421153D01*
X183500000Y-92421153D01*
X222699500Y-92421153D01*
X222699500Y-92578846D01*
X222730261Y-92733489D01*
X222730264Y-92733501D01*
X222790602Y-92879172D01*
X222790609Y-92879185D01*
X222878210Y-93010288D01*
X222878213Y-93010292D01*
X222989707Y-93121786D01*
X222989711Y-93121789D01*
X223120814Y-93209390D01*
X223120827Y-93209397D01*
X223258683Y-93266498D01*
X223266503Y-93269737D01*
X223421153Y-93300499D01*
X223421156Y-93300500D01*
X223421158Y-93300500D01*
X223578844Y-93300500D01*
X223578845Y-93300499D01*
X223733497Y-93269737D01*
X223879179Y-93209394D01*
X224010289Y-93121789D01*
X224121789Y-93010289D01*
X224209394Y-92879179D01*
X224269737Y-92733497D01*
X224300500Y-92578842D01*
X224300500Y-92421158D01*
X224300500Y-92421155D01*
X224300499Y-92421153D01*
X224269738Y-92266510D01*
X224269737Y-92266503D01*
X224209794Y-92121786D01*
X224209397Y-92120827D01*
X224209390Y-92120814D01*
X224121789Y-91989711D01*
X224121786Y-91989707D01*
X224010292Y-91878213D01*
X224010288Y-91878210D01*
X223879185Y-91790609D01*
X223879172Y-91790602D01*
X223733501Y-91730264D01*
X223733489Y-91730261D01*
X223578845Y-91699500D01*
X223578842Y-91699500D01*
X223421158Y-91699500D01*
X223421155Y-91699500D01*
X223266510Y-91730261D01*
X223266498Y-91730264D01*
X223120827Y-91790602D01*
X223120814Y-91790609D01*
X222989711Y-91878210D01*
X222989707Y-91878213D01*
X222878213Y-91989707D01*
X222878210Y-91989711D01*
X222790609Y-92120814D01*
X222790602Y-92120827D01*
X222730264Y-92266498D01*
X222730261Y-92266510D01*
X222699500Y-92421153D01*
X183500000Y-92421153D01*
X183500000Y-90921153D01*
X224699500Y-90921153D01*
X224699500Y-91078846D01*
X224730261Y-91233489D01*
X224730264Y-91233501D01*
X224790602Y-91379172D01*
X224790609Y-91379185D01*
X224878210Y-91510288D01*
X224878213Y-91510292D01*
X224989707Y-91621786D01*
X224989711Y-91621789D01*
X225120814Y-91709390D01*
X225120827Y-91709397D01*
X225266498Y-91769735D01*
X225266503Y-91769737D01*
X225421153Y-91800499D01*
X225421156Y-91800500D01*
X225421158Y-91800500D01*
X225578844Y-91800500D01*
X225578845Y-91800499D01*
X225733497Y-91769737D01*
X225879179Y-91709394D01*
X226010289Y-91621789D01*
X226121789Y-91510289D01*
X226181348Y-91421153D01*
X227699500Y-91421153D01*
X227699500Y-91578846D01*
X227730261Y-91733489D01*
X227730264Y-91733501D01*
X227790602Y-91879172D01*
X227790609Y-91879185D01*
X227878210Y-92010288D01*
X227878213Y-92010292D01*
X227989707Y-92121786D01*
X227989711Y-92121789D01*
X228120814Y-92209390D01*
X228120827Y-92209397D01*
X228258683Y-92266498D01*
X228266503Y-92269737D01*
X228421153Y-92300499D01*
X228421156Y-92300500D01*
X228421158Y-92300500D01*
X228578844Y-92300500D01*
X228578845Y-92300499D01*
X228733497Y-92269737D01*
X228879179Y-92209394D01*
X229010289Y-92121789D01*
X229121789Y-92010289D01*
X229209394Y-91879179D01*
X229269737Y-91733497D01*
X229300500Y-91578842D01*
X229300500Y-91421158D01*
X229300500Y-91421155D01*
X229300499Y-91421153D01*
X229269738Y-91266510D01*
X229269737Y-91266503D01*
X229256062Y-91233489D01*
X229209397Y-91120827D01*
X229209390Y-91120814D01*
X229121789Y-90989711D01*
X229121786Y-90989707D01*
X229010292Y-90878213D01*
X229010288Y-90878210D01*
X228879185Y-90790609D01*
X228879172Y-90790602D01*
X228733501Y-90730264D01*
X228733489Y-90730261D01*
X228578845Y-90699500D01*
X228578842Y-90699500D01*
X228421158Y-90699500D01*
X228421155Y-90699500D01*
X228266510Y-90730261D01*
X228266498Y-90730264D01*
X228120827Y-90790602D01*
X228120814Y-90790609D01*
X227989711Y-90878210D01*
X227989707Y-90878213D01*
X227878213Y-90989707D01*
X227878210Y-90989711D01*
X227790609Y-91120814D01*
X227790602Y-91120827D01*
X227730264Y-91266498D01*
X227730261Y-91266510D01*
X227699500Y-91421153D01*
X226181348Y-91421153D01*
X226209394Y-91379179D01*
X226269737Y-91233497D01*
X226300500Y-91078842D01*
X226300500Y-90921158D01*
X226300500Y-90921155D01*
X226300499Y-90921153D01*
X226274531Y-90790606D01*
X226269737Y-90766503D01*
X226269735Y-90766498D01*
X226209397Y-90620827D01*
X226209390Y-90620814D01*
X226121789Y-90489711D01*
X226121786Y-90489707D01*
X226010292Y-90378213D01*
X226010288Y-90378210D01*
X225879185Y-90290609D01*
X225879172Y-90290602D01*
X225733501Y-90230264D01*
X225733489Y-90230261D01*
X225578845Y-90199500D01*
X225578842Y-90199500D01*
X225421158Y-90199500D01*
X225421155Y-90199500D01*
X225266510Y-90230261D01*
X225266498Y-90230264D01*
X225120827Y-90290602D01*
X225120814Y-90290609D01*
X224989711Y-90378210D01*
X224989707Y-90378213D01*
X224878213Y-90489707D01*
X224878210Y-90489711D01*
X224790609Y-90620814D01*
X224790602Y-90620827D01*
X224730264Y-90766498D01*
X224730261Y-90766510D01*
X224699500Y-90921153D01*
X183500000Y-90921153D01*
X183500000Y-89921153D01*
X194199500Y-89921153D01*
X194199500Y-90078846D01*
X194230261Y-90233489D01*
X194230264Y-90233501D01*
X194290602Y-90379172D01*
X194290609Y-90379185D01*
X194378210Y-90510288D01*
X194378213Y-90510292D01*
X194489707Y-90621786D01*
X194489711Y-90621789D01*
X194620814Y-90709390D01*
X194620827Y-90709397D01*
X194758683Y-90766498D01*
X194766503Y-90769737D01*
X194921153Y-90800499D01*
X194921156Y-90800500D01*
X194921158Y-90800500D01*
X195078844Y-90800500D01*
X195078845Y-90800499D01*
X195233497Y-90769737D01*
X195379179Y-90709394D01*
X195510289Y-90621789D01*
X195621789Y-90510289D01*
X195709394Y-90379179D01*
X195769737Y-90233497D01*
X195800500Y-90078842D01*
X195800500Y-89921158D01*
X195800500Y-89921155D01*
X195800499Y-89921153D01*
X201699500Y-89921153D01*
X201699500Y-90078846D01*
X201730261Y-90233489D01*
X201730264Y-90233501D01*
X201790602Y-90379172D01*
X201790609Y-90379185D01*
X201878210Y-90510288D01*
X201878213Y-90510292D01*
X201989707Y-90621786D01*
X201989711Y-90621789D01*
X202120814Y-90709390D01*
X202120827Y-90709397D01*
X202258683Y-90766498D01*
X202266503Y-90769737D01*
X202421153Y-90800499D01*
X202421156Y-90800500D01*
X202421158Y-90800500D01*
X202578844Y-90800500D01*
X202578845Y-90800499D01*
X202589179Y-90798443D01*
X202614287Y-90793450D01*
X202614292Y-90793449D01*
X202699800Y-90776439D01*
X202733497Y-90769737D01*
X202879179Y-90709394D01*
X203010289Y-90621789D01*
X203121789Y-90510289D01*
X203209394Y-90379179D01*
X203269737Y-90233497D01*
X203300500Y-90078842D01*
X203300500Y-89921158D01*
X203300500Y-89921155D01*
X203300499Y-89921153D01*
X203269738Y-89766510D01*
X203269737Y-89766503D01*
X203209794Y-89621786D01*
X203209397Y-89620827D01*
X203209390Y-89620814D01*
X203121789Y-89489711D01*
X203121786Y-89489707D01*
X203010292Y-89378213D01*
X203010288Y-89378210D01*
X202879185Y-89290609D01*
X202879172Y-89290602D01*
X202733501Y-89230264D01*
X202733489Y-89230261D01*
X202578845Y-89199500D01*
X202578842Y-89199500D01*
X202421158Y-89199500D01*
X202421155Y-89199500D01*
X202266510Y-89230261D01*
X202266498Y-89230264D01*
X202120827Y-89290602D01*
X202120814Y-89290609D01*
X201989711Y-89378210D01*
X201989707Y-89378213D01*
X201878213Y-89489707D01*
X201878210Y-89489711D01*
X201790609Y-89620814D01*
X201790602Y-89620827D01*
X201730264Y-89766498D01*
X201730261Y-89766510D01*
X201699500Y-89921153D01*
X195800499Y-89921153D01*
X195769738Y-89766510D01*
X195769737Y-89766503D01*
X195709794Y-89621786D01*
X195709397Y-89620827D01*
X195709390Y-89620814D01*
X195621789Y-89489711D01*
X195621786Y-89489707D01*
X195510292Y-89378213D01*
X195510288Y-89378210D01*
X195379185Y-89290609D01*
X195379172Y-89290602D01*
X195233501Y-89230264D01*
X195233489Y-89230261D01*
X195078845Y-89199500D01*
X195078842Y-89199500D01*
X194921158Y-89199500D01*
X194921155Y-89199500D01*
X194766510Y-89230261D01*
X194766498Y-89230264D01*
X194620827Y-89290602D01*
X194620814Y-89290609D01*
X194489711Y-89378210D01*
X194489707Y-89378213D01*
X194378213Y-89489707D01*
X194378210Y-89489711D01*
X194290609Y-89620814D01*
X194290602Y-89620827D01*
X194230264Y-89766498D01*
X194230261Y-89766510D01*
X194199500Y-89921153D01*
X183500000Y-89921153D01*
X183500000Y-88921153D01*
X205199500Y-88921153D01*
X205199500Y-89078846D01*
X205230261Y-89233489D01*
X205230264Y-89233501D01*
X205290602Y-89379172D01*
X205290609Y-89379185D01*
X205378210Y-89510288D01*
X205378213Y-89510292D01*
X205489707Y-89621786D01*
X205489711Y-89621789D01*
X205620814Y-89709390D01*
X205620827Y-89709397D01*
X205758683Y-89766498D01*
X205766503Y-89769737D01*
X205921153Y-89800499D01*
X205921156Y-89800500D01*
X205921158Y-89800500D01*
X206078844Y-89800500D01*
X206078845Y-89800499D01*
X206233497Y-89769737D01*
X206379179Y-89709394D01*
X206510289Y-89621789D01*
X206621789Y-89510289D01*
X206709394Y-89379179D01*
X206769737Y-89233497D01*
X206800500Y-89078842D01*
X206800500Y-88921158D01*
X206800500Y-88921155D01*
X206800499Y-88921153D01*
X206769738Y-88766510D01*
X206769737Y-88766503D01*
X206769735Y-88766498D01*
X206709397Y-88620827D01*
X206709390Y-88620814D01*
X206621789Y-88489711D01*
X206621786Y-88489707D01*
X206510292Y-88378213D01*
X206510288Y-88378210D01*
X206379185Y-88290609D01*
X206379172Y-88290602D01*
X206233501Y-88230264D01*
X206233489Y-88230261D01*
X206078845Y-88199500D01*
X206078842Y-88199500D01*
X205921158Y-88199500D01*
X205921155Y-88199500D01*
X205766510Y-88230261D01*
X205766498Y-88230264D01*
X205620827Y-88290602D01*
X205620814Y-88290609D01*
X205489711Y-88378210D01*
X205489707Y-88378213D01*
X205378213Y-88489707D01*
X205378210Y-88489711D01*
X205290609Y-88620814D01*
X205290602Y-88620827D01*
X205230264Y-88766498D01*
X205230261Y-88766510D01*
X205199500Y-88921153D01*
X183500000Y-88921153D01*
X183500000Y-85921153D01*
X195699500Y-85921153D01*
X195699500Y-86078846D01*
X195730261Y-86233489D01*
X195730264Y-86233501D01*
X195790602Y-86379172D01*
X195790609Y-86379185D01*
X195878210Y-86510288D01*
X195878213Y-86510292D01*
X195989707Y-86621786D01*
X195989711Y-86621789D01*
X196120814Y-86709390D01*
X196120827Y-86709397D01*
X196266498Y-86769735D01*
X196266503Y-86769737D01*
X196421153Y-86800499D01*
X196421156Y-86800500D01*
X196421158Y-86800500D01*
X196578844Y-86800500D01*
X196578845Y-86800499D01*
X196733497Y-86769737D01*
X196879179Y-86709394D01*
X197010289Y-86621789D01*
X197121789Y-86510289D01*
X197209394Y-86379179D01*
X197269737Y-86233497D01*
X197300500Y-86078842D01*
X197300500Y-85921158D01*
X197300500Y-85921155D01*
X197300499Y-85921153D01*
X197269738Y-85766510D01*
X197269737Y-85766503D01*
X197256062Y-85733489D01*
X197209397Y-85620827D01*
X197209390Y-85620814D01*
X197121790Y-85489712D01*
X197121784Y-85489705D01*
X197053232Y-85421153D01*
X229199500Y-85421153D01*
X229199500Y-85578846D01*
X229230261Y-85733489D01*
X229230264Y-85733501D01*
X229290602Y-85879172D01*
X229290609Y-85879185D01*
X229378210Y-86010288D01*
X229378213Y-86010292D01*
X229489707Y-86121786D01*
X229489711Y-86121789D01*
X229620814Y-86209390D01*
X229620827Y-86209397D01*
X229766498Y-86269735D01*
X229766503Y-86269737D01*
X229921153Y-86300499D01*
X229921156Y-86300500D01*
X229921158Y-86300500D01*
X230078844Y-86300500D01*
X230078845Y-86300499D01*
X230233497Y-86269737D01*
X230379179Y-86209394D01*
X230510289Y-86121789D01*
X230621789Y-86010289D01*
X230709394Y-85879179D01*
X230769737Y-85733497D01*
X230800500Y-85578842D01*
X230800500Y-85421158D01*
X230800500Y-85421155D01*
X230800499Y-85421153D01*
X230774531Y-85290606D01*
X230769737Y-85266503D01*
X230769735Y-85266498D01*
X230709397Y-85120827D01*
X230709390Y-85120814D01*
X230621789Y-84989711D01*
X230621786Y-84989707D01*
X230510292Y-84878213D01*
X230510288Y-84878210D01*
X230379185Y-84790609D01*
X230379172Y-84790602D01*
X230233501Y-84730264D01*
X230233489Y-84730261D01*
X230078845Y-84699500D01*
X230078842Y-84699500D01*
X229921158Y-84699500D01*
X229921155Y-84699500D01*
X229766510Y-84730261D01*
X229766498Y-84730264D01*
X229620827Y-84790602D01*
X229620814Y-84790609D01*
X229489711Y-84878210D01*
X229489707Y-84878213D01*
X229378213Y-84989707D01*
X229378210Y-84989711D01*
X229290609Y-85120814D01*
X229290602Y-85120827D01*
X229230264Y-85266498D01*
X229230261Y-85266510D01*
X229199500Y-85421153D01*
X197053232Y-85421153D01*
X197010292Y-85378213D01*
X197010288Y-85378210D01*
X196879185Y-85290609D01*
X196879172Y-85290602D01*
X196733501Y-85230264D01*
X196733489Y-85230261D01*
X196578845Y-85199500D01*
X196578842Y-85199500D01*
X196421158Y-85199500D01*
X196421155Y-85199500D01*
X196266510Y-85230261D01*
X196266498Y-85230264D01*
X196120827Y-85290602D01*
X196120814Y-85290609D01*
X195989711Y-85378210D01*
X195989707Y-85378213D01*
X195878213Y-85489707D01*
X195878210Y-85489711D01*
X195790609Y-85620814D01*
X195790602Y-85620827D01*
X195730264Y-85766498D01*
X195730261Y-85766510D01*
X195699500Y-85921153D01*
X183500000Y-85921153D01*
X183500000Y-83421153D01*
X193699500Y-83421153D01*
X193699500Y-83578846D01*
X193730261Y-83733489D01*
X193730264Y-83733501D01*
X193790602Y-83879172D01*
X193790609Y-83879185D01*
X193878210Y-84010288D01*
X193878213Y-84010292D01*
X193989707Y-84121786D01*
X193989711Y-84121789D01*
X194120814Y-84209390D01*
X194120827Y-84209397D01*
X194266498Y-84269735D01*
X194266503Y-84269737D01*
X194421153Y-84300499D01*
X194421156Y-84300500D01*
X194421158Y-84300500D01*
X194578844Y-84300500D01*
X194578845Y-84300499D01*
X194733497Y-84269737D01*
X194879179Y-84209394D01*
X195010289Y-84121789D01*
X195121789Y-84010289D01*
X195209394Y-83879179D01*
X195269737Y-83733497D01*
X195300500Y-83578842D01*
X195300500Y-83421158D01*
X195300500Y-83421155D01*
X195300499Y-83421153D01*
X195269738Y-83266510D01*
X195269737Y-83266503D01*
X195269735Y-83266498D01*
X195209397Y-83120827D01*
X195209390Y-83120814D01*
X195121789Y-82989711D01*
X195121786Y-82989707D01*
X195010292Y-82878213D01*
X195010288Y-82878210D01*
X194879185Y-82790609D01*
X194879172Y-82790602D01*
X194733501Y-82730264D01*
X194733489Y-82730261D01*
X194578845Y-82699500D01*
X194578842Y-82699500D01*
X194421158Y-82699500D01*
X194421155Y-82699500D01*
X194266510Y-82730261D01*
X194266498Y-82730264D01*
X194120827Y-82790602D01*
X194120814Y-82790609D01*
X193989711Y-82878210D01*
X193989707Y-82878213D01*
X193878213Y-82989707D01*
X193878210Y-82989711D01*
X193790609Y-83120814D01*
X193790602Y-83120827D01*
X193730264Y-83266498D01*
X193730261Y-83266510D01*
X193699500Y-83421153D01*
X183500000Y-83421153D01*
X183500000Y-80537544D01*
X183519685Y-80470505D01*
X183520826Y-80468761D01*
X184486246Y-79020631D01*
X184520631Y-78986246D01*
X185968761Y-78020826D01*
X186035460Y-78000018D01*
X186037544Y-78000000D01*
X236962456Y-78000000D01*
X237029495Y-78019685D01*
G37*
%TD.AperFunction*%
%TD*%
M02*
