%TF.GenerationSoftware,KiCad,Pcbnew,10.0.6*%
%TF.CreationDate,2026-09-14T21:53:05+02:00*%
%TF.ProjectId,stm32c071_project,73746d33-3263-4303-9731-5f70726f6a65,rev?*%
%TF.SameCoordinates,Original*%
%TF.FileFunction,Soldermask,Top*%
%TF.FilePolarity,Negative*%
%FSLAX46Y46*%
G04 Gerber Fmt 4.6, Leading zero omitted, Abs format (unit mm)*
G04 Created by KiCad (PCBNEW 10.0.6) date 2026-09-14 21:53:05*
%MOMM*%
%LPD*%
G01*
G04 APERTURE LIST*
G04 Aperture macros list*
%AMRoundRect*
0 Rectangle with rounded corners*
0 $1 Rounding radius*
0 $2 $3 $4 $5 $6 $7 $8 $9 X,Y pos of 4 corners*
0 Add a 4 corners polygon primitive as box body*
4,1,4,$2,$3,$4,$5,$6,$7,$8,$9,$2,$3,0*
0 Add four circle primitives for the rounded corners*
1,1,$1+$1,$2,$3*
1,1,$1+$1,$4,$5*
1,1,$1+$1,$6,$7*
1,1,$1+$1,$8,$9*
0 Add four rect primitives between the rounded corners*
20,1,$1+$1,$2,$3,$4,$5,0*
20,1,$1+$1,$4,$5,$6,$7,0*
20,1,$1+$1,$6,$7,$8,$9,0*
20,1,$1+$1,$8,$9,$2,$3,0*%
G04 Aperture macros list end*
%ADD10RoundRect,0.200000X-0.200000X-0.275000X0.200000X-0.275000X0.200000X0.275000X-0.200000X0.275000X0*%
%ADD11RoundRect,0.200000X0.275000X-0.200000X0.275000X0.200000X-0.275000X0.200000X-0.275000X-0.200000X0*%
%ADD12RoundRect,0.225000X-0.225000X-0.250000X0.225000X-0.250000X0.225000X0.250000X-0.225000X0.250000X0*%
%ADD13RoundRect,0.225000X0.225000X0.250000X-0.225000X0.250000X-0.225000X-0.250000X0.225000X-0.250000X0*%
%ADD14RoundRect,0.125000X-0.125000X0.625000X-0.125000X-0.625000X0.125000X-0.625000X0.125000X0.625000X0*%
%ADD15RoundRect,0.125000X-0.625000X0.125000X-0.625000X-0.125000X0.625000X-0.125000X0.625000X0.125000X0*%
%ADD16RoundRect,0.225000X-0.250000X0.225000X-0.250000X-0.225000X0.250000X-0.225000X0.250000X0.225000X0*%
%ADD17RoundRect,0.200000X0.200000X0.800000X-0.200000X0.800000X-0.200000X-0.800000X0.200000X-0.800000X0*%
%ADD18RoundRect,0.200000X-0.800000X0.200000X-0.800000X-0.200000X0.800000X-0.200000X0.800000X0.200000X0*%
%ADD19RoundRect,0.225000X0.250000X-0.225000X0.250000X0.225000X-0.250000X0.225000X-0.250000X-0.225000X0*%
%ADD20RoundRect,0.218750X0.218750X0.256250X-0.218750X0.256250X-0.218750X-0.256250X0.218750X-0.256250X0*%
%ADD21RoundRect,0.150000X-0.825000X-0.150000X0.825000X-0.150000X0.825000X0.150000X-0.825000X0.150000X0*%
%ADD22RoundRect,0.200000X-0.275000X0.200000X-0.275000X-0.200000X0.275000X-0.200000X0.275000X0.200000X0*%
%ADD23C,0.650000*%
%ADD24RoundRect,0.150000X-0.150000X-0.425000X0.150000X-0.425000X0.150000X0.425000X-0.150000X0.425000X0*%
%ADD25RoundRect,0.075000X-0.075000X-0.500000X0.075000X-0.500000X0.075000X0.500000X-0.075000X0.500000X0*%
%ADD26RoundRect,0.250000X-0.840000X-0.750000X0.840000X-0.750000X0.840000X0.750000X-0.840000X0.750000X0*%
%ADD27RoundRect,0.218750X0.256250X-0.218750X0.256250X0.218750X-0.256250X0.218750X-0.256250X-0.218750X0*%
%ADD28R,1.000000X1.000000*%
%ADD29C,1.000000*%
%ADD30RoundRect,0.162500X0.650000X0.162500X-0.650000X0.162500X-0.650000X-0.162500X0.650000X-0.162500X0*%
%ADD31RoundRect,0.150000X-0.512500X-0.150000X0.512500X-0.150000X0.512500X0.150000X-0.512500X0.150000X0*%
%ADD32RoundRect,0.375000X0.375000X-0.625000X0.375000X0.625000X-0.375000X0.625000X-0.375000X-0.625000X0*%
%ADD33RoundRect,0.500000X1.400000X-0.500000X1.400000X0.500000X-1.400000X0.500000X-1.400000X-0.500000X0*%
G04 APERTURE END LIST*
D10*
%TO.C,R16*%
X229675000Y-90000000D03*
X231325000Y-90000000D03*
%TD*%
D11*
%TO.C,R9*%
X193000000Y-100500000D03*
X193000000Y-98850000D03*
%TD*%
%TO.C,R14*%
X190500000Y-87325000D03*
X190500000Y-85675000D03*
%TD*%
D12*
%TO.C,C3*%
X229725000Y-84000000D03*
X231275000Y-84000000D03*
%TD*%
D10*
%TO.C,R17*%
X219350000Y-129000000D03*
X221000000Y-129000000D03*
%TD*%
D13*
%TO.C,C1*%
X212275000Y-92000000D03*
X210725000Y-92000000D03*
%TD*%
D14*
%TO.C,U1*%
X214300000Y-97825000D03*
X213500000Y-97825000D03*
X212700000Y-97825000D03*
X211900000Y-97825000D03*
X211100000Y-97825000D03*
X210300000Y-97825000D03*
X209500000Y-97825000D03*
X208700000Y-97825000D03*
D15*
X207325000Y-99200000D03*
X207325000Y-100000000D03*
X207325000Y-100800000D03*
X207325000Y-101600000D03*
X207325000Y-102400000D03*
X207325000Y-103200000D03*
X207325000Y-104000000D03*
X207325000Y-104800000D03*
D14*
X208700000Y-106175000D03*
X209500000Y-106175000D03*
X210300000Y-106175000D03*
X211100000Y-106175000D03*
X211900000Y-106175000D03*
X212700000Y-106175000D03*
X213500000Y-106175000D03*
X214300000Y-106175000D03*
D15*
X215675000Y-104800000D03*
X215675000Y-104000000D03*
X215675000Y-103200000D03*
X215675000Y-102400000D03*
X215675000Y-101600000D03*
X215675000Y-100800000D03*
X215675000Y-100000000D03*
X215675000Y-99200000D03*
%TD*%
D13*
%TO.C,C2*%
X212275000Y-95000000D03*
X210725000Y-95000000D03*
%TD*%
D10*
%TO.C,R7*%
X231250000Y-99000000D03*
X232900000Y-99000000D03*
%TD*%
D16*
%TO.C,C4*%
X192500000Y-88725000D03*
X192500000Y-90275000D03*
%TD*%
D17*
%TO.C,SW4*%
X190600000Y-112000000D03*
X186400000Y-112000000D03*
%TD*%
D18*
%TO.C,SW7*%
X196500000Y-128300000D03*
X196500000Y-132500000D03*
%TD*%
D19*
%TO.C,C5*%
X235500000Y-132775000D03*
X235500000Y-131225000D03*
%TD*%
D20*
%TO.C,D5*%
X237000000Y-102500000D03*
X235425000Y-102500000D03*
%TD*%
D11*
%TO.C,R8*%
X193000000Y-94650000D03*
X193000000Y-93000000D03*
%TD*%
%TO.C,R18*%
X213500000Y-125825000D03*
X213500000Y-124175000D03*
%TD*%
D12*
%TO.C,C10*%
X190225000Y-126500000D03*
X191775000Y-126500000D03*
%TD*%
D17*
%TO.C,SW1*%
X190600000Y-94500000D03*
X186400000Y-94500000D03*
%TD*%
%TO.C,SW5*%
X190600000Y-118000000D03*
X186400000Y-118000000D03*
%TD*%
D21*
%TO.C,U2*%
X221525000Y-85095000D03*
X221525000Y-86365000D03*
X221525000Y-87635000D03*
X221525000Y-88905000D03*
X226475000Y-88905000D03*
X226475000Y-87635000D03*
X226475000Y-86365000D03*
X226475000Y-85095000D03*
%TD*%
D10*
%TO.C,R6*%
X231175000Y-102500000D03*
X232825000Y-102500000D03*
%TD*%
D13*
%TO.C,C9*%
X205775000Y-120000000D03*
X204225000Y-120000000D03*
%TD*%
D22*
%TO.C,R1*%
X202500000Y-127175000D03*
X202500000Y-128825000D03*
%TD*%
D10*
%TO.C,R3*%
X231175000Y-113000000D03*
X232825000Y-113000000D03*
%TD*%
D20*
%TO.C,D3*%
X237000000Y-109500000D03*
X235425000Y-109500000D03*
%TD*%
D10*
%TO.C,R2*%
X207175000Y-95000000D03*
X208825000Y-95000000D03*
%TD*%
D12*
%TO.C,C7*%
X200225000Y-120000000D03*
X201775000Y-120000000D03*
%TD*%
D20*
%TO.C,D4*%
X237000000Y-106000000D03*
X235425000Y-106000000D03*
%TD*%
D10*
%TO.C,R5*%
X231175000Y-106000000D03*
X232825000Y-106000000D03*
%TD*%
D20*
%TO.C,D2*%
X237000000Y-113000000D03*
X235425000Y-113000000D03*
%TD*%
D23*
%TO.C,J2*%
X208610000Y-129395000D03*
X214390000Y-129395000D03*
D24*
X208300000Y-128320000D03*
X209100000Y-128320000D03*
D25*
X210250000Y-128320000D03*
X211250000Y-128320000D03*
X211750000Y-128320000D03*
X212750000Y-128320000D03*
D24*
X213900000Y-128320000D03*
X214700000Y-128320000D03*
X214700000Y-128320000D03*
X213900000Y-128320000D03*
D25*
X213250000Y-128320000D03*
X212250000Y-128320000D03*
X210750000Y-128320000D03*
X209750000Y-128320000D03*
D24*
X209100000Y-128320000D03*
X208300000Y-128320000D03*
D26*
X206390000Y-128895000D03*
X206390000Y-132825000D03*
X216610000Y-128895000D03*
X216610000Y-132825000D03*
%TD*%
D19*
%TO.C,C8*%
X216500000Y-119275000D03*
X216500000Y-117725000D03*
%TD*%
D27*
%TO.C,D1*%
X202500000Y-132287500D03*
X202500000Y-130712500D03*
%TD*%
D11*
%TO.C,R11*%
X193000000Y-112000000D03*
X193000000Y-110350000D03*
%TD*%
D17*
%TO.C,SW3*%
X190600000Y-106000000D03*
X186400000Y-106000000D03*
%TD*%
D28*
%TO.C,J1*%
X224690000Y-131500000D03*
D29*
X224690000Y-130230000D03*
X225960000Y-131500000D03*
X225960000Y-130230000D03*
X227230000Y-131500000D03*
X227230000Y-130230000D03*
X228500000Y-131500000D03*
X228500000Y-130230000D03*
X229770000Y-131500000D03*
X229770000Y-130230000D03*
X231040000Y-131500000D03*
X231040000Y-130230000D03*
X232310000Y-131500000D03*
X232310000Y-130230000D03*
%TD*%
D20*
%TO.C,D6*%
X237075000Y-99000000D03*
X235500000Y-99000000D03*
%TD*%
D11*
%TO.C,R10*%
X193000000Y-106000000D03*
X193000000Y-104350000D03*
%TD*%
D30*
%TO.C,U3*%
X202087500Y-88405000D03*
X202087500Y-87135000D03*
X202087500Y-85865000D03*
X202087500Y-84595000D03*
X194912500Y-84595000D03*
X194912500Y-85865000D03*
X194912500Y-87135000D03*
X194912500Y-88405000D03*
%TD*%
D11*
%TO.C,R12*%
X193000000Y-118000000D03*
X193000000Y-116350000D03*
%TD*%
D12*
%TO.C,C6*%
X219450000Y-132000000D03*
X221000000Y-132000000D03*
%TD*%
D17*
%TO.C,SW2*%
X190600000Y-100500000D03*
X186400000Y-100500000D03*
%TD*%
D18*
%TO.C,SW6*%
X190000000Y-128300000D03*
X190000000Y-132500000D03*
%TD*%
D10*
%TO.C,R13*%
X205175000Y-86000000D03*
X206825000Y-86000000D03*
%TD*%
D11*
%TO.C,R19*%
X210000000Y-125825000D03*
X210000000Y-124175000D03*
%TD*%
D31*
%TO.C,U4*%
X211862500Y-118550000D03*
X211862500Y-119500000D03*
X211862500Y-120450000D03*
X214137500Y-120450000D03*
X214137500Y-119500000D03*
X214137500Y-118550000D03*
%TD*%
D32*
%TO.C,U5*%
X200700000Y-117500000D03*
X203000000Y-117500000D03*
D33*
X203000000Y-111200000D03*
D32*
X205300000Y-117500000D03*
%TD*%
D10*
%TO.C,R15*%
X229675000Y-87000000D03*
X231325000Y-87000000D03*
%TD*%
%TO.C,R4*%
X231175000Y-109500000D03*
X232825000Y-109500000D03*
%TD*%
M02*
